<?xml version="1.0" encoding="utf-8"?>
<!-- Generator: Adobe Illustrator 16.0.0, SVG Export Plug-In . SVG Version: 6.00 Build 0)  -->
<!DOCTYPE svg PUBLIC "-//W3C//DTD SVG 1.1//EN" "http://www.w3.org/Graphics/SVG/1.1/DTD/svg11.dtd">
<svg version="1.1" id="Ebene_1" xmlns="http://www.w3.org/2000/svg" xmlns:xlink="http://www.w3.org/1999/xlink" x="0px" y="0px"
	 width="113.386px" height="113.386px" viewBox="0 0 113.386 113.386" enable-background="new 0 0 113.386 113.386"
	 xml:space="preserve">
<g>
	<path fill="none" stroke="#0096A9" stroke-miterlimit="10" d="M43.014,22.798c-1.727-0.118-3.803,0.795-5.979,3.864
		c-4.316,6.088-3.229,19.906-3.229,19.906s0.058,5.368,6.513,5.516c6.456,0.147,12.249-0.074,12.249-0.074
		s3.227,12.396,4.576,16.785c0.492,1.599,1.533,3.514,3.689,3.576c2.805,0.081,4.516-2.053,3.846-4.845
		c-3.467-14.463-3.617-13.444-4.885-18.605c-0.289-1.173-0.436-4.199-2.945-4.641c-2.509-0.442-6.08-0.167-6.08-0.167L45.336,44.2
		l-0.035-9.9c0,0,4.273,7.32,5.055,7.379c4.285,0.325,8.777,0.192,13.057,0.113c1.067-0.02,2.416-2.625,0.75-4.208
		c-0.443-0.42,0.047-0.489-2.129-0.542c-2.538-0.061-5.689-0.316-8.395-0.31c-1.254,0.003-4.879-8.155-6.309-10.919
		c-0.406-0.785-1.248-1.798-2.392-2.429"/>
	<path fill-rule="evenodd" clip-rule="evenodd" fill="none" stroke="#0096A9" stroke-linecap="round" stroke-miterlimit="10" d="
		M43.016,22.799c-0.621-0.645-0.997-1.258-1.422-2.1c-1.27-2.496-0.57-5.932,1.529-8.171c2.094-2.24,5.031-2.694,7.143-1.098
		c2.047,1.542,2.678,4.748,1.517,7.659c-1.147,2.871-4.276,4.581-6.847,4.298"/>
</g>
<polygon fill="none" stroke="#0096A9" stroke-miterlimit="10" points="31.205,29.553 32.509,52.464 51.553,52.625 51.553,55 
	30.107,54.87 28.662,29.553 "/>
<line fill="none" stroke="#0096A9" stroke-width="2" stroke-miterlimit="10" x1="48.053" y1="55.053" x2="48.053" y2="73.053"/>
<line fill="none" stroke="#0096A9" stroke-width="2" stroke-miterlimit="10" x1="33.053" y1="55.053" x2="33.053" y2="73.053"/>
<rect x="59.553" y="42.553" fill="#FFFFFF" stroke="#0096A9" stroke-linecap="round" stroke-linejoin="round" stroke-miterlimit="10" width="27" height="3"/>
<path fill-rule="evenodd" clip-rule="evenodd" fill="#0096A9" d="M71.693,18.667c1.199-0.535,2.244-1.006,3.293-1.475
	c0.207-0.097,0.406-0.186,0.607-0.271c0.373-0.162,0.785-0.352,1.027,0.13c0.244,0.49-0.148,0.704-0.52,0.884
	c-0.663,0.321-1.324,0.643-1.986,0.97c-0.8,0.377-1.594,0.771-2.393,1.15c-0.771,0.357-1.154,0.147-1.168-0.679
	c-0.027-1.796-0.045-3.596-0.002-5.386c0.006-0.272,0.078-0.762,0.556-0.762c0.46,0,0.587,0.374,0.585,0.798
	C71.688,15.519,71.693,17.021,71.693,18.667z"/>
<circle fill-rule="evenodd" clip-rule="evenodd" fill="none" stroke="#0096A9" stroke-miterlimit="10" cx="71.037" cy="19.375" r="8.188"/>
</svg>
