<?xml version="1.0" encoding="utf-8"?>
<!-- Generator: Adobe Illustrator 16.0.0, SVG Export Plug-In . SVG Version: 6.00 Build 0)  -->
<!DOCTYPE svg PUBLIC "-//W3C//DTD SVG 1.1//EN" "http://www.w3.org/Graphics/SVG/1.1/DTD/svg11.dtd">
<svg version="1.1" id="Ebene_1" xmlns="http://www.w3.org/2000/svg" xmlns:xlink="http://www.w3.org/1999/xlink" x="0px" y="0px"
	 width="113.386px" height="113.386px" viewBox="0 0 113.386 113.386" enable-background="new 0 0 113.386 113.386"
	 xml:space="preserve">
<g>
	<path fill-rule="evenodd" clip-rule="evenodd" fill="none" stroke="#0096A9" stroke-miterlimit="10" d="M67.59,28.919
		c-0.119-0.323-0.319-0.627-0.362-0.972c-0.619-4.907-0.124-7.734,1.177-10.987c1.499-3.741,8.183-1.484,12.356-1.484
		c2.685,0,4.64-4.107-0.976-5.001c-4.435-0.705-14.233-0.589-16.267,3.395c-1.101,2.158-1.81,10.93-3.498,12.019
		c-2.439,1.57-10.342,5.292-14.723,7.286c-1.324,0.601-4.452,1.589-5.098,4.916c-0.744,3.829-4.023,28.577-4.023,28.577
		c0.109-0.681-0.954,4.343,2.558,5.009c4.301,0.813,3.965-3.28,4.353-6.435c0.876-7.105,2.784-19.664,2.909-22.443
		c0.042-0.934,1.537-2.465,2.794,0.878c1.258,3.344,6.129,19.532,7.937,25.623c0.351,1.184,1.631,3.458,4.424,2.547
		c2.354-0.767,2.076-2.359,1.619-4.296c-0.441-1.875-1.022-3.461-1.742-6.038c-2.113-7.565-4.121-12.544-4.855-16.796
		c-0.046-0.266-0.23-1.633-0.018-1.866c1.979-2.148,6.097-4.783,7.852-4.254c0.371,0.11,0.262,1.278,0.163,1.708
		c-0.466,2.007-1.588,7.765-1.52,9.435c0.137,3.382,0.378,8.904,0.693,12.265c0.131,1.39,1.293,2.366,2.738,2.372
		c1.462,0.003,2.088-1.512,1.915-3.059c-0.659-5.893-0.521-7.677-0.495-10.95c0.024-2.91,2.483-9.64,2.332-12.547
		c-0.091-1.731-0.61-3.946-1.369-6.337"/>
	<path fill-rule="evenodd" clip-rule="evenodd" fill="none" stroke="#0096A9" stroke-miterlimit="10" d="M67.617,28.924
		c0-0.887,0.156-1.558,0.44-2.43c0.801-2.482,3.52-4.293,6.375-4.395c2.854-0.105,5.091,1.525,5.438,3.965
		c0.338,2.362-0.705,5.004-3.383,6.165c-2.644,1.142-5.352,0.486-8.024-0.748"/>
</g>
</svg>
