<?xml version="1.0" encoding="utf-8"?>
<!-- Generator: Adobe Illustrator 16.0.0, SVG Export Plug-In . SVG Version: 6.00 Build 0)  -->
<!DOCTYPE svg PUBLIC "-//W3C//DTD SVG 1.1//EN" "http://www.w3.org/Graphics/SVG/1.1/DTD/svg11.dtd">
<svg version="1.1" id="Ebene_1" xmlns="http://www.w3.org/2000/svg" xmlns:xlink="http://www.w3.org/1999/xlink" x="0px" y="0px"
	 width="113.386px" height="113.386px" viewBox="0 0 113.386 113.386" enable-background="new 0 0 113.386 113.386"
	 xml:space="preserve">
<g>
	<path fill-rule="evenodd" clip-rule="evenodd" fill="none" stroke="#0096A9" stroke-miterlimit="10" d="M26.896,44.949
		l32.284-0.541c0,0,10.939-6.573,15.005-8.893c3.161-1.805,3.816-2.643,10.976-12.043c2.853-3.747,4.577,0.523,4.544,1.577
		c-0.036,1.054,0.414,6.22-2.26,10.834c-2.848,4.915-6.35,8.519-7.575,11.586c-1.013,2.54-1.85,8.25-4.604,9.67
		c-1.073,0.554-2.276,2.422-8.44-0.535c-2.143-1.028-3.799-0.887-5.313-0.506c-2.657,0.669-5.504,2.1-12.542,4.314
		c-10.641,3.348-25.255,8.867-25.255,8.867"/>
	<g>
		<polyline fill="none" stroke="#0096A9" stroke-linecap="round" stroke-miterlimit="10" points="27.056,57.091 35.674,55.215 
			64.45,48.946 		"/>
		<g>
			<path fill="none" stroke="#0096A9" stroke-linecap="round" stroke-miterlimit="10" d="M36.432,55.05
				c3.384-2.486,4.819-5.538,4.843-7.669"/>
			<path fill="none" stroke="#0096A9" stroke-linecap="round" stroke-miterlimit="10" d="M46.471,56.874
				c1.383-3.341,1.261-2.997,3.715-4.82"/>
			<path fill="none" stroke="#0096A9" stroke-linecap="round" stroke-miterlimit="10" d="M62.225,49.431
				c3.982-2.107,4.558-2.583,5.609-4.586"/>
			<path fill="none" stroke="#0096A9" stroke-linecap="round" stroke-miterlimit="10" d="M63.867,49.074
				c3.752-1.001,6.534,3.062,9.623,0.813"/>
			<path fill="none" stroke="#0096A9" stroke-linecap="round" stroke-miterlimit="10" d="M73.49,49.886
				c2.241-1.314,0.933-6.371,4.637-10.489"/>
			<path fill="none" stroke="#0096A9" stroke-linecap="round" stroke-miterlimit="10" d="M75.783,43.862
				c1.852-1.38,2.473-1.414,4.346-1.666"/>
		</g>
	</g>
</g>
</svg>
