<?xml version="1.0" encoding="utf-8"?>
<!-- Generator: Adobe Illustrator 16.0.0, SVG Export Plug-In . SVG Version: 6.00 Build 0)  -->
<!DOCTYPE svg PUBLIC "-//W3C//DTD SVG 1.1//EN" "http://www.w3.org/Graphics/SVG/1.1/DTD/svg11.dtd">
<svg version="1.1" id="Ebene_1" xmlns="http://www.w3.org/2000/svg" xmlns:xlink="http://www.w3.org/1999/xlink" x="0px" y="0px"
	 width="113.386px" height="113.386px" viewBox="0 0 113.386 113.386" enable-background="new 0 0 113.386 113.386"
	 xml:space="preserve">
<path fill="none" stroke="#0096A9" stroke-miterlimit="10" d="M39.99,22.834c-1.972,0.222-4.109,1.249-4.281,3.744
	c-0.422,6.109-0.359,13.236-0.172,18.359c0.094,2.563,2.672,4.656,2.672,4.656s0.264,12.08,0.234,15.719s1.217,3.894,4.906,3.875
	c3.094-0.016,3.26-1.136,3.344-4.469C46.775,61.386,46.567,33,46.567,33s1.681,1.044,3.298,2.156c0.5,0.344,4.65,0.41,6.066,0.427
	c4.98,0.063,5.584,0.49,5.371-2.396c-0.156-2.109-1.1-1.979-5.225-2.167c-3.887-0.177-4.854-0.521-4.854-0.521l-5.156-3.688
	c0,0-1.6-3.508-4.125-3.938"/>
<path fill-rule="evenodd" clip-rule="evenodd" fill="none" stroke="#0096A9" stroke-linecap="round" stroke-miterlimit="10" d="
	M40.085,22.826c-0.688-0.432-1.135-0.88-1.674-1.526c-1.538-1.83-1.621-4.822-0.31-7.089c1.308-2.267,3.662-3.212,5.727-2.293
	c2,0.886,3.145,3.429,2.742,6.074c-0.399,2.609-2.669,4.636-4.86,4.897"/>
<polygon fill-rule="evenodd" clip-rule="evenodd" fill="#0096A9" points="59.053,37.281 68.773,37.292 73.885,29.333 72.898,28.86 
	68.37,36.053 59.053,36.053 "/>
<polyline fill="#FFFFFF" stroke="#0096A9" stroke-linecap="round" stroke-miterlimit="10" points="50.553,69.053 50.553,37.553 
	75.553,37.553 75.553,69.053 "/>
<path fill-rule="evenodd" clip-rule="evenodd" fill="#0096A9" d="M64.693,16.667c1.199-0.535,2.244-1.006,3.293-1.475
	c0.207-0.097,0.406-0.186,0.607-0.271c0.373-0.162,0.785-0.352,1.027,0.13c0.244,0.49-0.148,0.704-0.52,0.884
	c-0.663,0.321-1.324,0.643-1.986,0.97c-0.8,0.377-1.594,0.771-2.393,1.15c-0.771,0.357-1.154,0.147-1.168-0.679
	c-0.027-1.796-0.045-3.596-0.002-5.386c0.006-0.272,0.078-0.762,0.556-0.762c0.46,0,0.587,0.374,0.585,0.798
	C64.688,13.519,64.693,15.021,64.693,16.667z"/>
<circle fill-rule="evenodd" clip-rule="evenodd" fill="none" stroke="#0096A9" stroke-miterlimit="10" cx="64.037" cy="17.375" r="8.188"/>
</svg>
