<?xml version="1.0" encoding="utf-8"?>
<!-- Generator: Adobe Illustrator 16.0.0, SVG Export Plug-In . SVG Version: 6.00 Build 0)  -->
<!DOCTYPE svg PUBLIC "-//W3C//DTD SVG 1.1//EN" "http://www.w3.org/Graphics/SVG/1.1/DTD/svg11.dtd">
<svg version="1.1" xmlns="http://www.w3.org/2000/svg" xmlns:xlink="http://www.w3.org/1999/xlink" x="0px" y="0px" width="261px"
	 height="261px" viewBox="0 0 261 261" enable-background="new 0 0 261 261" xml:space="preserve">
<g id="DESIGN_x5F_Master">
	<g id="Screens">
	</g>
	<g display="none">
		<path display="inline" fill="#0096A9" d="M54.6,186.82c0-0.3,0.11-0.56,0.32-0.77s0.47-0.32,0.77-0.32s0.56,0.11,0.76,0.32
			s0.31,0.47,0.31,0.77v11.88h15.15v-11.88c0-0.3,0.11-0.56,0.32-0.77s0.47-0.32,0.77-0.32c0.29,0,0.54,0.11,0.76,0.32
			s0.32,0.47,0.32,0.77v25.95c0,0.3-0.11,0.56-0.32,0.77s-0.46,0.32-0.76,0.32c-0.3,0-0.56-0.11-0.77-0.32s-0.32-0.47-0.32-0.77
			v-11.88H56.76v11.88c0,0.3-0.1,0.56-0.31,0.77s-0.46,0.32-0.76,0.32s-0.56-0.11-0.77-0.32s-0.32-0.47-0.32-0.77V186.82z"/>
		<path display="inline" fill="#0096A9" d="M96.79,204.01c0,2.72-0.96,5.04-2.88,6.96s-4.24,2.88-6.96,2.88s-5.04-0.96-6.96-2.88
			s-2.88-4.24-2.88-6.96s0.96-5.04,2.88-6.96s4.24-2.88,6.96-2.88s5.04,0.96,6.96,2.88S96.79,201.29,96.79,204.01z M86.94,196.34
			c-2.11,0-3.91,0.75-5.41,2.25s-2.25,3.3-2.25,5.41s0.75,3.91,2.25,5.41s3.3,2.25,5.41,2.25s3.91-0.75,5.41-2.25
			c1.49-1.49,2.23-3.29,2.23-5.41s-0.74-3.93-2.23-5.41C90.86,197.09,89.05,196.34,86.94,196.34z"/>
		<path display="inline" fill="#0096A9" d="M109.51,211.67c0.3,0,0.56,0.11,0.78,0.32s0.33,0.47,0.33,0.77s-0.11,0.56-0.33,0.77
			s-0.48,0.32-0.78,0.32c-4.62,0-6.93-2.31-6.93-6.93v-10.58h-1.81c-0.3,0-0.57-0.11-0.78-0.32s-0.32-0.47-0.32-0.77
			s0.11-0.56,0.32-0.77s0.48-0.32,0.78-0.32h1.81v-7.37c0-0.3,0.11-0.56,0.32-0.77s0.47-0.32,0.77-0.32s0.56,0.11,0.78,0.32
			s0.33,0.47,0.33,0.77v7.37h3.29c0.3,0,0.56,0.11,0.78,0.32s0.33,0.47,0.33,0.77s-0.11,0.56-0.33,0.77s-0.48,0.32-0.78,0.32h-3.29
			v10.58C104.78,210.09,106.36,211.67,109.51,211.67z"/>
		<path display="inline" fill="#0096A9" d="M135.58,185.73c0.3,0,0.56,0.11,0.77,0.32s0.32,0.47,0.32,0.77s-0.11,0.57-0.32,0.78
			s-0.47,0.33-0.77,0.33c-4.14,0-6.21,2.06-6.21,6.19v1.14h4.76c0.3,0,0.56,0.11,0.77,0.32s0.32,0.47,0.32,0.77
			s-0.11,0.57-0.32,0.78s-0.47,0.33-0.77,0.33h-4.76v15.31c0,0.3-0.11,0.56-0.32,0.77s-0.47,0.32-0.77,0.32s-0.57-0.11-0.78-0.32
			s-0.32-0.47-0.32-0.77v-15.31h-1.81c-0.3,0-0.56-0.11-0.77-0.33s-0.32-0.48-0.32-0.78s0.11-0.56,0.32-0.77s0.47-0.32,0.77-0.32
			h1.81v-1.14C127.18,188.52,129.98,185.73,135.58,185.73z"/>
		<path display="inline" fill="#0096A9" d="M138.39,186.78c0-0.3,0.11-0.56,0.32-0.77s0.47-0.32,0.77-0.32s0.56,0.11,0.78,0.32
			s0.33,0.47,0.33,0.77v24.89h1.81c0.3,0,0.56,0.11,0.78,0.32s0.33,0.47,0.33,0.77s-0.11,0.56-0.33,0.77s-0.48,0.32-0.78,0.32h-2.92
			c-0.3,0-0.56-0.11-0.77-0.32s-0.32-0.47-0.32-0.77V186.78z"/>
		<path display="inline" fill="#0096A9" d="M164.95,212.76c0,0.3-0.11,0.56-0.33,0.77s-0.48,0.32-0.78,0.32s-0.56-0.11-0.77-0.32
			s-0.32-0.47-0.32-0.77v-2.04c-2.16,2.09-4.46,3.13-6.93,3.13c-2.5,0-4.65-0.88-6.45-2.65c-1.77-1.78-2.65-3.94-2.65-6.47v-9.47
			c0-0.3,0.11-0.56,0.32-0.77s0.47-0.32,0.77-0.32s0.56,0.11,0.77,0.32s0.32,0.47,0.32,0.77v9.47c0,1.92,0.67,3.56,2.02,4.9
			c1.39,1.36,3.03,2.04,4.9,2.04c1.9,0,3.53-0.68,4.89-2.04c1.36-1.35,2.04-2.98,2.04-4.9v-9.47c0-0.3,0.11-0.56,0.32-0.77
			s0.47-0.32,0.77-0.32s0.56,0.11,0.78,0.32s0.33,0.47,0.33,0.77V212.76z"/>
		<path display="inline" fill="#0096A9" d="M171.19,203.66h0.02c-0.54-0.2-0.99-0.4-1.35-0.59s-0.64-0.4-0.84-0.61
			c-0.79-0.81-1.18-1.75-1.18-2.83c0-1.09,0.41-2.06,1.23-2.9c1.69-1.71,3.89-2.57,6.61-2.57c1.45,0,2.82,0.31,4.1,0.92
			s2.43,1.49,3.46,2.61c0.13,0.16,0.19,0.37,0.19,0.62c0,0.3-0.11,0.57-0.33,0.78s-0.48,0.33-0.78,0.33c-0.29,0-0.52-0.09-0.69-0.28
			l-0.54-0.54c-1.5-1.5-3.3-2.25-5.41-2.25c-2.12,0-3.83,0.68-5.12,2.04c-0.35,0.41-0.53,0.91-0.53,1.51
			c0.02,0.35,0.13,0.66,0.32,0.91s0.46,0.45,0.83,0.58l8.98,2.97h-0.02c0.54,0.2,0.99,0.4,1.35,0.59s0.64,0.4,0.83,0.61
			c0.8,0.8,1.2,1.74,1.2,2.83c0,1.1-0.42,2.07-1.25,2.9c-1.68,1.71-3.87,2.57-6.59,2.57c-2.94,0-5.46-1.17-7.56-3.52
			c-0.13-0.18-0.19-0.39-0.19-0.63c0-0.3,0.11-0.57,0.32-0.78s0.47-0.33,0.77-0.33c0.28,0,0.52,0.09,0.7,0.28l0.54,0.54
			c1.5,1.5,3.3,2.25,5.41,2.25s3.8-0.67,5.08-2.02c0.36-0.41,0.54-0.91,0.54-1.51c-0.06-0.75-0.44-1.25-1.14-1.51L171.19,203.66z"/>
		<path display="inline" fill="#0096A9" d="M186.45,186.78c0-0.3,0.11-0.56,0.32-0.77s0.47-0.32,0.77-0.32s0.56,0.11,0.77,0.32
			s0.32,0.47,0.32,0.77v10.51c2.16-2.09,4.46-3.13,6.93-3.13c2.53,0,4.68,0.89,6.43,2.67c1.79,1.78,2.69,3.93,2.69,6.45v9.47
			c0,0.3-0.11,0.56-0.33,0.77s-0.48,0.32-0.78,0.32s-0.56-0.11-0.77-0.32s-0.32-0.47-0.32-0.77v-9.47c0-1.93-0.68-3.56-2.04-4.89
			c-1.36-1.37-2.99-2.06-4.89-2.06s-3.53,0.69-4.9,2.06c-1.35,1.34-2.02,2.96-2.02,4.89v9.47c0,0.3-0.11,0.56-0.32,0.77
			s-0.47,0.32-0.77,0.32s-0.56-0.11-0.77-0.32s-0.32-0.47-0.32-0.77V186.78z"/>
	</g>
	<path fill="#0096A9" d="M139.2,159.28h-6.46v-4.67c6.81-1.19,12.01-7.13,12.01-14.28c0-8-6.51-14.51-14.51-14.51
		c-8,0-14.51,6.51-14.51,14.51c0,7.15,5.2,13.09,12.01,14.28v4.67h-6.46c-1.38,0-2.5,1.12-2.5,2.5s1.12,2.5,2.5,2.5h6.46v5.98
		c0,1.38,1.12,2.5,2.5,2.5s2.5-1.12,2.5-2.5v-5.98h6.46c1.38,0,2.5-1.12,2.5-2.5S140.58,159.28,139.2,159.28z M120.72,140.32
		c0-5.24,4.27-9.51,9.51-9.51c5.24,0,9.51,4.27,9.51,9.51c0,5.24-4.27,9.51-9.51,9.51C124.99,149.83,120.72,145.57,120.72,140.32z"
		/>
	<g>
		<path fill="#0096A9" d="M69.04,168.06c0-4.29,0-36.4,0-36.4c0-9.45,6.83-19.5,19.5-19.5h33.59c1.38,0,2.5-1.12,2.5-2.5v-0.48
			c0-1.2-0.86-2.23-2.04-2.46c-10.71-2.01-17.37-11.42-17.37-24.56c0-0.44,0.01-0.87,0.03-1.3c0.01-0.18,0-0.36-0.03-0.54V55.08
			c0.03-0.18,0.04-0.37,0.03-0.56c-0.02-0.43-0.03-0.86-0.03-1.3c0-13.79,11.22-25,25-25c13.79,0,25,11.21,25,25
			c0,0.44-0.01,0.87-0.03,1.3c0,0.04,0,0.08,0,0.12v26.07c0,0.04,0,0.09,0,0.13c0.02,0.43,0.03,0.86,0.03,1.3
			c0,12.98-6.19,22.1-16.56,24.4c-1.14,0.25-1.96,1.27-1.96,2.44v0.66c0,1.38,1.12,2.5,2.5,2.5h32.71c7.28,0,19.5,2.53,19.5,19.5
			c0,0-0.01,33.02,0,36.4c0.01,3.38,5,3.65,5,0s0-36.4,0-36.4c0-15.34-9.16-24.5-24.5-24.5h-22.69c6.96-5.17,11-14.04,11-25
			c0-0.5-0.01-1-0.04-1.49V54.72c0.02-0.5,0.04-0.99,0.04-1.49c0-16.54-13.46-30-30-30c-16.54,0-30,13.46-30,30
			c0,0.37,0.01,0.74,0.02,1.11c-0.01,0.11-0.02,0.21-0.02,0.32v26.07c0,0.11,0.01,0.21,0.02,0.32c-0.01,0.37-0.02,0.74-0.02,1.11
			c0,11,4.03,19.84,11,25H88.54c-15.91,0-24.5,12.62-24.5,24.5c0,0,0,32.52,0,36.4C64.04,171.94,69.04,172.34,69.04,168.06z"/>
	</g>
</g>
<g id="Ebene_7">
</g>
<g id="Startbildschirm_x5F_UIX">
</g>
<g id="STRUKTUR">
</g>
<g id="Ebene_5">
</g>
<g id="Ebene_6">
</g>
</svg>
