<?xml version="1.0" encoding="utf-8"?>
<!-- Generator: Adobe Illustrator 16.0.0, SVG Export Plug-In . SVG Version: 6.00 Build 0)  -->
<!DOCTYPE svg PUBLIC "-//W3C//DTD SVG 1.1//EN" "http://www.w3.org/Graphics/SVG/1.1/DTD/svg11.dtd">
<svg version="1.1" xmlns="http://www.w3.org/2000/svg" xmlns:xlink="http://www.w3.org/1999/xlink" x="0px" y="0px" width="261px"
	 height="261px" viewBox="0 0 261 261" enable-background="new 0 0 261 261" xml:space="preserve">
<g id="DESIGN_x5F_Master">
	<g id="Screens">
	</g>
	<rect x="39.41" y="185.65" fill="none" width="178.48" height="33.07"/>
	
		<text transform="matrix(1 0 0 1 42.5146 213.7607)" display="none" fill="#0096A9" font-family="'Comfortaa-Light'" font-size="36">Wach auf!</text>
	<circle fill="#0096A9" cx="62.31" cy="146.9" r="14.01"/>
	<circle fill="#0096A9" cx="197.18" cy="146.9" r="14.01"/>
	<path fill="#0096A9" d="M209.1,122.02l-9.55-66.72c-0.05-8-6.09-14.49-13.5-14.49H73.3c-7.41,0-13.45,6.49-13.5,14.49l-9.56,66.72
		c-6.5,0.97-11.51,6.57-11.51,13.34c0,0,0,31.39,0,32.98c-0.08,1.98,3,2.02,3,0c0-2.02,0-32.98,0-32.98c0-5.79,4.71-10.5,10.5-10.5
		h154.87c5.79,0,10.5,4.71,10.5,10.5c0,0,0,30.86,0,32.98c-0.41,1.5,3,2.6,3,0s0-32.98,0-32.98
		C220.59,128.59,215.59,122.99,209.1,122.02z M158.78,108.41c-5.51-1.03-8.93-5.87-8.93-12.63c0-0.22,0.01-0.45,0.02-0.67
		c0-0.09,0-0.19-0.02-0.28V81.87c0.02-0.09,0.02-0.19,0.02-0.29c-0.01-0.22-0.02-0.44-0.02-0.67c0-7.08,5.76-12.85,12.85-12.85
		c7.08,0,12.85,5.76,12.85,12.85c0,0.23-0.01,0.45-0.02,0.67c0,0.02,0,0.04,0,0.06v13.4c0,0.02,0,0.04,0,0.07
		c0.01,0.22,0.02,0.44,0.02,0.67c0,6.67-3.18,11.36-8.51,12.54c-0.59,0.13-1.01,0.65-1.01,1.26v0.34c0,0.71,0.58,1.28,1.29,1.28
		h16.81c3.74,0,10.02,1.3,10.02,10.02v0.63h-62.9v-0.63c0-4.86,3.51-10.02,10.02-10.02h17.27c0.71,0,1.29-0.57,1.29-1.28v-0.25
		C159.83,109.06,159.39,108.52,158.78,108.41z M196.73,121.85v-0.63c0-7.88-4.71-12.59-12.59-12.59h-11.66
		c3.58-2.66,5.65-7.22,5.65-12.85c0-0.26-0.01-0.51-0.02-0.77V81.68c0.01-0.25,0.02-0.51,0.02-0.77c0-8.5-6.92-15.42-15.42-15.42
		s-15.42,6.92-15.42,15.42c0,0.19,0,0.38,0.01,0.57c-0.01,0.05-0.01,0.11-0.01,0.16v13.4c0,0.05,0,0.11,0.01,0.16
		c-0.01,0.19-0.01,0.38-0.01,0.57c0,5.65,2.07,10.2,5.65,12.85h-11.66c-8.18,0-12.59,6.49-12.59,12.59v0.63H53.28l9.5-66.26
		l0.01-0.2c0-6.39,4.71-11.59,10.5-11.59h112.75c5.79,0,10.5,5.2,10.5,11.59l9.52,66.45H196.73z"/>
</g>
<g id="Ebene_7">
</g>
<g id="Startbildschirm_x5F_UIX">
</g>
<g id="STRUKTUR">
</g>
<g id="Ebene_5">
</g>
<g id="Ebene_6">
</g>
</svg>
