<?xml version="1.0" encoding="utf-8"?>
<!-- Generator: Adobe Illustrator 16.0.0, SVG Export Plug-In . SVG Version: 6.00 Build 0)  -->
<!DOCTYPE svg PUBLIC "-//W3C//DTD SVG 1.1//EN" "http://www.w3.org/Graphics/SVG/1.1/DTD/svg11.dtd">
<svg version="1.1" xmlns="http://www.w3.org/2000/svg" xmlns:xlink="http://www.w3.org/1999/xlink" x="0px" y="0px" width="261px"
	 height="261px" viewBox="0 0 261 261" enable-background="new 0 0 261 261" xml:space="preserve">
<g id="DESIGN_x5F_Master">
	<g id="Screens">
	</g>
	<rect x="46.03" y="185.65" fill="none" width="167.26" height="33.07"/>
	
		<text transform="matrix(1 0 0 1 74.8115 213.7676)" display="none" fill="#0096A9" font-family="'Comfortaa-Light'" font-size="36">Office</text>
	<path fill="#0096A9" d="M45.47,167.3c0.01-2.02,0-1.4,0-1.4c0-9.45,6.83-19.5,19.5-19.5h33.59c1.38,0,2.5-1.12,2.5-2.5v-0.48
		c0-1.2-0.86-2.23-2.04-2.46c-10.71-2.01-17.37-11.42-17.37-24.56c0-0.44,0.01-0.87,0.04-1.3c0.01-0.18,0-0.36-0.04-0.54V89.33
		c0.03-0.18,0.04-0.37,0.04-0.56c-0.02-0.43-0.04-0.87-0.04-1.3c0-13.79,11.21-25,25-25c13.79,0,25,11.21,25,25
		c0,0.44-0.01,0.87-0.03,1.31c0,0.04,0,0.08,0,0.12v26.07c0,0.04,0,0.09,0,0.13c0.02,0.43,0.03,0.86,0.03,1.3
		c0,12.98-6.19,22.1-16.56,24.4c-1.14,0.25-1.96,1.27-1.96,2.44v0.66c0,1.38,1.12,2.5,2.5,2.5h32.71c7.28,0,19.5,2.53,19.5,19.5
		c0,0,0.01-1.83,0,1.4c-0.01,3.23,4.99,3.65,5,0c-0.04-3.11,0-1.4,0-1.4c0-15.34-9.16-24.5-24.5-24.5h-22.69
		c6.96-5.17,11-14.04,11-25c0-0.5-0.01-1-0.04-1.49V88.96c0.02-0.5,0.04-0.99,0.04-1.49c0-16.54-13.46-30-30-30
		c-16.54,0-30,13.46-30,30c0,0.37,0.01,0.74,0.02,1.11c-0.01,0.11-0.02,0.21-0.02,0.32v26.07c0,0.11,0.01,0.21,0.02,0.32
		c-0.01,0.37-0.02,0.74-0.02,1.11c0,11,4.04,19.84,11,25H64.97c-15.91,0-24.5,12.62-24.5,24.5c0,0,0.05-1.99,0,1.4
		S45.42,170.53,45.47,167.3z"/>
	<g>
		<path fill="#0096A9" d="M174.12,105.47c-18.75,0-34-15.25-34-34s15.25-34,34-34c18.75,0,34,15.25,34,34
			S192.87,105.47,174.12,105.47z M174.12,41.47c-16.54,0-30,13.46-30,30s13.46,30,30,30c16.54,0,30-13.46,30-30
			S190.66,41.47,174.12,41.47z"/>
	</g>
	<path fill="#0096A9" d="M175.46,72.14c0.02-0.04,0.04-0.09,0.06-0.13c0.02-0.05,0.03-0.09,0.04-0.14c0.01-0.05,0.03-0.09,0.03-0.14
		c0.01-0.05,0.01-0.11,0.02-0.17c0-0.03,0.01-0.06,0.01-0.09V54.71c0-0.83-0.67-1.5-1.5-1.5s-1.5,0.67-1.5,1.5v10.17l-8.41-17.52
		c-0.36-0.75-1.25-1.06-2-0.7c-0.75,0.36-1.06,1.25-0.7,2l11.26,23.46c0.01,0.02,0.02,0.03,0.03,0.05c0.05,0.1,0.11,0.18,0.18,0.26
		c0.02,0.02,0.04,0.05,0.05,0.07c0.08,0.09,0.18,0.17,0.28,0.23c0.02,0.01,0.04,0.02,0.07,0.04c0.09,0.05,0.18,0.09,0.28,0.12
		c0.03,0.01,0.06,0.02,0.09,0.03c0.12,0.03,0.24,0.05,0.37,0.05l0,0h0c0,0,0.01,0,0.01,0c0.1,0,0.21-0.01,0.3-0.03
		c0.03-0.01,0.05-0.02,0.08-0.02c0.08-0.02,0.15-0.04,0.22-0.08c0.01,0,0.02-0.01,0.03-0.01c0.03-0.02,0.06-0.04,0.09-0.05
		c0.04-0.03,0.09-0.05,0.13-0.08c0.04-0.03,0.08-0.06,0.12-0.1c0.04-0.03,0.07-0.06,0.1-0.09c0.04-0.04,0.07-0.08,0.1-0.12
		c0.03-0.04,0.06-0.07,0.08-0.11C175.41,72.23,175.43,72.18,175.46,72.14z"/>
</g>
<g id="Ebene_7">
</g>
<g id="Startbildschirm_x5F_UIX">
</g>
<g id="STRUKTUR">
</g>
<g id="Ebene_5">
</g>
<g id="Ebene_6">
</g>
</svg>
