<?xml version="1.0" encoding="utf-8"?>
<!-- Generator: Adobe Illustrator 16.0.0, SVG Export Plug-In . SVG Version: 6.00 Build 0)  -->
<!DOCTYPE svg PUBLIC "-//W3C//DTD SVG 1.1//EN" "http://www.w3.org/Graphics/SVG/1.1/DTD/svg11.dtd">
<svg version="1.1" xmlns="http://www.w3.org/2000/svg" xmlns:xlink="http://www.w3.org/1999/xlink" x="0px" y="0px" width="261px"
	 height="261px" viewBox="0 0 261 261" enable-background="new 0 0 261 261" xml:space="preserve">
<g id="DESIGN_x5F_Master">
	<g id="Screens">
	</g>
</g>
<g id="Batterystatus">
</g>
<g id="Startbildschirm_x5F_UIX">
</g>
<g id="STRUKTUR">
</g>
<g id="Inakt_x2F_Purch">
</g>
<g id="rest">
</g>
<g id="Programm-Icons" display="none">
	<g id="Ebene_12" display="inline">
	</g>
	<g id="focus_x5F_01" display="inline">
		<circle fill="#FFFFFF" stroke="#106873" stroke-width="2" stroke-miterlimit="10" cx="130.5" cy="130.5" r="128.94"/>
		<g>
			<path fill="#0096A9" d="M183.18,134.21c-12.43,0-22.54-10.11-22.54-22.54c0-12.43,10.11-22.54,22.54-22.54
				c12.43,0,22.54,10.11,22.54,22.54S195.61,134.21,183.18,134.21z M183.18,92c-10.84,0-19.67,8.82-19.67,19.67
				s8.82,19.67,19.67,19.67s19.66-8.82,19.66-19.67C202.84,100.82,194.02,92,183.18,92z"/>
		</g>
		<g>
			<path fill="#0096A9" d="M183.18,141.21L183.18,141.21c-16.29,0-29.54-13.25-29.54-29.54s13.25-29.54,29.54-29.54
				c16.29,0,29.54,13.25,29.54,29.54c0,7.89-3.07,15.31-8.65,20.89C198.49,138.13,191.07,141.21,183.18,141.21z M183.18,85
				c-14.71,0-26.67,11.96-26.67,26.67s11.96,26.67,26.67,26.67l0,0h0c7.12,0,13.82-2.77,18.86-7.81c5.04-5.04,7.81-11.73,7.81-18.86
				C209.85,96.96,197.89,85,183.18,85z"/>
		</g>
		<g>
			<path fill="#0096A9" d="M183.18,148.13c-20.11,0-36.46-16.36-36.46-36.47s16.36-36.46,36.46-36.46
				c20.11,0,36.47,16.36,36.47,36.47C219.65,131.78,203.29,148.13,183.18,148.13z M183.18,78.07c-18.52,0-33.59,15.07-33.59,33.59
				s15.07,33.6,33.59,33.6s33.6-15.07,33.6-33.59S201.7,78.07,183.18,78.07z"/>
		</g>
		<circle fill="#0096A9" cx="183.18" cy="111.67" r="6.79"/>
		<path fill="#FFFFFF" d="M174.97,154.76c0-18.95-14.69-21-21-21h-32.71c-0.55,0-1-0.45-1-1v-0.66c0-0.47,0.32-0.87,0.79-0.98
			c11.1-2.46,17.73-12.13,17.73-25.86c0-0.46,0-28.47,0-28.93c0-14.61-11.89-26.5-26.5-26.5c-14.61,0-26.5,11.89-26.5,26.5
			c0,0.46,0,28.47,0,28.93c0,13.91,7.13,23.89,18.59,26.04c0.47,0.09,0.82,0.5,0.82,0.98v0.48c0,0.55-0.45,1-1,1H70.59
			c-13.64,0-21,10.82-21,21c0,0,0.01,21.06,0,23.08h125.38C174.98,174.61,174.97,154.76,174.97,154.76z"/>
		<path fill="#0096A9" d="M51.09,175.32c0-2.02,0-20.56,0-20.56c0-9.45,6.83-19.5,19.5-19.5h33.59c1.38,0,2.5-1.12,2.5-2.5v-0.48
			c0-1.2-0.86-2.23-2.04-2.46c-10.71-2.01-17.37-11.42-17.37-24.56c0-0.44,0-28.49,0-28.93c0-13.79,11.22-25,25-25
			c13.79,0,25,11.21,25,25c0,0.44,0,28.49,0,28.93c0,12.97-6.19,22.1-16.55,24.4c-1.15,0.25-1.96,1.27-1.96,2.44v0.66
			c0,1.38,1.12,2.5,2.5,2.5h32.71c7.28,0,19.5,2.53,19.5,19.5c0,0,0,17.24,0,20.47c0,3.41,5,3.54,5,0c0-3.11,0-20.47,0-20.47
			c0-15.34-9.16-24.5-24.5-24.5h-22.69c6.96-5.17,11-14.04,11-25c0-0.5,0-28.43,0-28.93c0-16.54-13.46-30-30-30
			c-16.54,0-30,13.46-30,30c0,0.37,0,28.56,0,28.93c0,11,4.04,19.84,11,25H70.59c-15.92,0-24.5,12.62-24.5,24.5c0,0,0,17.16,0,20.56
			C46.09,178.73,51.09,178.62,51.09,175.32z"/>
		<polygon fill="#0096A9" points="229.44,86.43 183.18,111.67 216.06,70.49 218.34,82.14 		"/>
	</g>
	<g id="Wording">
		<rect x="46.03" y="185.56" display="inline" fill="none" width="167.26" height="33.07"/>
		
			<text transform="matrix(1 0 0 1 77.4492 213.6787)" display="inline" fill="#0096A9" font-family="'Comfortaa-Light'" font-size="36">Focus</text>
	</g>
</g>
<g id="Programm-Icons_Kopie">
	<circle fill="#FFFFFF" stroke="#106873" stroke-width="2" stroke-miterlimit="10" cx="130.5" cy="130.5" r="128.94"/>
	<path fill="#0096A9" d="M51.09,179.16c0.01-2.02,0-24.4,0-24.4c0-9.45,6.83-19.5,19.5-19.5h33.59c1.38,0,2.5-1.12,2.5-2.5v-0.48
		c0-1.2-0.86-2.23-2.04-2.46c-10.71-2.01-17.37-11.42-17.37-24.56c0-0.44,0.01-0.87,0.04-1.3c0.01-0.18,0-0.36-0.04-0.54V78.19
		c0.04-0.18,0.05-0.37,0.04-0.56c-0.02-0.43-0.04-0.86-0.04-1.3c0-13.79,11.22-25,25-25c13.79,0,25,11.21,25,25
		c0,0.44-0.01,0.87-0.03,1.3c0,0.04,0,0.08,0,0.12v26.07c0,0.04,0,0.09,0,0.13c0.02,0.43,0.03,0.86,0.03,1.3
		c0,12.97-6.19,22.1-16.55,24.4c-1.15,0.25-1.96,1.27-1.96,2.44v0.66c0,1.38,1.12,2.5,2.5,2.5h32.71c7.28,0,19.5,2.53,19.5,19.5
		c0,0,0.01,21.18,0,24.4c-0.01,3.23,4.99,3.65,5,0c-0.04-3.11,0-24.4,0-24.4c0-15.34-9.16-24.5-24.5-24.5h-22.69
		c6.96-5.17,11-14.04,11-25c0-0.5-0.01-1-0.04-1.49V77.82c0.03-0.5,0.04-0.99,0.04-1.49c0-16.54-13.46-30-30-30
		c-16.54,0-30,13.46-30,30c0,0.37,0.01,0.74,0.02,1.11c-0.01,0.11-0.02,0.21-0.02,0.32v26.07c0,0.11,0.01,0.21,0.02,0.32
		c-0.01,0.37-0.02,0.74-0.02,1.11c0,11,4.04,19.84,11,25H70.59c-15.92,0-24.5,12.62-24.5,24.5c0,0,0.05,21.01,0,24.4
		C46.04,182.56,51.04,182.39,51.09,179.16z"/>
	<g>
		<path fill="none" stroke="#0096A9" stroke-width="2.8705" stroke-miterlimit="10" d="M162.08,111.67c0,11.65,9.44,21.1,21.1,21.1
			c11.65,0,21.1-9.45,21.1-21.1c0-11.66-9.45-21.1-21.1-21.1C171.52,90.56,162.08,100.01,162.08,111.67z"/>
		<path fill="none" stroke="#0096A9" stroke-width="2.8705" stroke-miterlimit="10" d="M155.07,111.67
			c0,15.52,12.59,28.1,28.11,28.1c15.52,0,28.1-12.58,28.1-28.1c0-15.52-12.58-28.1-28.1-28.11
			C167.66,83.56,155.07,96.15,155.07,111.67z"/>
		<circle fill="none" stroke="#0096A9" stroke-width="2.8705" stroke-miterlimit="10" cx="183.18" cy="111.67" r="35.03"/>
		<circle fill="#0096A9" cx="183.18" cy="111.67" r="6.79"/>
		<polygon fill="#0096A9" points="229.44,86.43 183.18,111.67 216.06,70.49 218.34,82.14 		"/>
	</g>
	<path fill="#FFFFFF" d="M51.09,179.16c0.01-2.02,0-24.4,0-24.4c0-9.45,6.83-19.5,19.5-19.5h33.59c1.38,0,2.5-1.12,2.5-2.5v-0.48
		c0-1.2-0.86-2.23-2.04-2.46c-10.71-2.01-17.37-11.42-17.37-24.56c0-0.44,0.01-0.87,0.04-1.3c0.01-0.18,0-0.36-0.04-0.54V78.19
		c0.04-0.18,0.05-0.37,0.04-0.56c-0.02-0.43-0.04-0.86-0.04-1.3c0-13.79,11.22-25,25-25c13.79,0,25,11.21,25,25
		c0,0.44-0.01,0.87-0.03,1.3c0,0.04,0,0.08,0,0.12v26.07c0,0.04,0,0.09,0,0.13c0.02,0.43,0.03,0.86,0.03,1.3
		c0,12.97-6.19,22.1-16.55,24.4c-1.15,0.25-1.96,1.27-1.96,2.44v0.66c0,1.38,1.12,2.5,2.5,2.5h32.71c7.28,0,19.5,2.53,19.5,19.5
		c0,0,0.01,21.18,0,24.4"/>
	<g id="Ebene_12_Kopie">
		<path opacity="0.2" fill="#164959" stroke="#FFFFFF" stroke-width="0.6452" stroke-miterlimit="10" d="M-2838.12-1714.81V670.43
			H285.42v-2385.24H-2838.12z M-666.1-1051.53c0-9.39,7.61-17.01,17.01-17.01h141.04h109.99c9.39,0,17.01,7.61,17.01,17.01v251.04
			c0,9.39-7.62,17.01-17.01,17.01h-251.04c-9.39,0-17.01-7.61-17.01-17.01V-1051.53z M-666.1-703.34c0-9.39,7.61-17.01,17.01-17.01
			h141.04h109.99c9.39,0,17.01,7.61,17.01,17.01v251.04c0,9.39-7.62,17.01-17.01,17.01h-251.04c-9.39,0-17.01-7.61-17.01-17.01
			V-703.34z M-666.1-327.52c0-9.39,7.61-17.01,17.01-17.01h141.04h109.99c9.39,0,17.01,7.61,17.01,17.01v251.04
			c0,9.39-7.62,17.01-17.01,17.01h-251.04c-9.39,0-17.01-7.61-17.01-17.01V-327.52z M-1519.51-1047.78v251.04
			c0,9.39-7.61,17.01-17.01,17.01h-251.04c-9.39,0-17.01-7.61-17.01-17.01v-251.04c0-9.39,7.61-17.01,17.01-17.01h251.04
			C-1527.12-1064.79-1519.51-1057.17-1519.51-1047.78z M-1886-1687.82c126.23,0,228.57,102.33,228.57,228.57
			c0,126.23-102.33,228.57-228.57,228.57c-126.23,0-228.57-102.33-228.57-228.57C-2114.57-1585.49-2012.24-1687.82-1886-1687.82z
			 M-1854.75,253.43c0,9.39-7.62,17.01-17.01,17.01h-251.04c-9.39,0-17.01-7.61-17.01-17.01V2.4c0-9.39,7.61-17.01,17.01-17.01
			h141.04h109.99c9.39,0,17.01,7.61,17.01,17.01V253.43z M-1853.75-76.67c0,9.39-7.62,17.01-17.01,17.01h-251.04
			c-9.39,0-17.01-7.61-17.01-17.01V-327.7c0-9.39,7.61-17.01,17.01-17.01h141.04h109.99c9.39,0,17.01,7.61,17.01,17.01V-76.67z
			 M-2139.59-703.68c0-9.39,7.61-17.01,17.01-17.01h141.04h109.99c9.39,0,17.01,7.61,17.01,17.01v251.04
			c0,9.39-7.61,17.01-17.01,17.01h-251.04c-9.39,0-17.01-7.61-17.01-17.01V-703.68z M-1517.8,626.54c0,9.39-7.62,17.01-17.01,17.01
			h-251.04c-9.39,0-17.01-7.61-17.01-17.01V375.51c0-9.39,7.61-17.01,17.01-17.01h141.04h109.99c9.39,0,17.01,7.61,17.01,17.01
			V626.54z M-381.04,625.92c0,9.39-7.62,17.01-17.01,17.01h-251.04c-9.39,0-17.01-7.61-17.01-17.01V374.88
			c0-9.39,7.61-17.01,17.01-17.01h141.04h109.99c9.39,0,17.01,7.61,17.01,17.01V625.92z M281.42,253.09
			c0,9.39-7.62,17.01-17.01,17.01H13.38c-9.39,0-17.01-7.61-17.01-17.01V2.06c0-9.39,7.62-17.01,17.01-17.01h141.04h109.99
			c9.39,0,17.01,7.61,17.01,17.01V253.09z M-255.12-1230.68c-126.23,0-228.57-102.33-228.57-228.57
			c0-126.23,102.33-228.57,228.57-228.57c126.23,0,228.57,102.33,228.57,228.57C-26.55-1333.02-128.89-1230.68-255.12-1230.68z"/>
		<g>
			<path fill="#0096A9" d="M98.57,87.37c-2.05,0-3.71,1.67-3.71,3.71s1.67,3.71,3.71,3.71s3.71-1.67,3.71-3.71
				S100.62,87.37,98.57,87.37z"/>
			<path fill="#0096A9" d="M125.98,87.37c-2.05,0-3.71,1.67-3.71,3.71s1.67,3.71,3.71,3.71s3.71-1.67,3.71-3.71
				S128.03,87.37,125.98,87.37z"/>
		</g>
	</g>
</g>
<g id="ANIM">
</g>
<g id="Ebene_14">
</g>
<g id="Ebene_10">
</g>
<g id="Colors">
</g>
<g id="TXT" display="none">
	<g display="inline">
		<polyline fill="none" stroke="#000000" stroke-width="1.0002" stroke-miterlimit="10" points="586.69,4955.08 892.42,4955.08 
			892.42,-2373.22 -3418,-2373.22 -3418,2994.79 -3888.6,2994.79 -3888.6,2601.49 -9229.26,2601.49 -9229.26,1547.89 
			-8889.26,1547.89 -8889.26,2434.57 -6277.54,2434.57 -6277.54,223.59 -8889.26,223.59 -8889.26,1088.24 -9229.26,1088.24 
			-9229.26,213.89 -15352.19,213.89 -15353.05,5664.21 -13544,5664.21 -13544,9015.01 -15353.58,9015.01 -15353.96,11425.81 
			947.91,11425.81 947.91,11126.91 -2289.48,11126.91 -2289.48,9017.23 947.91,9017.23 947.91,5465.01 -3888.6,5465.01 
			-3888.6,3207.68 -3418,3207.68 -3418,4955.08 -3045.5,4955.08 		"/>
	</g>
	<rect x="46.03" y="185.56" display="inline" fill="none" width="167.26" height="33.07"/>
	
		<text transform="matrix(1 0 0 1 77.4492 213.6787)" display="inline" fill="#0096A9" font-family="'Comfortaa-Light'" font-size="36">Focus</text>
</g>
<g id="PopUp">
</g>
<g id="_x31_st_x5F_Welcome">
</g>
<g id="Ebene_19">
</g>
<g id="Ebene_22">
</g>
<g id="Icons">
</g>
<g id="Ebene_21">
</g>
</svg>
