<?xml version="1.0" encoding="utf-8"?>
<!-- Generator: Adobe Illustrator 16.0.0, SVG Export Plug-In . SVG Version: 6.00 Build 0)  -->
<!DOCTYPE svg PUBLIC "-//W3C//DTD SVG 1.1//EN" "http://www.w3.org/Graphics/SVG/1.1/DTD/svg11.dtd">
<svg version="1.1" xmlns="http://www.w3.org/2000/svg" xmlns:xlink="http://www.w3.org/1999/xlink" x="0px" y="0px" width="261px"
	 height="261px" viewBox="0 0 261 261" enable-background="new 0 0 261 261" xml:space="preserve">
<g id="DESIGN_x5F_Master">
	<g id="Screens">
	</g>
</g>
<g id="Batterystatus">
</g>
<g id="Startbildschirm_x5F_UIX">
</g>
<g id="STRUKTUR">
</g>
<g id="Inakt_x2F_Purch">
</g>
<g id="rest">
</g>
<g id="Programm-Icons" display="none">
	<rect x="39.41" y="185.99" display="inline" fill="none" width="178.48" height="33.07"/>
	<text transform="matrix(1 0 0 1 42.5156 214.1084)" fill="#0096A9" font-family="'Comfortaa-Light'" font-size="36">Wach auf!</text>
	<g display="inline">
		<rect x="-246.75" y="117.27" fill="none" width="266.05" height="66.51"/>
		<text transform="matrix(1 0 0 1 -246.749 147.936)" fill="#1D1D1B" font-family="'MuseoSans-500'" font-size="43.4369">stay up</text>
	</g>
	<g id="Ebene_12" display="inline">
	</g>
	<g id="stay_up_x21_" display="inline">
		<circle fill="#FFFFFF" stroke="#106873" stroke-width="2" stroke-miterlimit="10" cx="130.5" cy="130.5" r="128.94"/>
		<circle fill="#0096A9" cx="62.31" cy="147.25" r="14.01"/>
		<circle fill="#0096A9" cx="197.19" cy="147.25" r="14.01"/>
		<path fill="#0096A9" d="M209.1,122.37l-9.55-66.72c-0.05-8-6.09-14.49-13.5-14.49H73.3c-7.41,0-13.45,6.49-13.5,14.49l-9.57,66.72
			c-6.5,0.97-11.51,6.57-11.51,13.34c0,0,0,37.39,0,38.98c0,2.13,3,2.17,3,0c0-2.02,0-38.98,0-38.98c0-5.79,4.71-10.5,10.5-10.5
			h154.87c5.79,0,10.5,4.71,10.5,10.5c0,0,0,36.86,0,38.98c0,2.76,3,2.6,3,0c0-2.6,0-38.98,0-38.98
			C220.59,128.94,215.59,123.34,209.1,122.37z M158.78,108.76c-5.51-1.03-8.93-5.87-8.93-12.62c0-0.22,0-14.64,0-14.87
			c0-7.08,5.76-12.85,12.85-12.85c7.08,0,12.85,5.76,12.85,12.85c0,0.23,0,14.64,0,14.87c0,6.67-3.18,11.36-8.51,12.54
			c-0.59,0.13-1.01,0.65-1.01,1.26v0.34c0,0.71,0.58,1.28,1.29,1.28h16.81c3.74,0,10.02,1.3,10.02,10.02v0.62h-62.9v-0.62
			c0-4.86,3.51-10.02,10.02-10.02h17.27c0.71,0,1.28-0.57,1.28-1.28v-0.25C159.83,109.4,159.39,108.87,158.78,108.76z M196.73,122.2
			v-0.62c0-7.88-4.71-12.59-12.59-12.59h-11.67c3.58-2.66,5.66-7.22,5.66-12.85c0-0.26,0-14.61,0-14.87
			c0-8.5-6.92-15.42-15.42-15.42s-15.42,6.92-15.42,15.42c0,0.19,0,14.68,0,14.87c0,5.65,2.07,10.2,5.65,12.85h-11.66
			c-8.18,0-12.59,6.49-12.59,12.59v0.62H53.28l9.5-66.26l0.02-0.2c0-6.39,4.71-11.59,10.5-11.59h112.75c5.79,0,10.5,5.2,10.5,11.59
			l9.52,66.45H196.73z"/>
	</g>
	<g id="Wording">
		<rect x="39.41" y="185.99" display="inline" fill="none" width="178.48" height="33.07"/>
		
			<text transform="matrix(1 0 0 1 64.1367 214.1084)" display="inline" fill="#0096A9" font-family="'Comfortaa-Light'" font-size="36">Stay up</text>
	</g>
</g>
<g id="Programm-Icons_Kopie">
	<circle fill="#FFFFFF" stroke="#106873" stroke-width="2" stroke-miterlimit="10" cx="130.5" cy="130.5" r="128.94"/>
	<path fill="#0096A9" d="M131.26,122.3v-0.72c0-4.86,3.51-10.02,10.02-10.02h17.27c0.71,0,1.28-0.57,1.28-1.28v-0.25
		c0-0.62-0.44-1.15-1.05-1.26c-5.51-1.03-8.93-5.87-8.93-12.62c0-0.22,0.01-0.45,0.02-0.67c0-0.09,0-0.19-0.02-0.28V82.22
		c0.02-0.09,0.02-0.19,0.02-0.29c-0.01-0.22-0.02-0.44-0.02-0.67c0-7.08,5.76-12.85,12.85-12.85c7.08,0,12.85,5.76,12.85,12.85
		c0,0.23-0.01,0.45-0.02,0.67c0,0.02,0,0.04,0,0.06v13.4c0,0.02,0,0.04,0,0.07c0.01,0.22,0.02,0.44,0.02,0.67
		c0,6.67-3.18,11.36-8.51,12.54c-0.59,0.13-1.01,0.65-1.01,1.26v0.34c0,0.71,0.58,1.28,1.29,1.28h16.81
		c3.74,0,10.02,1.3,10.02,10.02v0.72h2.57v-0.72c0-7.88-4.71-12.59-12.59-12.59h-11.67c3.58-2.66,5.66-7.22,5.66-12.85
		c0-0.26-0.01-0.51-0.02-0.77V82.03c0.01-0.25,0.02-0.51,0.02-0.77c0-8.5-6.92-15.42-15.42-15.42s-15.42,6.92-15.42,15.42
		c0,0.19,0,0.38,0.01,0.57c-0.01,0.05-0.01,0.11-0.01,0.17v13.4c0,0.05,0,0.11,0.01,0.16c-0.01,0.19-0.01,0.38-0.01,0.57
		c0,5.65,2.07,10.2,5.65,12.85h-11.66c-8.18,0-12.59,6.49-12.59,12.59v0.72H131.26z"/>
	<rect x="39.41" y="185.99" fill="none" width="178.48" height="33.07"/>
	
		<text transform="matrix(1 0 0 1 42.5156 214.1084)" display="none" fill="#0096A9" font-family="'Comfortaa-Light'" font-size="36">Wach auf!</text>
	<circle fill="#0096A9" cx="62.31" cy="147.25" r="14.01"/>
	<circle fill="#0096A9" cx="197.19" cy="147.25" r="14.01"/>
	<path fill="#0096A9" d="M41.72,168.68c0-2.02,0-32.98,0-32.98c0-5.79,4.71-10.5,10.5-10.5h154.87c5.79,0,10.5,4.71,10.5,10.5
		c0,0,0,35.5,0,32.98c-0.41,1.5,3,2.6,3,0c0-2.6,0-32.98,0-32.98c0-7.45-6.06-13.5-13.5-13.5H52.22c-7.44,0-13.5,6.05-13.5,13.5
		c0,0,0,35,0,32.98C38.64,170.67,41.72,170.7,41.72,168.68z"/>
	<path fill="#0096A9" d="M53.08,123.6l9.7-67.66l0.02-0.2c0-6.39,4.71-11.59,10.5-11.59h112.75c5.79,0,10.5,5.2,10.5,11.59
		l9.72,67.86h3.01l-9.73-67.96c-0.05-8-6.09-14.49-13.5-14.49H73.3c-7.41,0-13.45,6.49-13.5,14.49l-9.74,67.96H53.08z"/>
	<g id="Ebene_12_Kopie">
		<path opacity="0.2" fill="#164959" stroke="#FFFFFF" stroke-width="0.6452" stroke-miterlimit="10" d="M-2174.93-660.76v2385.24
			H948.61V-660.76H-2174.93z M-2.91,2.52c0-9.39,7.61-17.01,17.01-17.01h141.04h109.99c9.39,0,17.01,7.61,17.01,17.01v251.04
			c0,9.39-7.62,17.01-17.01,17.01H14.1c-9.39,0-17.01-7.61-17.01-17.01V2.52z M-2.91,350.71c0-9.39,7.61-17.01,17.01-17.01h141.04
			h109.99c9.39,0,17.01,7.61,17.01,17.01v251.04c0,9.39-7.62,17.01-17.01,17.01H14.1c-9.39,0-17.01-7.61-17.01-17.01V350.71z
			 M-2.91,726.53c0-9.39,7.61-17.01,17.01-17.01h141.04h109.99c9.39,0,17.01,7.61,17.01,17.01v251.04c0,9.39-7.62,17.01-17.01,17.01
			H14.1c-9.39,0-17.01-7.61-17.01-17.01V726.53z M-856.32,6.27v251.04c0,9.39-7.61,17.01-17.01,17.01h-251.04
			c-9.39,0-17.01-7.61-17.01-17.01V6.27c0-9.39,7.61-17.01,17.01-17.01h251.04C-863.93-10.74-856.32-3.12-856.32,6.27z
			 M-1222.81-633.77c126.23,0,228.57,102.33,228.57,228.57c0,126.23-102.33,228.57-228.57,228.57
			c-126.23,0-228.57-102.33-228.57-228.57C-1451.38-531.44-1349.05-633.77-1222.81-633.77z M-1191.56,1307.48
			c0,9.39-7.62,17.01-17.01,17.01h-251.04c-9.39,0-17.01-7.61-17.01-17.01v-251.04c0-9.39,7.61-17.01,17.01-17.01h141.04h109.99
			c9.39,0,17.01,7.61,17.01,17.01V1307.48z M-1190.56,977.38c0,9.39-7.62,17.01-17.01,17.01h-251.04c-9.39,0-17.01-7.61-17.01-17.01
			V726.34c0-9.39,7.61-17.01,17.01-17.01h141.04h109.99c9.39,0,17.01,7.61,17.01,17.01V977.38z M-1476.41,350.37
			c0-9.39,7.61-17.01,17.01-17.01h141.04h109.99c9.39,0,17.01,7.61,17.01,17.01v251.04c0,9.39-7.61,17.01-17.01,17.01h-251.04
			c-9.39,0-17.01-7.61-17.01-17.01V350.37z M-854.62,1680.59c0,9.39-7.62,17.01-17.01,17.01h-251.04c-9.39,0-17.01-7.61-17.01-17.01
			v-251.04c0-9.39,7.61-17.01,17.01-17.01h141.04h109.99c9.39,0,17.01,7.61,17.01,17.01V1680.59z M282.14,1679.96
			c0,9.39-7.62,17.01-17.01,17.01H14.1c-9.39,0-17.01-7.61-17.01-17.01v-251.04c0-9.39,7.61-17.01,17.01-17.01h141.04h109.99
			c9.39,0,17.01,7.61,17.01,17.01V1679.96z M944.61,1307.14c0,9.39-7.62,17.01-17.01,17.01H676.57c-9.39,0-17.01-7.61-17.01-17.01
			V1056.1c0-9.39,7.62-17.01,17.01-17.01h141.04H927.6c9.39,0,17.01,7.61,17.01,17.01V1307.14z M408.07-176.64
			c-126.23,0-228.57-102.33-228.57-228.57c0-126.23,102.33-228.57,228.57-228.57c126.23,0,228.57,102.33,228.57,228.57
			C636.64-278.97,534.3-176.64,408.07-176.64z"/>
		<g>
			<path fill="#0096A9" d="M169.82,85.47c0.77,0,1.39,0.62,1.39,1.39v3.75c0,0.77-0.62,1.39-1.39,1.39c-0.77,0-1.39-0.62-1.39-1.39
				v-3.75C168.42,86.09,169.05,85.47,169.82,85.47z"/>
			<path fill="#0096A9" d="M157.14,86.86v3.75c0,0.77-0.62,1.39-1.39,1.39c-0.77,0-1.39-0.62-1.39-1.39v-3.75
				c0-0.77,0.62-1.39,1.39-1.39C156.52,85.47,157.14,86.09,157.14,86.86z"/>
		</g>
	</g>
</g>
<g id="ANIM">
</g>
<g id="Ebene_14">
</g>
<g id="Ebene_10">
</g>
<g id="Colors">
</g>
<g id="TXT" display="none">
	<g display="inline">
		<polyline fill="none" stroke="#000000" stroke-width="1.0002" stroke-miterlimit="10" points="1249.88,6009.13 1555.61,6009.13 
			1555.61,-1319.17 -2754.81,-1319.17 -2754.81,4048.84 -3225.41,4048.84 -3225.41,3655.54 -8566.07,3655.54 -8566.07,2601.94 
			-8226.07,2601.94 -8226.07,3488.62 -5614.35,3488.62 -5614.35,1277.64 -8226.07,1277.64 -8226.07,2142.29 -8566.07,2142.29 
			-8566.07,1267.94 -14689,1267.94 -14689.86,6718.26 -12880.81,6718.26 -12880.81,10069.06 -14690.39,10069.06 -14690.77,12479.86 
			1611.1,12479.86 1611.1,12180.96 -1626.29,12180.96 -1626.29,10071.28 1611.1,10071.28 1611.1,6519.06 -3225.41,6519.06 
			-3225.41,4261.72 -2754.81,4261.72 -2754.81,6009.13 -2382.31,6009.13 		"/>
	</g>
	<rect x="39.41" y="185.99" display="inline" fill="none" width="178.48" height="33.07"/>
	
		<text transform="matrix(1 0 0 1 64.1367 214.1084)" display="inline" fill="#0096A9" font-family="'Comfortaa-Light'" font-size="36">Stay up</text>
</g>
<g id="PopUp">
</g>
<g id="_x31_st_x5F_Welcome">
</g>
<g id="Ebene_19">
</g>
<g id="Ebene_22">
</g>
<g id="Icons">
</g>
<g id="Ebene_21">
</g>
</svg>
