<?xml version="1.0" encoding="utf-8"?>
<!-- Generator: Adobe Illustrator 16.0.0, SVG Export Plug-In . SVG Version: 6.00 Build 0)  -->
<!DOCTYPE svg PUBLIC "-//W3C//DTD SVG 1.1//EN" "http://www.w3.org/Graphics/SVG/1.1/DTD/svg11.dtd">
<svg version="1.1" xmlns="http://www.w3.org/2000/svg" xmlns:xlink="http://www.w3.org/1999/xlink" x="0px" y="0px" width="261px"
	 height="261px" viewBox="0 0 261 261" enable-background="new 0 0 261 261" xml:space="preserve">
<g id="DESIGN_x5F_Master">
	<g id="Screens">
	</g>
</g>
<g id="Batterystatus">
</g>
<g id="Startbildschirm_x5F_UIX">
</g>
<g id="STRUKTUR">
</g>
<g id="Inakt_x2F_Purch">
</g>
<g id="rest">
</g>
<g id="Programm-Icons" display="none">
	<g display="inline">
	</g>
	<g id="Ebene_12" display="inline">
	</g>
	<g id="busy_x5F_01" display="inline">
		<circle fill="#FFFFFF" stroke="#106873" stroke-width="2" stroke-miterlimit="10" cx="130.5" cy="130.5" r="128.94"/>
		<path fill="#0096A9" d="M41.81,174.99c0-2.02,0-8.17,0-8.17c0-9.45,6.83-19.5,19.5-19.5H94.9c1.38,0,2.5-1.12,2.5-2.5v-0.48
			c0-1.2-0.86-2.23-2.04-2.46c-10.71-2.01-17.37-11.42-17.37-24.56c0-0.44,0-28.49,0-28.93c0-13.79,11.21-25,25-25
			c13.79,0,25,11.21,25,25c0,0.44,0,28.49,0,28.93c0,12.98-6.19,22.1-16.55,24.4c-1.14,0.25-1.96,1.27-1.96,2.44v0.66
			c0,1.38,1.12,2.5,2.5,2.5h32.71c7.28,0,19.5,2.53,19.5,19.5c0,0,0,4.94,0,8.17c0,3.57,5,3.87,5,0c0-3.11,0-8.17,0-8.17
			c0-15.34-9.16-24.5-24.5-24.5h-22.69c6.96-5.17,11-14.04,11-25c0-0.5,0-28.43,0-28.93c0-16.54-13.46-30-30-30
			c-16.54,0-30,13.46-30,30c0,0.37,0,28.56,0,28.93c0,11,4.04,19.84,11,25H61.31c-15.91,0-24.5,12.62-24.5,24.5c0,0,0,4.78,0,8.17
			C36.81,178.44,41.81,178.33,41.81,174.99z"/>
		<g>
			<g>
				<path fill="#0096A9" d="M176.91,101.87c-19.77,0-35.85-16.08-35.85-35.85c0-19.77,16.08-35.85,35.85-35.85
					c19.77,0,35.86,16.08,35.86,35.85C212.77,85.79,196.68,101.87,176.91,101.87z M176.91,34.39c-17.44,0-31.63,14.19-31.63,31.63
					s14.19,31.63,31.63,31.63c17.45,0,31.64-14.19,31.64-31.63S194.36,34.39,176.91,34.39z"/>
			</g>
			
				<line fill="none" stroke="#0096A9" stroke-width="3.1637" stroke-linecap="round" stroke-linejoin="round" stroke-miterlimit="10" x1="176.92" y1="66.02" x2="176.92" y2="48.35"/>
			
				<line fill="none" stroke="#0096A9" stroke-width="3.1637" stroke-linecap="round" stroke-linejoin="round" stroke-miterlimit="10" x1="176.92" y1="66.02" x2="165.04" y2="41.28"/>
		</g>
		<g>
			<path fill="none" d="M195.82,128.07v-3.61h-10.68c-0.88,0-1.6,0.72-1.6,1.6v45.98c0,0.88,0.72,1.61,1.6,1.61h35.15
				c0.88,0,1.6-0.72,1.6-1.61v-45.98c0-0.88-0.72-1.6-1.6-1.6h-10.01v3.61H195.82z M188.72,168.17c-1.83,0-3.32-1.49-3.32-3.32
				c0-1.83,1.49-3.32,3.32-3.32s3.32,1.49,3.32,3.32C192.04,166.68,190.55,168.17,188.72,168.17z M188.72,158.28
				c-1.83,0-3.32-1.49-3.32-3.32s1.49-3.32,3.32-3.32s3.32,1.49,3.32,3.32S190.55,158.28,188.72,158.28z M188.72,148.38
				c-1.83,0-3.32-1.49-3.32-3.32c0-1.83,1.49-3.32,3.32-3.32s3.32,1.49,3.32,3.32C192.04,146.9,190.55,148.38,188.72,148.38z
				 M188.72,138.49c-1.83,0-3.32-1.49-3.32-3.32s1.49-3.32,3.32-3.32s3.32,1.49,3.32,3.32S190.55,138.49,188.72,138.49z
				 M217.26,167.34h-21.61c-0.39,0-0.7-0.31-0.7-0.7c0-0.39,0.31-0.7,0.7-0.7h21.61c0.39,0,0.7,0.31,0.7,0.7
				C217.96,167.02,217.65,167.34,217.26,167.34z M217.26,157.44h-21.61c-0.39,0-0.7-0.31-0.7-0.7s0.31-0.7,0.7-0.7h21.61
				c0.39,0,0.7,0.31,0.7,0.7S217.65,157.44,217.26,157.44z M217.26,147.55h-21.61c-0.39,0-0.7-0.31-0.7-0.7s0.31-0.7,0.7-0.7h21.61
				c0.39,0,0.7,0.31,0.7,0.7S217.65,147.55,217.26,147.55z M217.96,136.96c0,0.39-0.31,0.7-0.7,0.7h-21.61c-0.39,0-0.7-0.31-0.7-0.7
				s0.31-0.7,0.7-0.7h21.61C217.65,136.26,217.96,136.57,217.96,136.96z"/>
			<path fill="#0096A9" d="M194.95,136.96c0,0.39,0.31,0.7,0.7,0.7h21.61c0.39,0,0.7-0.31,0.7-0.7s-0.31-0.7-0.7-0.7h-21.61
				C195.27,136.26,194.95,136.57,194.95,136.96z"/>
			<path fill="#0096A9" d="M188.72,131.85c-1.83,0-3.32,1.49-3.32,3.32s1.49,3.32,3.32,3.32s3.32-1.49,3.32-3.32
				S190.55,131.85,188.72,131.85z"/>
			<path fill="#0096A9" d="M217.26,146.15h-21.61c-0.39,0-0.7,0.31-0.7,0.7s0.31,0.7,0.7,0.7h21.61c0.39,0,0.7-0.31,0.7-0.7
				S217.65,146.15,217.26,146.15z"/>
			<path fill="#0096A9" d="M188.72,141.75c-1.83,0-3.32,1.49-3.32,3.32c0,1.83,1.49,3.32,3.32,3.32s3.32-1.49,3.32-3.32
				C192.04,143.23,190.55,141.75,188.72,141.75z"/>
			<path fill="#0096A9" d="M217.26,156.04h-21.61c-0.39,0-0.7,0.31-0.7,0.7s0.31,0.7,0.7,0.7h21.61c0.39,0,0.7-0.31,0.7-0.7
				S217.65,156.04,217.26,156.04z"/>
			<path fill="#0096A9" d="M188.72,151.64c-1.83,0-3.32,1.49-3.32,3.32s1.49,3.32,3.32,3.32s3.32-1.49,3.32-3.32
				S190.55,151.64,188.72,151.64z"/>
			<path fill="#0096A9" d="M217.26,165.94h-21.61c-0.39,0-0.7,0.31-0.7,0.7c0,0.39,0.31,0.7,0.7,0.7h21.61c0.39,0,0.7-0.31,0.7-0.7
				C217.96,166.25,217.65,165.94,217.26,165.94z"/>
			<path fill="#0096A9" d="M188.72,161.53c-1.83,0-3.32,1.49-3.32,3.32c0,1.83,1.49,3.32,3.32,3.32s3.32-1.49,3.32-3.32
				C192.04,163.02,190.55,161.53,188.72,161.53z"/>
			<path fill="#0096A9" d="M220.29,121.57h-10.01v-1c0-2.64-2.02-4.79-4.49-4.79h-5.47c-2.48,0-4.49,2.15-4.49,4.79v1h-10.68
				c-2.48,0-4.5,2.02-4.5,4.5v45.98c0,2.48,2.02,4.5,4.5,4.5h35.15c2.48,0,4.5-2.02,4.5-4.5v-45.98
				C224.79,123.59,222.77,121.57,220.29,121.57z M198.2,120.34c0-1.19,0.79-2.19,1.73-2.19h6.26c0.93,0,1.72,1,1.72,2.19v5.49h-9.71
				V120.34z M221.89,172.05c0,0.88-0.72,1.61-1.6,1.61h-35.15c-0.88,0-1.6-0.72-1.6-1.61v-45.98c0-0.88,0.72-1.6,1.6-1.6h10.68v3.61
				h14.46v-3.61h10.01c0.88,0,1.6,0.72,1.6,1.6V172.05z"/>
		</g>
	</g>
	<g id="stay_up_x21_" display="inline">
	</g>
	<g id="Wording">
		<rect x="46.03" y="185.56" display="inline" fill="none" width="167.26" height="33.07"/>
		
			<text transform="matrix(1 0 0 1 90.1074 213.6792)" display="inline" fill="#0096A9" font-family="'Comfortaa-Light'" font-size="36">Busy</text>
	</g>
</g>
<g id="Programm-Icons_Kopie">
	<circle fill="#FFFFFF" stroke="#106873" stroke-width="2" stroke-miterlimit="10" cx="130.5" cy="130.5" r="128.94"/>
	<path fill="#0096A9" d="M41.81,174.21c0.01-2.02,0-7.4,0-7.4c0-9.45,6.83-19.5,19.5-19.5H94.9c1.38,0,2.5-1.12,2.5-2.5v-0.48
		c0-1.2-0.86-2.23-2.04-2.46c-10.71-2.01-17.37-11.42-17.37-24.56c0-0.44,0.01-0.87,0.04-1.3c0.01-0.18,0-0.36-0.04-0.54V90.24
		c0.03-0.18,0.05-0.37,0.04-0.56c-0.02-0.43-0.04-0.87-0.04-1.3c0-13.79,11.21-25,25-25c13.79,0,25,11.21,25,25
		c0,0.44-0.01,0.87-0.03,1.31c0,0.04,0,0.08,0,0.12v26.07c0,0.04,0,0.09,0,0.13c0.02,0.43,0.03,0.86,0.03,1.3
		c0,12.98-6.19,22.1-16.55,24.4c-1.14,0.25-1.96,1.27-1.96,2.44v0.66c0,1.38,1.12,2.5,2.5,2.5h32.71c7.28,0,19.5,2.53,19.5,19.5
		c0,0,0.01,4.17,0,7.4c-0.01,3.23,4.99,3.65,5,0c-0.04-3.11,0-7.4,0-7.4c0-15.34-9.16-24.5-24.5-24.5h-22.69
		c6.96-5.17,11-14.04,11-25c0-0.5-0.01-1-0.04-1.49V89.88c0.02-0.5,0.04-0.99,0.04-1.49c0-16.54-13.46-30-30-30
		c-16.54,0-30,13.46-30,30c0,0.37,0.01,0.74,0.02,1.11c-0.01,0.11-0.02,0.21-0.02,0.32v26.07c0,0.11,0.01,0.21,0.02,0.32
		c-0.01,0.37-0.02,0.74-0.02,1.11c0,11,4.04,19.84,11,25H61.31c-15.91,0-24.5,12.62-24.5,24.5c0,0,0.05,4.01,0,7.4
		C36.76,177.61,41.76,177.44,41.81,174.21z"/>
	<g>
		<path fill="none" stroke="#0096A9" stroke-width="4.2183" stroke-miterlimit="10" d="M210.66,66.02
			c0,18.64-15.11,33.74-33.75,33.74c-18.63,0-33.74-15.11-33.74-33.74c0-18.64,15.11-33.74,33.74-33.74
			C195.55,32.28,210.66,47.39,210.66,66.02z"/>
		
			<line fill="none" stroke="#0096A9" stroke-width="3.1637" stroke-linecap="round" stroke-linejoin="round" stroke-miterlimit="10" x1="176.92" y1="66.02" x2="176.92" y2="48.35"/>
		
			<line fill="none" stroke="#0096A9" stroke-width="3.1637" stroke-linecap="round" stroke-linejoin="round" stroke-miterlimit="10" x1="176.92" y1="66.02" x2="165.04" y2="41.28"/>
	</g>
	<g>
		<g>
			<path fill="none" stroke="#0096A9" stroke-width="2.8998" stroke-linecap="round" stroke-miterlimit="10" d="M223.34,172.05
				c0,1.68-1.37,3.05-3.05,3.05h-35.15c-1.68,0-3.05-1.37-3.05-3.05v-45.98c0-1.68,1.38-3.05,3.05-3.05h35.15
				c1.68,0,3.05,1.38,3.05,3.05V172.05z"/>
		</g>
		<g>
			
				<line fill="none" stroke="#0096A9" stroke-width="1.4011" stroke-linecap="round" stroke-miterlimit="10" x1="195.65" y1="136.96" x2="217.26" y2="136.96"/>
			
				<circle fill="#0096A9" stroke="#0096A9" stroke-width="1.3206" stroke-linecap="round" stroke-miterlimit="10" cx="188.72" cy="135.17" r="2.66"/>
		</g>
		<g>
			
				<line fill="none" stroke="#0096A9" stroke-width="1.4011" stroke-linecap="round" stroke-miterlimit="10" x1="195.65" y1="146.85" x2="217.26" y2="146.85"/>
			
				<circle fill="#0096A9" stroke="#0096A9" stroke-width="1.3206" stroke-linecap="round" stroke-miterlimit="10" cx="188.72" cy="145.06" r="2.66"/>
		</g>
		<g>
			
				<line fill="none" stroke="#0096A9" stroke-width="1.4011" stroke-linecap="round" stroke-miterlimit="10" x1="195.65" y1="156.74" x2="217.26" y2="156.74"/>
			
				<circle fill="#0096A9" stroke="#0096A9" stroke-width="1.3206" stroke-linecap="round" stroke-miterlimit="10" cx="188.72" cy="154.96" r="2.66"/>
		</g>
		<g>
			
				<line fill="none" stroke="#0096A9" stroke-width="1.4011" stroke-linecap="round" stroke-miterlimit="10" x1="195.65" y1="166.64" x2="217.26" y2="166.64"/>
			
				<circle fill="#0096A9" stroke="#0096A9" stroke-width="1.3206" stroke-linecap="round" stroke-miterlimit="10" cx="188.72" cy="164.85" r="2.66"/>
		</g>
		<path fill="#FFFFFF" stroke="#0096A9" stroke-width="2.9876" stroke-linecap="round" stroke-miterlimit="10" d="M205.79,117.26
			h-5.47c-1.65,0-3,1.49-3,3.3v6.02h11.47v-6.02C208.79,118.75,207.44,117.26,205.79,117.26z"/>
	</g>
	<g id="Ebene_12_Kopie">
		<path opacity="0.2" fill="#164959" stroke="#FFFFFF" stroke-width="0.6452" stroke-miterlimit="10" d="M-2174.93-1008.95v2385.24
			H948.61v-2385.24H-2174.93z M-2.91-345.68c0-9.39,7.61-17.01,17.01-17.01h141.04h109.99c9.39,0,17.01,7.61,17.01,17.01v251.04
			c0,9.39-7.62,17.01-17.01,17.01H14.1c-9.39,0-17.01-7.61-17.01-17.01V-345.68z M-2.91,2.52c0-9.39,7.61-17.01,17.01-17.01h141.04
			h109.99c9.39,0,17.01,7.61,17.01,17.01v251.04c0,9.39-7.62,17.01-17.01,17.01H14.1c-9.39,0-17.01-7.61-17.01-17.01V2.52z
			 M-2.91,378.34c0-9.39,7.61-17.01,17.01-17.01h141.04h109.99c9.39,0,17.01,7.61,17.01,17.01v251.04c0,9.39-7.62,17.01-17.01,17.01
			H14.1c-9.39,0-17.01-7.61-17.01-17.01V378.34z M-856.32-341.93v251.04c0,9.39-7.61,17.01-17.01,17.01h-251.04
			c-9.39,0-17.01-7.61-17.01-17.01v-251.04c0-9.39,7.61-17.01,17.01-17.01h251.04C-863.93-358.93-856.32-351.32-856.32-341.93z
			 M-1222.81-981.96c126.23,0,228.57,102.33,228.57,228.57c0,126.23-102.33,228.57-228.57,228.57
			c-126.23,0-228.57-102.33-228.57-228.57C-1451.38-879.63-1349.05-981.96-1222.81-981.96z M-1191.56,959.29
			c0,9.39-7.62,17.01-17.01,17.01h-251.04c-9.39,0-17.01-7.61-17.01-17.01V708.25c0-9.39,7.61-17.01,17.01-17.01h141.04h109.99
			c9.39,0,17.01,7.61,17.01,17.01V959.29z M-1190.56,629.19c0,9.39-7.62,17.01-17.01,17.01h-251.04c-9.39,0-17.01-7.61-17.01-17.01
			V378.15c0-9.39,7.61-17.01,17.01-17.01h141.04h109.99c9.39,0,17.01,7.61,17.01,17.01V629.19z M-1476.41,2.17
			c0-9.39,7.61-17.01,17.01-17.01h141.04h109.99c9.39,0,17.01,7.61,17.01,17.01v251.04c0,9.39-7.61,17.01-17.01,17.01h-251.04
			c-9.39,0-17.01-7.61-17.01-17.01V2.17z M-854.62,1332.4c0,9.39-7.62,17.01-17.01,17.01h-251.04c-9.39,0-17.01-7.61-17.01-17.01
			v-251.04c0-9.39,7.61-17.01,17.01-17.01h141.04h109.99c9.39,0,17.01,7.61,17.01,17.01V1332.4z M282.14,1331.77
			c0,9.39-7.62,17.01-17.01,17.01H14.1c-9.39,0-17.01-7.61-17.01-17.01v-251.04c0-9.39,7.61-17.01,17.01-17.01h141.04h109.99
			c9.39,0,17.01,7.61,17.01,17.01V1331.77z M944.61,958.95c0,9.39-7.62,17.01-17.01,17.01H676.57c-9.39,0-17.01-7.61-17.01-17.01
			V707.91c0-9.39,7.62-17.01,17.01-17.01h141.04H927.6c9.39,0,17.01,7.61,17.01,17.01V958.95z M408.07-524.83
			c-126.23,0-228.57-102.33-228.57-228.57c0-126.23,102.33-228.57,228.57-228.57c126.23,0,228.57,102.33,228.57,228.57
			C636.64-627.16,534.3-524.83,408.07-524.83z"/>
		<g>
			<path fill="#0096A9" d="M116.7,96.29c1.5,0,2.71,1.21,2.71,2.71v7.31c0,1.5-1.21,2.71-2.71,2.71s-2.71-1.21-2.71-2.71V99
				C113.99,97.5,115.2,96.29,116.7,96.29z"/>
			<path fill="#0096A9" d="M92,99v7.31c0,1.5-1.21,2.71-2.71,2.71c-1.5,0-2.71-1.21-2.71-2.71V99c0-1.5,1.21-2.71,2.71-2.71
				C90.79,96.28,92,97.5,92,99z"/>
		</g>
	</g>
</g>
<g id="ANIM">
</g>
<g id="Ebene_14">
</g>
<g id="Ebene_10">
</g>
<g id="Colors">
</g>
<g id="TXT" display="none">
	<g display="inline">
		<polyline fill="none" stroke="#000000" stroke-width="1.0002" stroke-miterlimit="10" points="1249.88,5660.93 1555.61,5660.93 
			1555.61,-1667.37 -2754.81,-1667.37 -2754.81,3700.64 -3225.41,3700.64 -3225.41,3307.35 -8566.07,3307.35 -8566.07,2253.75 
			-8226.07,2253.75 -8226.07,3140.43 -5614.35,3140.43 -5614.35,929.44 -8226.07,929.44 -8226.07,1794.09 -8566.07,1794.09 
			-8566.07,919.74 -14689,919.74 -14689.86,6370.06 -12880.81,6370.06 -12880.81,9720.87 -14690.39,9720.87 -14690.77,12131.66 
			1611.1,12131.66 1611.1,11832.77 -1626.29,11832.77 -1626.29,9723.08 1611.1,9723.08 1611.1,6170.86 -3225.41,6170.86 
			-3225.41,3913.53 -2754.81,3913.53 -2754.81,5660.93 -2382.31,5660.93 		"/>
	</g>
	<rect x="46.03" y="185.56" display="inline" fill="none" width="167.26" height="33.07"/>
	
		<text transform="matrix(1 0 0 1 90.1074 213.6792)" display="inline" fill="#0096A9" font-family="'Comfortaa-Light'" font-size="36">Busy</text>
</g>
<g id="PopUp">
</g>
<g id="_x31_st_x5F_Welcome">
</g>
<g id="Ebene_19">
</g>
<g id="Ebene_22">
</g>
<g id="Icons">
</g>
<g id="Ebene_21">
</g>
</svg>
