<?xml version="1.0" encoding="utf-8"?>
<!-- Generator: Adobe Illustrator 16.0.0, SVG Export Plug-In . SVG Version: 6.00 Build 0)  -->
<!DOCTYPE svg PUBLIC "-//W3C//DTD SVG 1.1//EN" "http://www.w3.org/Graphics/SVG/1.1/DTD/svg11.dtd">
<svg version="1.1" xmlns="http://www.w3.org/2000/svg" xmlns:xlink="http://www.w3.org/1999/xlink" x="0px" y="0px"
	 width="261.52px" height="261px" viewBox="0 0 261.52 261" enable-background="new 0 0 261.52 261" xml:space="preserve">
<g id="DESIGN_x5F_Master">
	<g id="Screens">
	</g>
</g>
<g id="Batterystatus">
</g>
<g id="Startbildschirm_x5F_UIX">
</g>
<g id="STRUKTUR">
</g>
<g id="Inakt_x2F_Purch">
</g>
<g id="rest">
</g>
<g id="Programm-Icons" display="none">
	<g display="inline">
	</g>
	<g id="Ebene_12" display="inline">
	</g>
	<g id="getready_x5F_01" display="inline">
		<circle fill="#FFFFFF" stroke="#106873" stroke-width="2" stroke-miterlimit="10" cx="130.18" cy="130.5" r="128.94"/>
		<path fill="#0096A9" d="M214.68,173.3c-0.01-2.02-0.03-23.4-0.03-23.4c-0.01-9.45-6.86-19.49-19.53-19.47l-33.59,0.05
			c-1.38,0-2.5-1.12-2.5-2.5l0-0.48c0-1.2,0.86-2.24,2.04-2.46c10.71-2.02,17.35-11.45,17.33-24.59c0-0.44-0.04-28.49-0.04-28.93
			c-0.02-13.79-11.25-24.98-25.04-24.96c-13.79,0.02-24.98,11.25-24.96,25.04c0,0.44,0.04,28.49,0.04,28.93
			c0.02,13.06,6.22,22.09,16.59,24.37c1.15,0.25,1.96,1.26,1.96,2.44v0.66c0,1.38-1.12,2.5-2.5,2.5l-32.71,0.05
			c-7.28,0.01-19.5,0.56-19.47,17.53c0,0-0.01-1.83,0,1.4c0.01,3.23-4.99,3.65-5,0.01c0.04-3.11,0-1.4,0-1.4
			c-0.02-15.34,9.13-22.51,24.47-22.54l22.69-0.03c-6.96-5.16-11.02-14.03-11.04-24.98c0-0.5-0.04-28.43-0.04-28.93
			c-0.02-16.54,13.41-30.02,29.96-30.04c16.54-0.02,30.02,13.41,30.04,29.96c0,0.37,0.04,28.56,0.04,28.93
			c0.02,11-4.01,19.85-10.96,25.02l22.69-0.03c15.91-0.02,24.52,12.59,24.54,24.46c0,0-0.02,20.01,0.03,23.4
			C219.74,176.69,214.74,176.53,214.68,173.3z"/>
		<circle fill="#FFFFFF" cx="73.33" cy="135.9" r="40.16"/>
		<path fill="#0096A9" d="M114.8,135.9c0-22.9-18.57-41.47-41.47-41.47c-22.9,0-41.47,18.57-41.47,41.47s18.57,41.47,41.47,41.47
			C96.24,177.37,114.8,158.8,114.8,135.9z M111.76,131.39c0.17,1.46,0.27,2.95,0.27,4.45c0.01,5.16-0.99,10.16-2.89,14.79l-3.6-3.67
			l4.98-15.32L111.76,131.39z M107.93,130.83l-4.96,15.25l-10.82,4.51l-8.99-12.4l4.57-15.11l12.99-5.16L107.93,130.83z
			 M76.26,99.14l2.44-1.56c8.5,1.2,16.11,5.16,21.9,10.94l-0.59,6.78l-13.21,5.23l-12.16-9.47l0-10.66L76.26,99.14z M67.85,97.6
			l2.44,1.55l1.63,1.25l0.02,10.66l-12.15,9.49l-13.22-5.2l-0.6-6.78C51.75,102.79,59.36,98.82,67.85,97.6z M37.58,150.71
			c-1.89-4.55-2.95-9.53-2.96-14.76c0-1.51,0.09-2.99,0.26-4.45l1.24,0.24l5.03,15.31L37.58,150.71z M43.73,146.17l-5.01-15.24
			l7.18-12.93l13,5.12l4.61,15.1l-8.96,12.43L43.73,146.17z M65.9,139.62l14.88-0.02L90,152.27l-9.2,12.71L65.95,165l-9.24-12.69
			L65.9,139.62z M65.92,167.69h14.9l2.44,5.61c-0.14,0.04-4.83,1.3-9.78,1.3c-4.79,0-9.91-1.25-9.98-1.27L65.92,167.69z"/>
	</g>
	<g id="stay_up_x21_" display="inline">
	</g>
	<g id="Wording">
		<rect x="31.69" y="185.56" display="inline" fill="none" width="196.98" height="33.07"/>
		
			<text transform="matrix(1 0 0 1 43.3457 213.6802)" display="inline" fill="#0096A9" font-family="'Comfortaa-Light'" font-size="36">get ready</text>
	</g>
</g>
<g id="Programm-Icons_Kopie">
	<circle fill="#FFFFFF" stroke="#106873" stroke-width="2" stroke-miterlimit="10" cx="130.91" cy="130.5" r="128.94"/>
	<path fill="#0096A9" d="M215.41,169.3c-0.01-2.02-0.03-23.4-0.03-23.4c-0.01-9.45-6.86-19.49-19.53-19.47l-33.59,0.05
		c-1.38,0-2.5-1.12-2.5-2.5l0-0.48c0-1.2,0.86-2.24,2.04-2.46c10.71-2.02,17.35-11.45,17.33-24.59c0-0.44-0.04-28.49-0.04-28.93
		c-0.02-13.79-11.25-24.98-25.04-24.96c-13.79,0.02-24.98,11.25-24.96,25.04c0,0.44,0.04,28.49,0.04,28.93
		c0.02,13.06,6.22,22.09,16.59,24.37c1.15,0.25,1.96,1.26,1.96,2.44v0.66c0,1.38-1.12,2.5-2.5,2.5l-32.71,0.05
		c-7.28,0.01-19.5,0.56-19.47,17.53c0,0-0.01-1.83,0,1.4c0.01,3.23-4.99,3.65-5,0.01c0.04-3.11,0-1.4,0-1.4
		c-0.02-15.34,9.13-22.51,24.47-22.54l22.69-0.03c-6.96-5.16-11.02-14.03-11.04-24.98c0-0.5-0.04-28.43-0.04-28.93
		c-0.02-16.54,13.41-30.02,29.96-30.04c16.54-0.02,30.02,13.41,30.04,29.96c0,0.37,0.04,28.56,0.04,28.93
		c0.02,11-4.01,19.85-10.96,25.02l22.69-0.03c15.91-0.02,24.52,12.59,24.54,24.46c0,0-0.02,20.01,0.03,23.4
		C220.46,172.69,215.46,172.53,215.41,169.3z"/>
	<circle fill="#FFFFFF" cx="73.33" cy="131.9" r="40.16"/>
	<path fill="#0096A9" d="M115.53,131.9c0-22.9-18.57-41.47-41.47-41.47c-22.9,0-41.47,18.57-41.47,41.47s18.57,41.47,41.47,41.47
		C96.96,173.37,115.53,154.8,115.53,131.9z M112.49,127.39c0.17,1.46,0.27,2.95,0.27,4.45c0.01,5.16-0.99,10.16-2.89,14.79
		l-3.6-3.67l4.98-15.32L112.49,127.39z M108.65,126.83l-4.96,15.25l-10.82,4.51l-8.99-12.4l4.57-15.11l12.99-5.16L108.65,126.83z
		 M76.98,95.14l2.44-1.56c8.5,1.2,16.11,5.16,21.9,10.94l-0.59,6.78l-13.21,5.23l-12.16-9.47l0-10.66L76.98,95.14z M68.58,93.6
		l2.44,1.55l1.63,1.25l0.02,10.66l-12.15,9.49l-13.22-5.2l-0.6-6.78C52.48,98.79,60.08,94.82,68.58,93.6z M38.31,146.71
		c-1.89-4.55-2.95-9.53-2.96-14.76c0-1.51,0.09-2.99,0.26-4.45l1.24,0.24l5.03,15.31L38.31,146.71z M44.45,142.17l-5.01-15.24
		l7.18-12.93l13,5.12l4.61,15.1l-8.96,12.43L44.45,142.17z M66.63,135.62l14.88-0.02l9.22,12.67l-9.2,12.71L66.68,161l-9.24-12.69
		L66.63,135.62z M66.65,163.69h14.9L84,169.3c-0.14,0.04-4.83,1.3-9.78,1.3c-4.79,0-9.91-1.25-9.98-1.27L66.65,163.69z"/>
	<g id="Ebene_12_Kopie">
		<path opacity="0.2" fill="#164959" stroke="#FFFFFF" stroke-width="0.6452" stroke-miterlimit="10" d="M-2174.41-1384.77v2385.24
			H949.13v-2385.24H-2174.41z M-2.38-721.5c0-9.39,7.61-17.01,17.01-17.01h141.04h109.99c9.39,0,17.01,7.61,17.01,17.01v251.04
			c0,9.39-7.62,17.01-17.01,17.01H14.62c-9.39,0-17.01-7.61-17.01-17.01V-721.5z M-2.38-373.3c0-9.39,7.61-17.01,17.01-17.01h141.04
			h109.99c9.39,0,17.01,7.61,17.01,17.01v251.04c0,9.39-7.62,17.01-17.01,17.01H14.62c-9.39,0-17.01-7.61-17.01-17.01V-373.3z
			 M-2.38,2.52c0-9.39,7.61-17.01,17.01-17.01h141.04h109.99c9.39,0,17.01,7.61,17.01,17.01v251.04c0,9.39-7.62,17.01-17.01,17.01
			H14.62c-9.39,0-17.01-7.61-17.01-17.01V2.52z M-855.8-717.75v251.04c0,9.39-7.61,17.01-17.01,17.01h-251.04
			c-9.39,0-17.01-7.61-17.01-17.01v-251.04c0-9.39,7.61-17.01,17.01-17.01h251.04C-863.41-734.75-855.8-727.14-855.8-717.75z
			 M-1222.29-1357.78c126.23,0,228.57,102.33,228.57,228.57c0,126.23-102.33,228.57-228.57,228.57
			c-126.23,0-228.57-102.33-228.57-228.57C-1450.86-1255.45-1348.52-1357.78-1222.29-1357.78z M-1191.04,583.47
			c0,9.39-7.62,17.01-17.01,17.01h-251.04c-9.39,0-17.01-7.61-17.01-17.01V332.43c0-9.39,7.61-17.01,17.01-17.01h141.04h109.99
			c9.39,0,17.01,7.61,17.01,17.01V583.47z M-1190.04,253.37c0,9.39-7.62,17.01-17.01,17.01h-251.04c-9.39,0-17.01-7.61-17.01-17.01
			V2.33c0-9.39,7.61-17.01,17.01-17.01h141.04h109.99c9.39,0,17.01,7.61,17.01,17.01V253.37z M-1475.88-373.65
			c0-9.39,7.61-17.01,17.01-17.01h141.04h109.99c9.39,0,17.01,7.61,17.01,17.01v251.04c0,9.39-7.61,17.01-17.01,17.01h-251.04
			c-9.39,0-17.01-7.61-17.01-17.01V-373.65z M-854.09,956.58c0,9.39-7.62,17.01-17.01,17.01h-251.04c-9.39,0-17.01-7.61-17.01-17.01
			V705.54c0-9.39,7.61-17.01,17.01-17.01h141.04h109.99c9.39,0,17.01,7.61,17.01,17.01V956.58z M282.67,955.95
			c0,9.39-7.62,17.01-17.01,17.01H14.62c-9.39,0-17.01-7.61-17.01-17.01V704.91c0-9.39,7.61-17.01,17.01-17.01h141.04h109.99
			c9.39,0,17.01,7.61,17.01,17.01V955.95z M945.13,583.13c0,9.39-7.62,17.01-17.01,17.01H677.09c-9.39,0-17.01-7.61-17.01-17.01
			V332.09c0-9.39,7.62-17.01,17.01-17.01h141.04h109.99c9.39,0,17.01,7.61,17.01,17.01V583.13z M408.59-900.65
			c-126.23,0-228.57-102.33-228.57-228.57c0-126.23,102.33-228.57,228.57-228.57c126.23,0,228.57,102.33,228.57,228.57
			C637.16-1002.98,534.82-900.65,408.59-900.65z"/>
		<g>
			<path fill="#0096A9" d="M167.18,75.42c1.5,0,2.71,1.21,2.71,2.71v7.31c0,1.5-1.21,2.71-2.71,2.71s-2.71-1.21-2.71-2.71v-7.31
				C164.47,76.63,165.68,75.42,167.18,75.42z"/>
			<path fill="#0096A9" d="M142.48,78.13v7.31c0,1.5-1.21,2.71-2.71,2.71c-1.5,0-2.71-1.21-2.71-2.71v-7.31
				c0-1.5,1.21-2.71,2.71-2.71C141.27,75.42,142.48,76.63,142.48,78.13z"/>
		</g>
	</g>
</g>
<g id="ANIM">
</g>
<g id="Ebene_14">
</g>
<g id="Ebene_10">
</g>
<g id="Colors">
</g>
<g id="TXT" display="none">
	<g display="inline">
		<polyline fill="none" stroke="#000000" stroke-width="1.0002" stroke-miterlimit="10" points="1250.4,5285.11 1556.14,5285.11 
			1556.14,-2043.19 -2754.29,-2043.19 -2754.29,3324.82 -3224.89,3324.82 -3224.89,2931.53 -8565.55,2931.53 -8565.55,1877.93 
			-8225.55,1877.93 -8225.55,2764.61 -5613.83,2764.61 -5613.83,553.62 -8225.55,553.62 -8225.55,1418.27 -8565.55,1418.27 
			-8565.55,543.92 -14688.48,543.92 -14689.34,5994.24 -12880.28,5994.24 -12880.28,9345.05 -14689.86,9345.05 -14690.25,11755.84 
			1611.62,11755.84 1611.62,11456.95 -1625.77,11456.95 -1625.77,9347.26 1611.62,9347.26 1611.62,5795.04 -3224.89,5795.04 
			-3224.89,3537.71 -2754.29,3537.71 -2754.29,5285.11 -2381.79,5285.11 		"/>
	</g>
	<rect x="32.42" y="185.56" display="inline" fill="none" width="196.98" height="33.07"/>
	
		<text transform="matrix(1 0 0 1 44.0713 213.6802)" display="inline" fill="#0096A9" font-family="'Comfortaa-Light'" font-size="36">get ready</text>
</g>
<g id="PopUp">
</g>
<g id="_x31_st_x5F_Welcome">
</g>
<g id="Ebene_19">
</g>
<g id="Ebene_22">
</g>
<g id="Icons">
</g>
<g id="Ebene_21">
</g>
</svg>
