<?xml version="1.0" encoding="utf-8"?>
<!-- Generator: Adobe Illustrator 16.0.0, SVG Export Plug-In . SVG Version: 6.00 Build 0)  -->
<!DOCTYPE svg PUBLIC "-//W3C//DTD SVG 1.1//EN" "http://www.w3.org/Graphics/SVG/1.1/DTD/svg11.dtd">
<svg version="1.1" xmlns="http://www.w3.org/2000/svg" xmlns:xlink="http://www.w3.org/1999/xlink" x="0px" y="0px" width="261px"
	 height="261px" viewBox="0 0 261 261" enable-background="new 0 0 261 261" xml:space="preserve">
<g id="DESIGN_x5F_Master">
	<g id="Screens">
	</g>
</g>
<g id="Batterystatus">
</g>
<g id="Startbildschirm_x5F_UIX">
</g>
<g id="STRUKTUR">
</g>
<g id="Inakt_x2F_Purch">
</g>
<g id="rest">
</g>
<g id="Programm-Icons" display="none">
	
		<circle display="inline" fill="#FFFFFF" stroke="#106873" stroke-width="2" stroke-miterlimit="10" cx="130.5" cy="130.5" r="128.94"/>
	<g display="inline">
	</g>
	<g display="inline">
		<g>
			<path fill="#0096A9" d="M183.39,174.22c-0.01-2.02,0-1.4,0-1.4c0-9.45-6.83-19.5-19.5-19.5H130.3c-1.38,0-2.5-1.12-2.5-2.5v-0.48
				c0-1.2,0.86-2.23,2.04-2.46c10.71-2.01,17.37-11.42,17.37-24.56c0-0.44,0-28.49,0-28.93c0-13.79-11.22-25-25-25
				c-13.79,0-25,11.21-25,25c0,0.44,0,28.49,0,28.93c0,12.98,6.19,22.1,16.55,24.4c1.15,0.25,1.96,1.27,1.96,2.44v0.66
				c0,1.38-1.12,2.5-2.5,2.5H80.51c-7.28,0-19.5,2.53-19.5,19.5c0,0-0.01-1.83,0,1.4c0.01,3.23-4.99,3.65-5,0c0.04-3.11,0-1.4,0-1.4
				c0-15.34,9.16-24.5,24.5-24.5h22.69c-6.96-5.17-11-14.04-11-25c0-0.5,0-28.43,0-28.93c0-16.54,13.46-30,30-30
				c16.54,0,30,13.46,30,30c0,0.37,0,28.56,0,28.93c0,11-4.04,19.84-11,25h22.69c15.92,0,24.5,12.62,24.5,24.5c0,0-0.05-1.99,0,1.4
				C188.44,177.61,183.44,177.44,183.39,174.22z"/>
		</g>
		<g>
			
				<path fill-rule="evenodd" clip-rule="evenodd" fill="none" stroke="#0096A9" stroke-width="2.8" stroke-linecap="round" stroke-linejoin="round" stroke-miterlimit="10" d="
				M195.53,92.64c8.46-10.77,24.83-16.52,29.42-12.79c1.24,1.01,2.45,4.14,0.1,10.57c-2.4,6.57-6.68,12.8-17.55,8.15
				c2.99,2,5.55,5.43,5.47,8.89c-0.14,6.26-7.3,10.79-11.96,10.3c-4.61-0.48-7.11-5.34-8.59-12.68"/>
			
				<path fill-rule="evenodd" clip-rule="evenodd" fill="none" stroke="#0096A9" stroke-width="2.8" stroke-linecap="round" stroke-linejoin="round" stroke-miterlimit="10" d="
				M195.53,92.64c-2.4-13.48-14.14-26.26-19.94-25.12c-1.57,0.31-4.11,2.5-5.05,9.28c-0.97,6.93-0.13,14.44,11.66,15.44
				c-3.58,0.36-7.46,2.18-9.02,5.27c-2.81,5.59,1.38,12.96,5.71,14.72c4.29,1.75,8.78-1.37,13.54-7.15"/>
		</g>
		<g>
			
				<path fill-rule="evenodd" clip-rule="evenodd" fill="none" stroke="#0096A9" stroke-width="2.0869" stroke-linecap="round" stroke-linejoin="round" stroke-miterlimit="10" d="
				M56.05,123.83c-0.67-10.18,5.55-21.53,9.95-21.74c1.19-0.06,3.42,1.08,5.31,5.81c1.94,4.84,2.67,10.42-5.68,13.25
				c2.65-0.38,5.78,0.25,7.46,2.21c3.03,3.54,1.32,9.62-1.5,11.67c-2.79,2.03-6.6,0.58-11.08-2.76"/>
			
				<path fill-rule="evenodd" clip-rule="evenodd" fill="none" stroke="#0096A9" stroke-width="2.0869" stroke-linecap="round" stroke-linejoin="round" stroke-miterlimit="10" d="
				M56.05,123.83c-8.04-6.29-20.92-7.52-23.57-4.01c-0.71,0.95-1.03,3.43,1.82,7.66c2.91,4.32,7.12,8.07,14.15,2.76
				c-1.81,1.98-3.05,4.92-2.38,7.41c1.22,4.5,7.21,6.5,10.49,5.32c3.25-1.17,4.19-5.13,3.95-10.71"/>
		</g>
	</g>
	<g id="Ebene_12" display="inline">
	</g>
	<g id="Wording">
		<rect x="16.25" y="185.56" display="inline" fill="none" width="226.81" height="33.07"/>
		
			<text transform="matrix(1 0 0 1 57.9385 213.6797)" display="inline" fill="#0096A9" font-family="'Comfortaa-Light'" font-size="36">Morning</text>
	</g>
</g>
<g id="Programm-Icons_Kopie">
	<circle fill="#FFFFFF" stroke="#106873" stroke-width="2" stroke-miterlimit="10" cx="130.5" cy="130.5" r="128.94"/>
	<g>
		<g>
			<path fill="#0096A9" d="M183.39,174.22c-0.01-2.02,0-1.4,0-1.4c0-9.45-6.83-19.5-19.5-19.5H130.3c-1.38,0-2.5-1.12-2.5-2.5v-0.48
				c0-1.2,0.86-2.23,2.04-2.46c10.71-2.01,17.37-11.42,17.37-24.56c0-0.44-0.01-0.87-0.04-1.3c-0.01-0.18,0-0.36,0.04-0.54V96.24
				c-0.03-0.18-0.05-0.37-0.04-0.56c0.02-0.43,0.04-0.86,0.04-1.3c0-13.79-11.22-25-25-25c-13.79,0-25,11.21-25,25
				c0,0.44,0.01,0.87,0.03,1.3c0,0.04,0,0.08,0,0.12v26.07c0,0.04,0,0.09,0,0.13c-0.02,0.43-0.03,0.86-0.03,1.3
				c0,12.98,6.19,22.1,16.55,24.4c1.15,0.25,1.96,1.27,1.96,2.44v0.66c0,1.38-1.12,2.5-2.5,2.5H80.51c-7.28,0-19.5,2.53-19.5,19.5
				c0,0-0.01-1.83,0,1.4c0.01,3.23-4.99,3.65-5,0c0.04-3.11,0-1.4,0-1.4c0-15.34,9.16-24.5,24.5-24.5h22.69
				c-6.96-5.17-11-14.04-11-25c0-0.5,0.01-1,0.04-1.49V95.88c-0.02-0.5-0.04-0.99-0.04-1.49c0-16.54,13.46-30,30-30
				c16.54,0,30,13.46,30,30c0,0.37-0.01,0.74-0.02,1.11c0.01,0.11,0.02,0.21,0.02,0.32v26.07c0,0.11-0.01,0.21-0.02,0.32
				c0.01,0.37,0.02,0.74,0.02,1.11c0,11-4.04,19.84-11,25h22.69c15.92,0,24.5,12.62,24.5,24.5c0,0-0.05-1.99,0,1.4
				C188.44,177.61,183.44,177.44,183.39,174.22z"/>
		</g>
		<g>
			<g>
				<path fill-rule="evenodd" clip-rule="evenodd" fill="none" stroke="#0096A9" stroke-width="0.3712" stroke-miterlimit="10" d="
					M215.16,101.27c3.9-0.16,6.9-2.06,8.97-5.25c0.93-1.43,1.68-3.01,2.27-4.6c0.86-2.34,1.65-4.74,1.68-7.29
					c0.01-0.59-0.03-1.2-0.12-1.79c-0.39-2.59-2.08-4.26-4.71-4.7c-2.83-0.47-5.58-0.01-8.26,0.87
					c-6.95,2.28-13.03,5.87-17.97,10.89c-0.09,0.09-0.19,0.19-0.34,0.34c-0.09-0.28-0.15-0.49-0.22-0.71
					c-2.14-6.9-5.95-13.07-11.3-18.36c-1.8-1.78-3.85-3.23-6.28-4.05c-2.55-0.86-4.78-0.2-6.38,1.9c-1.21,1.59-1.84,3.44-2.26,5.35
					c-0.61,2.76-1.09,5.53-0.82,8.41c0.46,4.89,3,8.2,7.49,9.95c0.13,0.05,0.25,0.11,0.5,0.22c-0.26,0.14-0.43,0.23-0.6,0.32
					c-2.76,1.49-4.7,3.67-5.13,7.01c-0.39,3.06,0.4,5.94,1.91,8.6c1.17,2.06,2.67,3.74,4.71,4.73c2.63,1.28,5.23,0.97,7.8-0.37
					c2.17-1.13,3.97-2.8,5.66-4.64c0.12-0.13,0.23-0.26,0.35-0.39c0.02-0.02,0.07-0.02,0.12-0.04c0.24,0.82,0.46,1.64,0.72,2.45
					c0.52,1.66,1.19,3.24,2.13,4.66c2.81,4.26,7.2,5.38,11.91,3c3.16-1.6,5.63-3.98,7.01-7.35c0.93-2.29,0.82-4.54-0.13-6.69
					c-0.38-0.87-0.89-1.67-1.36-2.53C213.41,101.22,214.28,101.31,215.16,101.27z"/>
				<path fill-rule="evenodd" clip-rule="evenodd" fill="#0096A9" d="M213.87,103.72c0.95,2.15,1.06,4.41,0.13,6.69
					c-1.37,3.37-3.85,5.75-7.01,7.35c-4.71,2.39-9.1,1.26-11.91-3c-0.94-1.42-1.61-3-2.13-4.66c-0.25-0.81-0.48-1.63-0.72-2.45
					c-0.06,0.02-0.1,0.01-0.12,0.04c-0.12,0.13-0.23,0.26-0.35,0.39c-1.68,1.84-3.49,3.51-5.66,4.64c-2.58,1.34-5.17,1.65-7.8,0.37
					c-2.04-0.99-3.53-2.66-4.71-4.73c-1.52-2.66-2.3-5.53-1.91-8.6c0.42-3.34,2.37-5.52,5.13-7.01c0.17-0.09,0.34-0.18,0.6-0.32
					c-0.25-0.11-0.37-0.17-0.5-0.22c-4.49-1.74-7.03-5.05-7.49-9.95c-0.27-2.88,0.22-5.65,0.82-8.41c0.42-1.91,1.05-3.76,2.26-5.35
					c1.6-2.1,3.83-2.75,6.38-1.9c2.43,0.82,4.47,2.27,6.28,4.05c5.34,5.29,9.15,11.46,11.3,18.36c0.07,0.21,0.13,0.43,0.22,0.71
					c0.15-0.15,0.24-0.25,0.34-0.34c4.94-5.02,11.02-8.61,17.97-10.89c2.68-0.88,5.44-1.33,8.26-0.87c2.63,0.44,4.31,2.1,4.71,4.7
					c0.09,0.59,0.13,1.2,0.12,1.79c-0.03,2.55-0.82,4.95-1.68,7.29c-0.58,1.59-1.33,3.17-2.27,4.6c-2.07,3.19-5.06,5.09-8.97,5.25
					c-0.87,0.04-1.74-0.05-2.64-0.08C212.98,102.05,213.49,102.85,213.87,103.72z M225.4,83.51c0.1-2.19-0.97-3.21-3.2-3.42
					c-0.47-0.04-0.94-0.05-1.4-0.04c-2.73,0.05-5.29,0.82-7.78,1.83c-5.34,2.18-10.13,5.08-14.05,9.07
					c-0.74,0.75-1.36,1.62-2.01,2.46c-0.36,0.46-0.81,0.62-1.33,0.49c-0.51-0.13-0.89-0.45-0.96-1.04c-0.4-3.45-1.71-6.61-3.36-9.69
					c-2.07-3.86-4.6-7.49-7.87-10.6c-1.6-1.52-3.34-2.84-5.47-3.51c-1.55-0.48-2.59-0.1-3.51,1.22c-0.91,1.32-1.36,2.82-1.72,4.35
					c-0.56,2.36-0.97,4.74-0.81,7.21c0.28,4.41,2.51,7.18,6.7,8.31c1.28,0.35,2.6,0.51,3.9,0.72c0.77,0.12,1.24,0.51,1.31,1.2
					c0.07,0.69-0.29,1.18-1.06,1.35c-1.7,0.37-3.36,0.83-4.89,1.69c-1.77,0.99-3.16,2.33-3.65,4.47c-0.42,1.86-0.16,3.7,0.51,5.48
					c0.96,2.55,2.4,4.66,4.79,5.76c1.73,0.8,3.46,0.59,5.16-0.19c2.42-1.12,4.31-3.01,6.07-5.07c0.39-0.46,0.77-0.94,1.13-1.41
					c0.36-0.46,0.79-0.69,1.34-0.55c0.52,0.14,0.76,0.55,0.86,1.1c0.49,2.74,1.13,5.43,2.49,7.82c1.11,1.96,2.57,3.45,4.82,3.82
					c1.33,0.22,2.65-0.03,3.95-0.57c2.26-0.95,4.13-2.46,5.49-4.6c1.72-2.72,1.52-5.29-0.07-7.79c-0.88-1.38-2-2.53-3.24-3.58
					c-0.16-0.13-0.33-0.26-0.48-0.41c-0.46-0.45-0.53-1.06-0.18-1.58c0.37-0.55,0.97-0.71,1.61-0.49c1.34,0.45,2.67,0.98,4.06,1.28
					c3.78,0.82,6.78-0.31,9.01-3.37c0.57-0.78,1.06-1.62,1.46-2.48c0.56-1.2,1.01-2.46,1.69-4.18
					C224.92,87.2,225.32,85.37,225.4,83.51z"/>
			</g>
		</g>
		<g>
			<g>
				<path fill-rule="evenodd" clip-rule="evenodd" fill="none" stroke="#0096A9" stroke-width="0.277" stroke-miterlimit="10" d="
					M71.08,119.01c2.08-2.04,2.79-4.59,2.34-7.39c-0.2-1.26-0.58-2.51-1.05-3.68c-0.69-1.73-1.46-3.45-2.72-4.88
					c-0.29-0.33-0.62-0.65-0.96-0.93c-1.51-1.24-3.28-1.32-4.96-0.24c-1.8,1.15-3.09,2.79-4.14,4.61c-2.71,4.74-4.28,9.77-4.5,15.02
					c0,0.1-0.01,0.2-0.02,0.36c-0.18-0.11-0.33-0.2-0.47-0.28c-4.64-2.75-9.83-4.26-15.44-4.51c-1.89-0.09-3.75,0.13-5.5,0.9
					c-1.84,0.8-2.74,2.28-2.58,4.24c0.13,1.49,0.7,2.83,1.42,4.09c1.04,1.83,2.16,3.6,3.75,5.07c2.7,2.48,5.76,3.04,9.12,1.76
					c0.09-0.04,0.19-0.06,0.38-0.13c-0.07,0.21-0.12,0.34-0.17,0.48c-0.78,2.21-0.77,4.38,0.67,6.45c1.32,1.89,3.19,3.09,5.36,3.8
					c1.68,0.56,3.35,0.73,4.97,0.26c2.1-0.61,3.38-2.08,4.13-4.11c0.64-1.71,0.8-3.54,0.81-5.4c0-0.13,0-0.26,0-0.39
					c0-0.02,0.02-0.04,0.05-0.08c0.54,0.33,1.08,0.67,1.62,1c1.12,0.66,2.28,1.19,3.51,1.51c3.69,0.95,6.68-0.62,8.09-4.3
					c0.95-2.47,1.13-5.02,0.2-7.57c-0.63-1.73-1.82-2.92-3.42-3.64c-0.64-0.29-1.33-0.48-2.02-0.72
					C70.1,119.86,70.62,119.47,71.08,119.01z"/>
				<path fill-rule="evenodd" clip-rule="evenodd" fill="#0096A9" d="M71.6,121.01c1.6,0.72,2.79,1.91,3.42,3.64
					c0.93,2.55,0.75,5.11-0.2,7.57c-1.42,3.68-4.41,5.25-8.09,4.3c-1.23-0.32-2.39-0.85-3.51-1.51c-0.54-0.32-1.08-0.67-1.62-1
					c-0.02,0.04-0.05,0.06-0.05,0.08c-0.01,0.13,0,0.26,0,0.39c-0.01,1.86-0.17,3.69-0.81,5.4c-0.75,2.03-2.03,3.5-4.13,4.11
					c-1.62,0.47-3.29,0.29-4.97-0.26c-2.17-0.71-4.04-1.91-5.36-3.8c-1.44-2.06-1.45-4.24-0.67-6.45c0.05-0.14,0.1-0.27,0.17-0.48
					c-0.19,0.06-0.29,0.09-0.38,0.13c-3.36,1.29-6.42,0.72-9.12-1.76c-1.59-1.46-2.71-3.23-3.75-5.07c-0.72-1.27-1.3-2.61-1.42-4.09
					c-0.16-1.96,0.74-3.44,2.58-4.24c1.75-0.76,3.61-0.98,5.5-0.9c5.61,0.25,10.8,1.76,15.44,4.51c0.14,0.08,0.29,0.17,0.47,0.28
					c0.01-0.16,0.01-0.26,0.02-0.36c0.23-5.25,1.79-10.28,4.5-15.02c1.05-1.83,2.34-3.46,4.14-4.61c1.67-1.07,3.44-0.99,4.96,0.24
					c0.34,0.28,0.67,0.6,0.96,0.93c1.26,1.43,2.03,3.15,2.72,4.88c0.47,1.17,0.85,2.42,1.05,3.68c0.45,2.8-0.26,5.35-2.34,7.39
					c-0.46,0.46-0.99,0.85-1.5,1.28C70.27,120.53,70.95,120.72,71.6,121.01z M67.87,104.05c-1.04-1.26-2.14-1.29-3.48-0.29
					c-0.28,0.21-0.54,0.44-0.8,0.68c-1.48,1.39-2.52,3.1-3.39,4.9c-1.86,3.88-3.07,7.88-3.24,12.05c-0.03,0.79,0.06,1.58,0.12,2.36
					c0.03,0.44-0.14,0.75-0.49,0.94c-0.35,0.19-0.72,0.19-1.05-0.1c-1.95-1.71-4.25-2.8-6.71-3.68c-3.08-1.1-6.3-1.84-9.66-1.93
					c-1.65-0.04-3.27,0.1-4.79,0.8c-1.1,0.51-1.48,1.24-1.33,2.43c0.16,1.18,0.66,2.25,1.22,3.27c0.87,1.59,1.84,3.11,3.16,4.4
					c2.36,2.3,4.98,2.71,7.87,1.25c0.88-0.45,1.7-1.02,2.52-1.56c0.49-0.32,0.94-0.34,1.32,0.01c0.39,0.35,0.43,0.8,0.09,1.28
					c-0.76,1.05-1.45,2.14-1.86,3.38c-0.48,1.43-0.58,2.87,0.22,4.3c0.7,1.24,1.77,2.13,3.03,2.78c1.81,0.93,3.66,1.38,5.53,0.79
					c1.36-0.42,2.21-1.4,2.76-2.69c0.78-1.83,0.88-3.82,0.82-5.84c-0.01-0.45-0.04-0.9-0.08-1.35c-0.03-0.43,0.09-0.78,0.47-0.97
					c0.36-0.18,0.69-0.08,1.02,0.17c1.65,1.27,3.34,2.44,5.29,3.08c1.6,0.53,3.14,0.62,4.58-0.3c0.85-0.54,1.46-1.34,1.9-2.29
					c0.77-1.66,1.06-3.43,0.74-5.3c-0.41-2.37-1.8-3.69-3.93-4.28c-1.17-0.32-2.38-0.4-3.59-0.36c-0.16,0.01-0.32,0.02-0.47,0.01
					c-0.48-0.02-0.82-0.32-0.89-0.79c-0.07-0.49,0.18-0.88,0.65-1.08c0.96-0.42,1.96-0.79,2.88-1.32c2.5-1.44,3.6-3.56,3.3-6.37
					c-0.08-0.71-0.22-1.42-0.43-2.1c-0.29-0.95-0.67-1.87-1.16-3.16C69.45,106.34,68.76,105.12,67.87,104.05z"/>
			</g>
		</g>
	</g>
	<g id="Ebene_12_Kopie">
		<path opacity="0.2" fill="#164959" stroke="#FFFFFF" stroke-width="0.6452" stroke-miterlimit="10" d="M-2174.93-2087.8V297.44
			H948.61V-2087.8H-2174.93z M-2.91-1424.52c0-9.39,7.61-17.01,17.01-17.01h141.04h109.99c9.39,0,17.01,7.61,17.01,17.01v251.04
			c0,9.39-7.62,17.01-17.01,17.01H14.1c-9.39,0-17.01-7.61-17.01-17.01V-1424.52z M-2.91-1076.33c0-9.39,7.61-17.01,17.01-17.01
			h141.04h109.99c9.39,0,17.01,7.61,17.01,17.01v251.04c0,9.39-7.62,17.01-17.01,17.01H14.1c-9.39,0-17.01-7.61-17.01-17.01
			V-1076.33z M-2.91-700.51c0-9.39,7.61-17.01,17.01-17.01h141.04h109.99c9.39,0,17.01,7.61,17.01,17.01v251.04
			c0,9.39-7.62,17.01-17.01,17.01H14.1c-9.39,0-17.01-7.61-17.01-17.01V-700.51z M-856.32-1420.77v251.04
			c0,9.39-7.61,17.01-17.01,17.01h-251.04c-9.39,0-17.01-7.61-17.01-17.01v-251.04c0-9.39,7.61-17.01,17.01-17.01h251.04
			C-863.94-1437.78-856.32-1430.16-856.32-1420.77z M-1222.81-2060.81c126.23,0,228.57,102.33,228.57,228.57
			c0,126.23-102.33,228.57-228.57,228.57c-126.23,0-228.57-102.33-228.57-228.57C-1451.38-1958.48-1349.05-2060.81-1222.81-2060.81z
			 M-1191.56-119.56c0,9.39-7.62,17.01-17.01,17.01h-251.04c-9.39,0-17.01-7.61-17.01-17.01v-251.04c0-9.39,7.61-17.01,17.01-17.01
			h141.04h109.99c9.39,0,17.01,7.61,17.01,17.01V-119.56z M-1190.56-449.66c0,9.39-7.62,17.01-17.01,17.01h-251.04
			c-9.39,0-17.01-7.61-17.01-17.01v-251.04c0-9.39,7.61-17.01,17.01-17.01h141.04h109.99c9.39,0,17.01,7.61,17.01,17.01V-449.66z
			 M-1476.41-1076.67c0-9.39,7.61-17.01,17.01-17.01h141.04h109.99c9.39,0,17.01,7.61,17.01,17.01v251.04
			c0,9.39-7.61,17.01-17.01,17.01h-251.04c-9.39,0-17.01-7.61-17.01-17.01V-1076.67z M-854.62,253.55c0,9.39-7.62,17.01-17.01,17.01
			h-251.04c-9.39,0-17.01-7.61-17.01-17.01V2.52c0-9.39,7.61-17.01,17.01-17.01h141.04h109.99c9.39,0,17.01,7.61,17.01,17.01V253.55
			z M282.14,252.93c0,9.39-7.62,17.01-17.01,17.01H14.1c-9.39,0-17.01-7.61-17.01-17.01V1.89c0-9.39,7.61-17.01,17.01-17.01h141.04
			h109.99c9.39,0,17.01,7.61,17.01,17.01V252.93z M944.61-119.9c0,9.39-7.62,17.01-17.01,17.01H676.57
			c-9.39,0-17.01-7.61-17.01-17.01v-251.04c0-9.39,7.62-17.01,17.01-17.01h141.04H927.6c9.39,0,17.01,7.61,17.01,17.01V-119.9z
			 M408.07-1603.67c-126.23,0-228.57-102.33-228.57-228.57c0-126.23,102.33-228.57,228.57-228.57
			c126.23,0,228.57,102.33,228.57,228.57C636.63-1706.01,534.3-1603.67,408.07-1603.67z"/>
		<path fill="#0096A9" d="M61.01,174.23c0.07-3.01,0-1.4,0-1.4c0-9.45,6.83-19.5,19.5-19.5h33.6c1.38,0,2.5-1.12,2.5-2.5v-0.48
			c0-1.2-0.86-2.23-2.04-2.46c-10.71-2.01-17.37-11.42-17.37-24.56c0-0.44,0-28.5,0-28.93c0-13.78,11.22-25,25-25
			c13.79,0,25,11.22,25,25c0,0.44,0,28.49,0,28.93c0,12.97-6.19,22.1-16.56,24.4c-1.14,0.25-1.96,1.27-1.96,2.44v0.66
			c0,1.38,1.12,2.5,2.5,2.5h32.7c7.28,0,19.5,2.53,19.5,19.5c0,0,0.06-1.63,0,1.4c0,3.43,5.1,3.37,5,0c-0.02-2.56,0-1.4,0-1.4
			c0-15.34-9.16-24.5-24.5-24.5H141.2c6.96-5.17,11-14.05,11-25c0-0.5,0-28.43,0-28.93c0-16.54-13.46-30-30-30
			c-16.54,0-30,13.46-30,30c0,0.37,0,28.56,0,28.93c0,11,4.04,19.84,11,25H80.51c-15.91,0-24.5,12.62-24.5,24.5c0,0,0-2.78,0,1.4
			C56.02,177.78,60.94,177.24,61.01,174.23z"/>
	</g>
</g>
<g id="ANIM">
</g>
<g id="Ebene_14">
</g>
<g id="Ebene_10">
</g>
<g id="Colors">
</g>
<g id="TXT" display="none">
	<g display="inline">
		<polyline fill="none" stroke="#000000" stroke-width="1.0002" stroke-miterlimit="10" points="1249.88,4582.09 1555.61,4582.09 
			1555.61,-2746.21 -2754.81,-2746.21 -2754.81,2621.8 -3225.42,2621.8 -3225.42,2228.5 -8566.07,2228.5 -8566.07,1174.9 
			-8226.07,1174.9 -8226.07,2061.58 -5614.35,2061.58 -5614.35,-149.4 -8226.07,-149.4 -8226.07,715.25 -8566.07,715.25 
			-8566.07,-159.1 -14689,-159.1 -14689.86,5291.22 -12880.81,5291.22 -12880.81,8642.02 -14690.39,8642.02 -14690.77,11052.82 
			1611.1,11052.82 1611.1,10753.92 -1626.29,10753.92 -1626.29,8644.24 1611.1,8644.24 1611.1,5092.02 -3225.42,5092.02 
			-3225.42,2834.69 -2754.81,2834.69 -2754.81,4582.09 -2382.31,4582.09 		"/>
	</g>
	<rect x="16.25" y="185.56" display="inline" fill="none" width="226.81" height="33.07"/>
	
		<text transform="matrix(1 0 0 1 57.9385 213.6797)" display="inline" fill="#0096A9" font-family="'Comfortaa-Light'" font-size="36">Morning</text>
</g>
<g id="PopUp">
</g>
<g id="_x31_st_x5F_Welcome">
</g>
<g id="Ebene_19">
	<g>
		<path fill="#0096A9" d="M114.47,110.22c-0.88-1.76-3.28-2.95-5.97-2.95c-2.69,0-5.09,1.18-5.97,2.95
			c-0.14,0.28-0.16,0.6-0.06,0.89c0.1,0.3,0.31,0.54,0.58,0.67c0.56,0.28,1.29,0.04,1.57-0.52c0.48-0.96,2.11-1.65,3.88-1.65
			c1.77,0,3.41,0.7,3.88,1.65c0.2,0.4,0.6,0.65,1.05,0.65c0.18,0,0.36-0.04,0.52-0.12c0.28-0.14,0.49-0.38,0.59-0.68
			C114.63,110.81,114.61,110.49,114.47,110.22z"/>
		<path fill="#0096A9" d="M141.88,110.22c-0.88-1.76-3.28-2.95-5.97-2.95c-2.69,0-5.09,1.18-5.97,2.95
			c-0.14,0.28-0.16,0.6-0.06,0.89c0.1,0.3,0.31,0.54,0.58,0.67c0.56,0.28,1.29,0.04,1.57-0.52c0.48-0.96,2.11-1.65,3.88-1.65
			c1.77,0,3.41,0.7,3.88,1.65c0.2,0.4,0.6,0.65,1.05,0.65c0.18,0,0.36-0.04,0.52-0.12c0.28-0.14,0.49-0.38,0.59-0.68
			C142.04,110.81,142.02,110.49,141.88,110.22z"/>
	</g>
</g>
<g id="Ebene_22">
</g>
<g id="Icons">
</g>
<g id="Ebene_21">
</g>
</svg>
