<?xml version="1.0" encoding="utf-8"?>
<!-- Generator: Adobe Illustrator 16.0.0, SVG Export Plug-In . SVG Version: 6.00 Build 0)  -->
<!DOCTYPE svg PUBLIC "-//W3C//DTD SVG 1.1//EN" "http://www.w3.org/Graphics/SVG/1.1/DTD/svg11.dtd">
<svg version="1.1" xmlns="http://www.w3.org/2000/svg" xmlns:xlink="http://www.w3.org/1999/xlink" x="0px" y="0px" width="261px"
	 height="261px" viewBox="0 0 261 261" enable-background="new 0 0 261 261" xml:space="preserve">
<g id="DESIGN_x5F_Master">
	<g id="Screens">
	</g>
	<g id="Chill_out_1_">
		<path fill="#0096A9" d="M151.41,156.31c-3.51-4.5-26.41-22.49-16.49-30.62c3.12-2.55,8.7-4.69,16.49,5.76
			c7.79-10.45,13.38-8.31,16.49-5.76C177.82,133.82,154.92,151.82,151.41,156.31z"/>
		<path fill="#0096A9" d="M69.31,165.53c0-4.29,0-36.4,0-36.4c0-9.45,6.83-19.5,19.5-19.5h33.59c1.38,0,2.5-1.12,2.5-2.5v-0.48
			c0-1.2-0.86-2.23-2.04-2.46c-10.71-2.01-17.37-11.42-17.37-24.56c0-0.44,0.01-0.87,0.04-1.3c0.01-0.18,0-0.36-0.04-0.54V52.56
			c0.03-0.18,0.04-0.37,0.04-0.56c-0.02-0.43-0.04-0.86-0.04-1.3c0-13.79,11.21-25,25-25s25,11.21,25,25c0,0.44-0.01,0.87-0.03,1.3
			c0,0.04,0,0.08,0,0.12l0,26.07c0,0.04,0,0.09,0,0.13c0.02,0.43,0.03,0.86,0.03,1.3c0,12.98-6.19,22.1-16.56,24.4
			c-1.14,0.25-1.96,1.27-1.96,2.44v0.66c0,1.38,1.12,2.5,2.5,2.5h32.71c7.28,0,19.5,2.53,19.5,19.5c0,0-0.01,33.02,0,36.4
			c0.01,3.38,5,3.65,5,0s0-36.4,0-36.4c0-15.34-9.16-24.5-24.5-24.5H149.5c6.96-5.17,11-14.05,11-25c0-0.5-0.01-1-0.04-1.49l0-25.95
			c0.03-0.49,0.04-0.99,0.04-1.49c0-16.54-13.46-30-30-30c-16.54,0-30,13.46-30,30c0,0.37,0.01,0.74,0.02,1.11
			c-0.01,0.1-0.02,0.21-0.02,0.32V78.2c0,0.11,0.01,0.21,0.02,0.32c-0.01,0.37-0.02,0.74-0.02,1.11c0,11,4.04,19.84,11,25H88.81
			c-15.91,0-24.5,12.62-24.5,24.5c0,0,0,32.52,0,36.4C64.31,169.41,69.31,169.82,69.31,165.53z"/>
	</g>
</g>
<g id="Ebene_7">
</g>
<g id="Startbildschirm_x5F_UIX">
</g>
<g id="STRUKTUR">
</g>
<g id="Ebene_5">
</g>
<g id="Ebene_6">
</g>
</svg>
