<?xml version="1.0" encoding="utf-8"?>
<!-- Generator: Adobe Illustrator 16.0.0, SVG Export Plug-In . SVG Version: 6.00 Build 0)  -->
<!DOCTYPE svg PUBLIC "-//W3C//DTD SVG 1.1//EN" "http://www.w3.org/Graphics/SVG/1.1/DTD/svg11.dtd">
<svg version="1.1" xmlns="http://www.w3.org/2000/svg" xmlns:xlink="http://www.w3.org/1999/xlink" x="0px" y="0px" width="261px"
	 height="261px" viewBox="0 0 261 261" enable-background="new 0 0 261 261" xml:space="preserve">
<g id="DESIGN_x5F_Master">
	<g id="Screens">
	</g>
</g>
<g id="Batterystatus">
</g>
<g id="Startbildschirm_x5F_UIX">
</g>
<g id="STRUKTUR">
</g>
<g id="Inakt_x2F_Purch">
</g>
<g id="rest">
</g>
<g id="Programm-Icons" display="none">
	<g display="inline">
	</g>
	<g id="Ebene_12" display="inline">
	</g>
	<g id="relieve_x5F_01" display="inline">
		<circle fill="#FFFFFF" stroke="#106873" stroke-width="2" stroke-miterlimit="10" cx="130.5" cy="130.42" r="128.94"/>
		<path fill="#0096A9" d="M69.3,175.08c0.01-2.02,0-7.4,0-7.4c0-9.45,6.83-19.5,19.5-19.5h33.59c1.38,0,2.5-1.12,2.5-2.5v-0.48
			c0-1.2-0.86-2.23-2.04-2.46c-10.71-2.01-17.37-11.42-17.37-24.56c0-0.44,0-28.49,0-28.93c0-13.79,11.22-25,25-25
			c13.79,0,25,11.21,25,25c0,0.44,0,28.49,0,28.93c0,12.98-6.19,22.1-16.55,24.4c-1.14,0.25-1.96,1.27-1.96,2.44v0.66
			c0,1.38,1.12,2.5,2.5,2.5h32.71c7.28,0,19.5,2.53,19.5,19.5c0,0,0.01,4.17,0,7.4c-0.01,3.23,4.99,3.65,5,0c-0.04-3.11,0-7.4,0-7.4
			c0-15.34-9.16-24.5-24.5-24.5h-22.69c6.96-5.17,11-14.04,11-25c0-0.5,0-28.43,0-28.93c0-16.54-13.46-30-30-30
			c-16.54,0-30,13.46-30,30c0,0.37,0,28.56,0,28.93c0,11,4.04,19.84,11,25H88.8c-15.91,0-24.5,12.62-24.5,24.5c0,0,0.05,4.01,0,7.4
			C64.25,178.47,69.25,178.31,69.3,175.08z"/>
		<path fill-rule="evenodd" clip-rule="evenodd" fill="#FFFFFF" d="M209.28,76.01c-1.8-2.86-4.32-3.59-6.85-2.16
			c-2.66,1.51-3.28,4.2-1.52,7.27c1.99,3.46,4.29,6.84,6.32,10.28c0.56,0.96,1.33,2.34,0.49,3.18c-0.85,0.86-2.07,0.48-3.21,0.2
			c-4.11-1.01-33.74-8.45-44.46-11.12c-4.13-1.03-6.95,0.18-7.61,3.28c-0.63,2.97,1.22,5.22,5.2,6.22c1.05,0.26,2.09,0.53,3.14,0.79
			c-0.17-0.04-0.34-0.08-0.5-0.12c-4.13-1.03-6.95,0.18-7.61,3.28c-0.63,2.97,1.22,5.22,5.2,6.22c7.39,1.87,14.79,3.7,22.92,5.74
			c-2.61,1.57-4.54,3.09-4.3,6.23c0.22,2.98,2.08,4.58,4.95,5.51c-2.09,1.35-3.75,2.77-3.05,5.43c0.64,2.48,2.48,3.7,4.6,4.23
			c26.48,6.62,26.26,7.4,35.15,5.4l9.93-35.3C222.86,95.36,211.16,78.99,209.28,76.01z"/>
		<path fill="#0096A9" d="M228.99,99.66c-5-5.01-16.63-21.22-18.6-24.34c-2.14-3.39-5.43-4.39-8.59-2.59
			c-1.54,0.87-2.57,2.12-2.98,3.62c-0.45,1.66-0.12,3.54,0.97,5.44c1.07,1.87,5.04,8.2,6.32,10.29c0.69,1.12,0.79,1.18,0.62,1.57
			c-0.17,0.38-0.79,0.17-1.67-0.05c0,0-39.23-9.82-44.7-11.18c-2.72-0.68-5.04-0.48-6.71,0.57c-1.28,0.8-2.14,2.08-2.49,3.7
			c-0.57,2.66,0.48,4.91,2.86,6.4c-0.04,0.03-0.09,0.05-0.14,0.07c-1.28,0.8-2.14,2.08-2.49,3.7c-0.79,3.68,1.51,6.58,6.15,7.75
			c5.3,1.34,20.14,5.04,20.14,5.04c-1.58,1.34-2.7,3.07-2.5,5.76c0.19,2.55,1.39,4.44,3.66,5.71c-1.29,1.17-2.39,2.89-1.72,5.46
			c0.68,2.65,2.6,4.43,5.54,5.17c4.33,1.08,7.95,2.01,11.01,2.79c9.94,2.55,14.1,3.61,17.78,3.61c2.14,0,4.11-0.36,6.96-1
			c0.7-0.16,1.14-0.85,0.98-1.55c-0.16-0.7-0.85-1.14-1.55-0.98c-7.13,1.6-8.05,1.37-23.52-2.6c-3.06-0.78-6.69-1.71-11.02-2.8
			c-2.02-0.5-3.21-1.58-3.66-3.3c-0.41-1.57,0.18-2.51,2.5-4.01c0.42-0.27,0.65-0.76,0.58-1.26c-0.07-0.5-0.41-0.91-0.89-1.07
			c-2.68-0.87-3.9-2.18-4.06-4.37c-0.17-2.29,1.05-3.44,3.68-5.02c0.02-0.01,0.03-0.03,0.05-0.04c0.1-0.06,0.18-0.14,0.26-0.23
			c0.03-0.03,0.06-0.06,0.09-0.1c0.08-0.12,0.15-0.26,0.19-0.41c0.04-0.17,0.06-0.35,0.03-0.52c-0.02-0.17-0.08-0.33-0.17-0.48v0
			c0-0.01-0.01-0.01-0.02-0.02c-0.08-0.14-0.19-0.26-0.32-0.35c-0.13-0.1-0.28-0.16-0.43-0.21c-0.01,0-0.02-0.01-0.03-0.01v0h0
			c0,0-17.62-4.4-22.92-5.73c-2.27-0.57-4.85-1.85-4.25-4.69c0.2-0.93,0.64-1.61,1.32-2.04c1.06-0.66,2.69-0.75,4.7-0.25
			c5.8,1.44,22.42,5.62,24.3,6.08c0.7,0.17,1.4-0.25,1.57-0.95c0.17-0.7-0.25-1.4-0.95-1.57c-1.01-0.25-21.78-5.45-26.93-6.75
			c-2.27-0.58-4.85-1.85-4.25-4.69c0.2-0.93,0.64-1.61,1.32-2.04c1.06-0.66,2.69-0.75,4.7-0.25c5.46,1.36,44.69,11.17,44.69,11.17
			c1.15,0.29,2.9,0.73,4.22-0.6c1.57-1.58,0.26-3.81-0.29-4.76c-0.96-1.63-5.27-8.45-6.31-10.27c-0.74-1.28-0.98-2.48-0.72-3.45
			c0.22-0.82,0.81-1.51,1.75-2.04c2.46-1.39,4.13,0.17,5.11,1.72c2.06,3.28,13.74,19.56,18.96,24.79c0.25,0.25,0.59,0.38,0.92,0.38
			c0.33,0,0.66-0.13,0.92-0.38C229.49,100.99,229.49,100.17,228.99,99.66z"/>
		<path fill-rule="evenodd" clip-rule="evenodd" fill="#FFFFFF" d="M51.69,76.01c1.8-2.86,4.32-3.59,6.85-2.16
			c2.66,1.51,3.28,4.2,1.52,7.27c-1.99,3.46-4.29,6.84-6.32,10.28c-0.56,0.96-1.33,2.34-0.49,3.18c0.85,0.86,2.07,0.48,3.21,0.2
			c4.11-1.01,33.74-8.45,44.46-11.12c4.13-1.03,6.95,0.18,7.61,3.28c0.63,2.97-1.22,5.22-5.2,6.22c-1.05,0.26-2.09,0.53-3.14,0.79
			c0.17-0.04,0.34-0.08,0.5-0.12c4.13-1.03,6.95,0.18,7.61,3.28c0.63,2.97-1.22,5.22-5.2,6.22c-7.39,1.87-14.79,3.7-22.92,5.74
			c2.61,1.57,4.54,3.09,4.3,6.23c-0.22,2.98-2.08,4.58-4.95,5.51c2.09,1.35,3.75,2.77,3.05,5.43c-0.64,2.48-2.48,3.7-4.6,4.23
			c-26.48,6.62-26.26,7.4-35.15,5.4l-9.93-35.3C38.11,95.36,49.81,78.99,51.69,76.01z"/>
		<path fill="#0096A9" d="M31.99,99.66c5-5.01,16.63-21.22,18.6-24.34c2.14-3.39,5.43-4.39,8.59-2.59c1.54,0.87,2.57,2.12,2.98,3.62
			c0.45,1.66,0.12,3.54-0.97,5.44c-1.07,1.87-5.04,8.2-6.32,10.29c-0.68,1.12-0.79,1.18-0.62,1.57c0.17,0.38,0.79,0.17,1.67-0.05
			c0,0,39.23-9.82,44.69-11.18c2.72-0.68,5.04-0.48,6.71,0.57c1.28,0.8,2.14,2.08,2.49,3.7c0.57,2.66-0.48,4.91-2.86,6.4
			c0.04,0.03,0.09,0.05,0.14,0.07c1.28,0.8,2.14,2.08,2.49,3.7c0.79,3.68-1.51,6.58-6.15,7.75c-5.3,1.34-20.14,5.04-20.14,5.04
			c1.58,1.34,2.7,3.07,2.5,5.76c-0.19,2.55-1.39,4.44-3.66,5.71c1.29,1.17,2.39,2.89,1.72,5.46c-0.68,2.65-2.6,4.43-5.54,5.17
			c-4.33,1.08-7.95,2.01-11.01,2.79c-9.94,2.55-14.1,3.61-17.78,3.61c-2.14,0-4.11-0.36-6.96-1c-0.7-0.16-1.14-0.85-0.98-1.55
			c0.16-0.7,0.85-1.14,1.55-0.98c7.13,1.6,8.05,1.37,23.52-2.6c3.06-0.78,6.69-1.71,11.02-2.8c2.02-0.5,3.21-1.58,3.66-3.3
			c0.41-1.57-0.18-2.51-2.5-4.01c-0.42-0.27-0.65-0.76-0.58-1.26c0.07-0.5,0.41-0.91,0.89-1.07c2.69-0.87,3.9-2.18,4.06-4.37
			c0.17-2.29-1.05-3.44-3.68-5.02c-0.02-0.01-0.03-0.03-0.05-0.04c-0.1-0.06-0.18-0.14-0.26-0.23c-0.03-0.03-0.06-0.06-0.09-0.1
			c-0.08-0.12-0.15-0.26-0.19-0.41c-0.04-0.17-0.06-0.35-0.03-0.52c0.03-0.17,0.08-0.33,0.17-0.48v0c0.01-0.01,0.01-0.01,0.02-0.02
			c0.08-0.14,0.19-0.26,0.32-0.35c0.13-0.1,0.28-0.16,0.43-0.21c0.01,0,0.02-0.01,0.02-0.01l0,0h0c0,0,17.62-4.4,22.92-5.73
			c2.27-0.57,4.85-1.85,4.25-4.69c-0.2-0.93-0.64-1.61-1.32-2.04c-1.06-0.66-2.69-0.75-4.7-0.25c-5.8,1.44-22.42,5.62-24.3,6.08
			c-0.7,0.17-1.4-0.25-1.57-0.95c-0.17-0.7,0.25-1.4,0.95-1.57c1.01-0.25,21.78-5.45,26.94-6.75c2.27-0.58,4.85-1.85,4.25-4.69
			c-0.2-0.93-0.64-1.61-1.32-2.04c-1.06-0.66-2.69-0.75-4.7-0.25c-5.46,1.36-44.69,11.17-44.69,11.17c-1.15,0.29-2.9,0.73-4.22-0.6
			c-1.57-1.58-0.26-3.81,0.29-4.76c0.96-1.63,5.27-8.45,6.31-10.27c0.74-1.28,0.98-2.48,0.72-3.45c-0.23-0.82-0.81-1.51-1.75-2.04
			c-2.46-1.39-4.13,0.17-5.11,1.72c-2.06,3.28-13.74,19.56-18.96,24.79c-0.25,0.25-0.59,0.38-0.92,0.38c-0.33,0-0.66-0.13-0.92-0.38
			C31.48,100.99,31.48,100.17,31.99,99.66z"/>
	</g>
	<g id="Wording">
		<rect x="46.14" y="185.48" display="inline" fill="none" width="167.26" height="33.07"/>
		
			<text transform="matrix(1 0 0 1 66.4873 213.5967)" display="inline" fill="#0096A9" font-family="'Comfortaa-Light'" font-size="36">Relieve</text>
	</g>
</g>
<g id="Programm-Icons_Kopie">
	<g>
		<rect x="-252.19" y="130.42" fill="none" width="266.05" height="66.51"/>
		<text transform="matrix(1 0 0 1 -252.1855 161.0835)" fill="#1D1D1B" font-family="'MuseoSans-500'" font-size="43.4369">relieve</text>
	</g>
	<circle fill="#FFFFFF" stroke="#106873" stroke-width="2" stroke-miterlimit="10" cx="130.49" cy="130.5" r="128.94"/>
	<path fill="#0096A9" d="M69.3,175.08c0.01-2.02,0-7.4,0-7.4c0-9.45,6.83-19.5,19.5-19.5h33.59c1.38,0,2.5-1.12,2.5-2.5v-0.48
		c0-1.2-0.86-2.23-2.04-2.46c-10.71-2.01-17.37-11.42-17.37-24.56c0-0.44,0.01-0.87,0.04-1.3c0.01-0.18,0-0.36-0.04-0.54V91.11
		c0.03-0.18,0.05-0.37,0.04-0.56c-0.02-0.43-0.04-0.86-0.04-1.3c0-13.79,11.22-25,25-25c13.79,0,25,11.21,25,25
		c0,0.44-0.01,0.87-0.03,1.3c0,0.04,0,0.08,0,0.12v26.07c0,0.04,0,0.09,0,0.13c0.02,0.43,0.03,0.86,0.03,1.3
		c0,12.98-6.19,22.1-16.55,24.4c-1.14,0.25-1.96,1.27-1.96,2.44v0.66c0,1.38,1.12,2.5,2.5,2.5h32.71c7.28,0,19.5,2.53,19.5,19.5
		c0,0,0.01,4.17,0,7.4c-0.01,3.23,4.99,3.65,5,0c-0.04-3.11,0-7.4,0-7.4c0-15.34-9.16-24.5-24.5-24.5h-22.69
		c6.96-5.17,11-14.04,11-25c0-0.5-0.01-1-0.04-1.49V90.74c0.02-0.5,0.04-0.99,0.04-1.49c0-16.54-13.46-30-30-30
		c-16.54,0-30,13.46-30,30c0,0.37,0.01,0.74,0.02,1.11c-0.01,0.11-0.02,0.21-0.02,0.32v26.07c0,0.11,0.01,0.21,0.02,0.32
		c-0.01,0.37-0.02,0.74-0.02,1.11c0,11,4.04,19.84,11,25H88.8c-15.91,0-24.5,12.62-24.5,24.5c0,0,0.05,4.01,0,7.4
		C64.25,178.47,69.25,178.31,69.3,175.08z"/>
	<g>
		
			<path fill-rule="evenodd" clip-rule="evenodd" fill="#FFFFFF" stroke="#0096A9" stroke-width="2.6" stroke-linecap="round" stroke-linejoin="round" stroke-miterlimit="10" d="
			M80.41,98.92c8.13-2.03,15.53-3.87,22.92-5.74c3.98-1.01,5.83-3.25,5.2-6.22c-0.66-3.1-3.48-4.3-7.61-3.28
			C90.2,86.34,60.57,93.79,56.46,94.8c-1.14,0.28-2.36,0.66-3.21-0.2c-0.83-0.84-0.07-2.23,0.49-3.18
			c2.02-3.45,4.33-6.82,6.32-10.28c1.76-3.07,1.14-5.76-1.52-7.27c-2.53-1.44-5.05-0.7-6.85,2.16C49.81,79,38.12,95.37,32.91,100.59
			"/>
		
			<path fill-rule="evenodd" clip-rule="evenodd" fill="#FFFFFF" stroke="#0096A9" stroke-width="2.6" stroke-linecap="round" stroke-linejoin="round" stroke-miterlimit="10" d="
			M42.85,135.9c8.89,2,8.66,1.22,35.15-5.4c2.11-0.53,3.96-1.76,4.6-4.23c0.69-2.66-0.97-4.08-3.05-5.43
			c2.87-0.93,4.74-2.53,4.95-5.51c0.23-3.14-1.69-4.66-4.3-6.23"/>
		
			<path fill-rule="evenodd" clip-rule="evenodd" fill="#FFFFFF" stroke="#0096A9" stroke-width="2.6" stroke-linecap="round" stroke-linejoin="round" stroke-miterlimit="10" d="
			M80.18,109.09c8.13-2.03,15.53-3.87,22.92-5.74c3.98-1.01,5.83-3.25,5.2-6.22c-0.66-3.09-3.48-4.3-7.61-3.28
			c-10.72,2.67-20.19,5.07-24.3,6.09"/>
	</g>
	<g>
		
			<path fill-rule="evenodd" clip-rule="evenodd" fill="#FFFFFF" stroke="#0096A9" stroke-width="2.6" stroke-linecap="round" stroke-linejoin="round" stroke-miterlimit="10" d="
			M180.56,98.91c-8.13-2.03-15.53-3.87-22.92-5.74c-3.98-1.01-5.84-3.25-5.2-6.22c0.66-3.1,3.48-4.3,7.61-3.28
			c10.72,2.67,40.36,10.11,44.46,11.12c1.14,0.28,2.36,0.66,3.21-0.2c0.83-0.84,0.07-2.23-0.49-3.18
			c-2.02-3.44-4.33-6.82-6.32-10.28c-1.76-3.07-1.14-5.76,1.52-7.27c2.53-1.44,5.05-0.7,6.85,2.16
			c1.88,2.98,13.58,19.34,18.78,24.57"/>
		
			<path fill-rule="evenodd" clip-rule="evenodd" fill="#FFFFFF" stroke="#0096A9" stroke-width="2.6" stroke-linecap="round" stroke-linejoin="round" stroke-miterlimit="10" d="
			M218.13,135.88c-8.89,2-8.66,1.22-35.15-5.4c-2.12-0.53-3.96-1.76-4.6-4.23c-0.69-2.66,0.97-4.08,3.05-5.43
			c-2.87-0.93-4.74-2.53-4.95-5.51c-0.23-3.14,1.69-4.66,4.3-6.23"/>
		
			<path fill-rule="evenodd" clip-rule="evenodd" fill="#FFFFFF" stroke="#0096A9" stroke-width="2.6" stroke-linecap="round" stroke-linejoin="round" stroke-miterlimit="10" d="
			M180.79,109.09c-8.14-2.03-15.54-3.87-22.92-5.74c-3.98-1.01-5.83-3.25-5.2-6.22c0.66-3.09,3.48-4.3,7.61-3.28
			c10.72,2.67,20.19,5.07,24.3,6.08"/>
	</g>
	<g id="Ebene_12_Kopie">
		<path opacity="0.2" fill="#164959" stroke="#FFFFFF" stroke-width="0.6452" stroke-miterlimit="10" d="M-701.69-1009.04V1376.2
			h3123.54v-2385.24H-701.69z M1470.34-345.76c0-9.39,7.61-17.01,17.01-17.01h141.04h109.99c9.39,0,17.01,7.61,17.01,17.01v251.04
			c0,9.39-7.62,17.01-17.01,17.01h-251.04c-9.39,0-17.01-7.61-17.01-17.01V-345.76z M1470.34,2.43c0-9.39,7.61-17.01,17.01-17.01
			h141.04h109.99c9.39,0,17.01,7.61,17.01,17.01v251.04c0,9.39-7.62,17.01-17.01,17.01h-251.04c-9.39,0-17.01-7.61-17.01-17.01V2.43
			z M1470.34,378.25c0-9.39,7.61-17.01,17.01-17.01h141.04h109.99c9.39,0,17.01,7.61,17.01,17.01v251.04
			c0,9.39-7.62,17.01-17.01,17.01h-251.04c-9.39,0-17.01-7.61-17.01-17.01V378.25z M616.93-342.01v251.04
			c0,9.39-7.61,17.01-17.01,17.01H348.88c-9.39,0-17.01-7.61-17.01-17.01v-251.04c0-9.39,7.61-17.01,17.01-17.01h251.04
			C609.31-359.02,616.93-351.4,616.93-342.01z M250.43-982.05C376.67-982.05,479-879.71,479-753.48
			c0,126.23-102.33,228.57-228.57,228.57c-126.23,0-228.57-102.33-228.57-228.57C21.87-879.71,124.2-982.05,250.43-982.05z
			 M281.69,959.2c0,9.39-7.62,17.01-17.01,17.01H13.64c-9.39,0-17.01-7.61-17.01-17.01V708.17c0-9.39,7.61-17.01,17.01-17.01h141.04
			h109.99c9.39,0,17.01,7.61,17.01,17.01V959.2z M282.69,629.1c0,9.39-7.62,17.01-17.01,17.01H14.64c-9.39,0-17.01-7.61-17.01-17.01
			V378.07c0-9.39,7.61-17.01,17.01-17.01h141.04h109.99c9.39,0,17.01,7.61,17.01,17.01V629.1z M-3.16,2.09
			c0-9.39,7.61-17.01,17.01-17.01h141.04h109.99c9.39,0,17.01,7.61,17.01,17.01v251.04c0,9.39-7.61,17.01-17.01,17.01H13.85
			c-9.39,0-17.01-7.61-17.01-17.01V2.09z M618.63,1332.31c0,9.39-7.62,17.01-17.01,17.01H350.59c-9.39,0-17.01-7.61-17.01-17.01
			v-251.04c0-9.39,7.61-17.01,17.01-17.01h141.04h109.99c9.39,0,17.01,7.61,17.01,17.01V1332.31z M1755.39,1331.69
			c0,9.39-7.62,17.01-17.01,17.01h-251.04c-9.39,0-17.01-7.61-17.01-17.01v-251.04c0-9.39,7.61-17.01,17.01-17.01h141.04h109.99
			c9.39,0,17.01,7.61,17.01,17.01V1331.69z M2417.86,958.86c0,9.39-7.62,17.01-17.01,17.01h-251.04c-9.39,0-17.01-7.61-17.01-17.01
			V707.83c0-9.39,7.62-17.01,17.01-17.01h141.04h109.99c9.39,0,17.01,7.61,17.01,17.01V958.86z M1881.31-524.91
			c-126.23,0-228.57-102.33-228.57-228.57c0-126.23,102.33-228.57,228.57-228.57c126.23,0,228.57,102.33,228.57,228.57
			C2109.88-627.25,2007.55-524.91,1881.31-524.91z"/>
	</g>
</g>
<g id="ANIM">
</g>
<g id="Ebene_14">
</g>
<g id="Ebene_10">
</g>
<g id="Colors">
</g>
<g id="TXT" display="none">
	<g display="inline">
		<polyline fill="none" stroke="#000000" stroke-width="1.0002" stroke-miterlimit="10" points="2723.13,5660.85 3028.86,5660.85 
			3028.86,-1667.45 -1281.57,-1667.45 -1281.57,3700.56 -1752.17,3700.56 -1752.17,3307.27 -7092.82,3307.27 -7092.82,2253.67 
			-6752.83,2253.67 -6752.83,3140.34 -4141.1,3140.34 -4141.1,929.36 -6752.83,929.36 -6752.83,1794.01 -7092.82,1794.01 
			-7092.82,919.66 -13215.75,919.66 -13216.61,6369.98 -11407.56,6369.98 -11407.56,9720.79 -13217.14,9720.79 -13217.52,12131.58 
			3084.35,12131.58 3084.35,11832.68 -153.04,11832.68 -153.04,9723 3084.35,9723 3084.35,6170.78 -1752.17,6170.78 
			-1752.17,3913.45 -1281.57,3913.45 -1281.57,5660.85 -909.07,5660.85 		"/>
	</g>
	<rect x="46.14" y="185.48" display="inline" fill="none" width="167.26" height="33.07"/>
	
		<text transform="matrix(1 0 0 1 66.4873 213.5967)" display="inline" fill="#0096A9" font-family="'Comfortaa-Light'" font-size="36">Relieve</text>
</g>
<g id="PopUp">
</g>
<g id="_x31_st_x5F_Welcome">
</g>
<g id="Ebene_19">
	<g>
		<path fill="#0096A9" d="M122.77,105.08c-0.88-1.76-3.28-2.95-5.97-2.95c-2.69,0-5.09,1.18-5.97,2.95
			c-0.14,0.28-0.16,0.6-0.06,0.89c0.1,0.3,0.31,0.54,0.58,0.67c0.56,0.28,1.29,0.04,1.57-0.52c0.48-0.96,2.11-1.65,3.88-1.65
			c1.77,0,3.41,0.7,3.88,1.65c0.2,0.4,0.6,0.65,1.05,0.65c0.18,0,0.36-0.04,0.52-0.12c0.28-0.14,0.49-0.38,0.59-0.68
			C122.93,105.68,122.91,105.36,122.77,105.08z"/>
		<path fill="#0096A9" d="M150.18,105.08c-0.88-1.76-3.28-2.95-5.97-2.95c-2.69,0-5.09,1.18-5.97,2.95
			c-0.14,0.28-0.16,0.6-0.06,0.89c0.1,0.3,0.31,0.54,0.58,0.67c0.56,0.28,1.29,0.04,1.57-0.52c0.48-0.96,2.11-1.65,3.88-1.65
			c1.77,0,3.41,0.7,3.88,1.65c0.2,0.4,0.6,0.65,1.05,0.65c0.18,0,0.36-0.04,0.52-0.12c0.28-0.14,0.49-0.38,0.59-0.68
			C150.34,105.68,150.32,105.36,150.18,105.08z"/>
	</g>
</g>
<g id="Ebene_22">
</g>
<g id="Icons">
</g>
<g id="Ebene_21">
</g>
</svg>
