<?xml version="1.0" encoding="utf-8"?>
<!-- Generator: Adobe Illustrator 16.0.0, SVG Export Plug-In . SVG Version: 6.00 Build 0)  -->
<!DOCTYPE svg PUBLIC "-//W3C//DTD SVG 1.1//EN" "http://www.w3.org/Graphics/SVG/1.1/DTD/svg11.dtd">
<svg version="1.1" xmlns="http://www.w3.org/2000/svg" xmlns:xlink="http://www.w3.org/1999/xlink" x="0px" y="0px" width="261px"
	 height="261px" viewBox="0 0 261 261" enable-background="new 0 0 261 261" xml:space="preserve">
<g id="DESIGN_x5F_Master">
	<g id="Screens">
	</g>
</g>
<g id="Batterystatus">
</g>
<g id="Startbildschirm_x5F_UIX">
</g>
<g id="STRUKTUR">
</g>
<g id="Inakt_x2F_Purch">
</g>
<g id="rest">
</g>
<g id="Programm-Icons" display="none">
	<g display="inline">
	</g>
	<g id="Ebene_12" display="inline">
	</g>
	<g id="cooldown_x5F_01" display="inline">
		
			<path fill="#FFFFFF" stroke="#106873" stroke-width="2" stroke-linecap="round" stroke-linejoin="round" stroke-miterlimit="10" d="
			M259.44,130.5c0,71.21-57.73,128.94-128.94,128.94c-71.22,0-128.94-57.73-128.94-128.94C1.56,59.29,59.28,1.56,130.5,1.56
			C201.71,1.56,259.44,59.29,259.44,130.5z"/>
		<path fill="#0096A9" d="M53.59,175.3c0-3.01,0-8.7,0-8.7c0-9.45,6.83-19.5,19.5-19.5h33.6c1.38,0,2.5-1.12,2.5-2.5v-0.48
			c0-1.2-0.86-2.23-2.04-2.46c-10.71-2.01-17.37-11.42-17.37-24.56c0-0.44,0-28.5,0-28.93c0-13.78,11.22-25,25-25
			c13.79,0,25,11.22,25,25c0,0.44,0,28.49,0,28.93c0,12.97-6.19,22.1-16.56,24.4c-1.14,0.25-1.96,1.27-1.96,2.44v0.66
			c0,1.38,1.12,2.5,2.5,2.5h32.7c7.28,0,19.5,2.53,19.5,19.5c0,0,0,5.67,0,8.7c0,3.31,5,3.27,5,0c0-2.56,0-8.7,0-8.7
			c0-15.34-9.16-24.5-24.5-24.5h-22.69c6.96-5.17,11-14.05,11-25c0-0.5,0-28.43,0-28.93c0-16.54-13.46-30-30-30
			c-16.54,0-30,13.46-30,30c0,0.37,0,28.56,0,28.93c0,11,4.04,19.84,11,25H73.09c-15.91,0-24.5,12.62-24.5,24.5c0,0,0,4.52,0,8.7
			C48.6,178.85,53.59,178.53,53.59,175.3z"/>
		<path fill="#0096A9" d="M218.28,108.01l-11.69,1.06l-6.03-3.48l12.47-1.13c0.55-0.05,0.96-0.54,0.91-1.09s-0.54-0.95-1.09-0.91
			l-15.29,1.38l-2.67-1.54V95.2l2.68-1.55l15.29,1.38c0.03,0,0.06,0,0.09,0c0.51,0,0.95-0.39,1-0.91c0.05-0.55-0.36-1.04-0.91-1.09
			l-12.46-1.13l6.03-3.48l11.69,1.06c0.02,0,0.05,0,0.07,0c0.41,0,0.76-0.31,0.8-0.73c0.04-0.44-0.29-0.83-0.72-0.87l-9.43-0.85
			l8.28-4.78c0.48-0.28,0.64-0.89,0.37-1.37c-0.28-0.48-0.89-0.64-1.37-0.37l-8.28,4.78l3.98-8.59c0.19-0.4,0.01-0.88-0.39-1.06
			c-0.4-0.19-0.88-0.01-1.06,0.39l-4.93,10.66l-6.03,3.48l5.26-11.36c0.23-0.5,0.01-1.1-0.49-1.33c-0.5-0.23-1.1-0.01-1.33,0.49
			l-6.45,13.94l-2.67,1.54l-6.16-3.56v-3.09l8.84-12.55c0.32-0.45,0.21-1.08-0.24-1.39c-0.45-0.32-1.08-0.21-1.39,0.24l-7.21,10.23
			v-6.96l6.76-9.6c0.25-0.36,0.17-0.86-0.19-1.11c-0.36-0.25-0.86-0.17-1.11,0.19l-5.45,7.74v-9.56c0-0.55-0.45-1-1-1
			c-0.55,0-1,0.45-1,1v9.56l-5.45-7.74c-0.25-0.36-0.75-0.45-1.11-0.19c-0.36,0.25-0.45,0.75-0.19,1.11l6.76,9.6v6.96l-7.21-10.23
			c-0.32-0.45-0.94-0.56-1.39-0.24c-0.45,0.32-0.56,0.94-0.24,1.39l8.84,12.55v3.08l-6.16,3.56l-2.67-1.54l-6.45-13.93
			c-0.23-0.5-0.82-0.72-1.33-0.49c-0.5,0.23-0.72,0.83-0.49,1.33l5.26,11.36l-6.03-3.48l-4.93-10.65c-0.19-0.4-0.66-0.58-1.06-0.39
			c-0.4,0.19-0.58,0.66-0.39,1.06l3.98,8.59l-8.28-4.78c-0.48-0.28-1.09-0.11-1.37,0.37s-0.11,1.09,0.37,1.37l8.28,4.78l-9.43,0.85
			c-0.44,0.04-0.76,0.43-0.72,0.87c0.04,0.42,0.39,0.73,0.8,0.73c0.02,0,0.05,0,0.07,0l11.69-1.06l6.03,3.48l-12.46,1.13
			c-0.55,0.05-0.96,0.54-0.91,1.09c0.05,0.52,0.48,0.91,1,0.91c0.03,0,0.06,0,0.09,0l15.29-1.38l2.67,1.54v7.11l-2.67,1.54
			l-15.29-1.38c-0.54-0.04-1.04,0.36-1.09,0.91s0.36,1.04,0.91,1.09l12.46,1.13l-6.03,3.48l-11.69-1.06
			c-0.43-0.04-0.83,0.28-0.87,0.72s0.29,0.83,0.72,0.87l9.43,0.85l-8.28,4.78c-0.48,0.28-0.64,0.89-0.37,1.37
			c0.19,0.32,0.52,0.5,0.87,0.5c0.17,0,0.34-0.04,0.5-0.13l8.28-4.78l-3.98,8.59c-0.19,0.4-0.01,0.88,0.39,1.06
			c0.11,0.05,0.22,0.07,0.33,0.07c0.3,0,0.59-0.17,0.73-0.46l4.93-10.65l6.03-3.48l-5.26,11.36c-0.23,0.5-0.01,1.1,0.49,1.33
			c0.14,0.06,0.28,0.09,0.42,0.09c0.38,0,0.74-0.21,0.91-0.58l6.45-13.93l2.67-1.54l6.16,3.56v3.09l-8.84,12.55
			c-0.32,0.45-0.21,1.08,0.24,1.39c0.18,0.12,0.38,0.18,0.58,0.18c0.31,0,0.62-0.15,0.82-0.42l7.21-10.23v6.96l-6.76,9.6
			c-0.25,0.36-0.17,0.86,0.19,1.11c0.14,0.1,0.3,0.15,0.46,0.15c0.25,0,0.5-0.12,0.65-0.34l5.45-7.74v9.56c0,0.55,0.45,1,1,1
			s1-0.45,1-1v-9.56l5.45,7.74c0.16,0.22,0.4,0.34,0.66,0.34c0.16,0,0.32-0.05,0.46-0.15c0.36-0.25,0.45-0.75,0.19-1.11l-6.76-9.6
			v-6.96l7.21,10.23c0.19,0.28,0.5,0.42,0.82,0.42c0.2,0,0.4-0.06,0.58-0.18c0.45-0.32,0.56-0.94,0.24-1.39l-8.84-12.56v-3.08
			l6.16-3.56l2.67,1.54l6.45,13.93c0.17,0.37,0.53,0.58,0.91,0.58c0.14,0,0.28-0.03,0.42-0.09c0.5-0.23,0.72-0.83,0.49-1.33
			l-5.26-11.36l6.03,3.48l4.93,10.65c0.13,0.29,0.42,0.46,0.73,0.46c0.11,0,0.23-0.02,0.33-0.07c0.4-0.19,0.58-0.66,0.39-1.06
			l-3.98-8.59l8.28,4.78c0.16,0.09,0.33,0.13,0.5,0.13c0.35,0,0.68-0.18,0.87-0.5c0.28-0.48,0.11-1.09-0.37-1.37l-8.27-4.78
			l9.43-0.85c0.44-0.04,0.76-0.43,0.72-0.87C219.11,108.3,218.71,107.97,218.28,108.01z M192.57,100.98l-3.86-2.23l3.86-2.23V100.98
			z M191.58,94.79l-3.86,2.23v-4.46L191.58,94.79z M185.72,92.56v4.46l-3.86-2.23L185.72,92.56z M180.85,96.52l3.86,2.23l-3.86,2.23
			V96.52z M181.85,102.71l3.86-2.23v4.46L181.85,102.71z M187.71,104.94v-4.46l3.86,2.23L187.71,104.94z"/>
	</g>
	<g id="Wording">
		<rect x="26.3" y="185.32" display="inline" fill="none" width="203.19" height="33.07"/>
		
			<text transform="matrix(1 0 0 1 41.0576 213.439)" display="inline" fill="#0096A9" font-family="'Comfortaa-Light'" font-size="36">Cooldown</text>
	</g>
</g>
<g id="Programm-Icons_Kopie">
	<g>
		<rect x="-264.93" y="114.91" fill="none" width="266.05" height="66.51"/>
		<text transform="matrix(1 0 0 1 -264.9268 145.5757)" fill="#1D1D1B" font-family="'MuseoSans-500'" font-size="43.4369">cooldown</text>
	</g>
	
		<path fill="#FFFFFF" stroke="#106873" stroke-width="2" stroke-linecap="round" stroke-linejoin="round" stroke-miterlimit="10" d="
		M259.44,130.5c0,71.21-57.73,128.94-128.94,128.94c-71.22,0-128.94-57.73-128.94-128.94C1.56,59.29,59.28,1.56,130.5,1.56
		C201.71,1.56,259.44,59.29,259.44,130.5z"/>
	<path fill="#0096A9" d="M53.59,168.01c0.07-3.01,0-1.4,0-1.4c0-9.45,6.83-19.5,19.5-19.5h33.6c1.38,0,2.5-1.12,2.5-2.5v-0.48
		c0-1.2-0.86-2.23-2.04-2.46c-10.71-2.01-17.37-11.42-17.37-24.56c0-0.44,0-28.5,0-28.93c0-13.78,11.22-25,25-25
		c13.79,0,25,11.22,25,25c0,0.44,0,28.49,0,28.93c0,12.97-6.19,22.1-16.56,24.4c-1.14,0.25-1.96,1.27-1.96,2.44v0.66
		c0,1.38,1.12,2.5,2.5,2.5h32.7c7.28,0,19.5,2.53,19.5,19.5c0,0,0.06-1.63,0,1.4c0,3.43,5.1,3.37,5,0c-0.02-2.56,0-1.4,0-1.4
		c0-15.34-9.16-24.5-24.5-24.5h-22.69c6.96-5.17,11-14.05,11-25c0-0.5,0-28.43,0-28.93c0-16.54-13.46-30-30-30
		c-16.54,0-30,13.46-30,30c0,0.37,0,28.56,0,28.93c0,11,4.04,19.84,11,25H73.09c-15.91,0-24.5,12.62-24.5,24.5c0,0,0-2.78,0,1.4
		C48.6,171.56,53.52,171.01,53.59,168.01z"/>
	<g>
		
			<line fill="none" stroke="#0096A9" stroke-width="2" stroke-linecap="round" stroke-linejoin="round" stroke-miterlimit="10" x1="186.72" y1="98.75" x2="186.72" y2="64.05"/>
		
			<line fill="none" stroke="#0096A9" stroke-width="1.6" stroke-linecap="round" stroke-linejoin="round" stroke-miterlimit="10" x1="179.61" y1="66.33" x2="186.72" y2="76.42"/>
		
			<line fill="none" stroke="#0096A9" stroke-width="2" stroke-linecap="round" stroke-linejoin="round" stroke-miterlimit="10" x1="177.69" y1="73.69" x2="186.72" y2="86.5"/>
		
			<line fill="none" stroke="#0096A9" stroke-width="1.6" stroke-linecap="round" stroke-linejoin="round" stroke-miterlimit="10" x1="193.82" y1="66.33" x2="186.72" y2="76.42"/>
		
			<line fill="none" stroke="#0096A9" stroke-width="2" stroke-linecap="round" stroke-linejoin="round" stroke-miterlimit="10" x1="195.74" y1="73.69" x2="186.72" y2="86.5"/>
		
			<line fill="none" stroke="#0096A9" stroke-width="2" stroke-linecap="round" stroke-linejoin="round" stroke-miterlimit="10" x1="186.72" y1="98.75" x2="156.66" y2="81.4"/>
		
			<line fill="none" stroke="#0096A9" stroke-width="1.6" stroke-linecap="round" stroke-linejoin="round" stroke-miterlimit="10" x1="155.08" y1="88.69" x2="167.37" y2="87.58"/>
		
			<line fill="none" stroke="#0096A9" stroke-width="2" stroke-linecap="round" stroke-linejoin="round" stroke-miterlimit="10" x1="160.5" y1="94.04" x2="176.11" y2="92.63"/>
		
			<line fill="none" stroke="#0096A9" stroke-width="1.6" stroke-linecap="round" stroke-linejoin="round" stroke-miterlimit="10" x1="162.19" y1="76.38" x2="167.37" y2="87.58"/>
		
			<line fill="none" stroke="#0096A9" stroke-width="2" stroke-linecap="round" stroke-linejoin="round" stroke-miterlimit="10" x1="169.53" y1="78.4" x2="176.11" y2="92.63"/>
		
			<line fill="none" stroke="#0096A9" stroke-width="2" stroke-linecap="round" stroke-linejoin="round" stroke-miterlimit="10" x1="186.71" y1="98.75" x2="156.66" y2="116.1"/>
		
			<line fill="none" stroke="#0096A9" stroke-width="1.6" stroke-linecap="round" stroke-linejoin="round" stroke-miterlimit="10" x1="162.19" y1="121.12" x2="167.37" y2="109.92"/>
		
			<line fill="none" stroke="#0096A9" stroke-width="2" stroke-linecap="round" stroke-linejoin="round" stroke-miterlimit="10" x1="169.53" y1="119.09" x2="176.11" y2="104.87"/>
		
			<line fill="none" stroke="#0096A9" stroke-width="1.6" stroke-linecap="round" stroke-linejoin="round" stroke-miterlimit="10" x1="155.08" y1="108.81" x2="167.37" y2="109.92"/>
		
			<line fill="none" stroke="#0096A9" stroke-width="2" stroke-linecap="round" stroke-linejoin="round" stroke-miterlimit="10" x1="160.5" y1="103.46" x2="176.11" y2="104.87"/>
		
			<line fill="none" stroke="#0096A9" stroke-width="2" stroke-linecap="round" stroke-linejoin="round" stroke-miterlimit="10" x1="186.71" y1="98.75" x2="186.71" y2="133.45"/>
		
			<line fill="none" stroke="#0096A9" stroke-width="1.6" stroke-linecap="round" stroke-linejoin="round" stroke-miterlimit="10" x1="193.82" y1="131.17" x2="186.71" y2="121.08"/>
		
			<line fill="none" stroke="#0096A9" stroke-width="2" stroke-linecap="round" stroke-linejoin="round" stroke-miterlimit="10" x1="195.74" y1="123.81" x2="186.72" y2="111"/>
		
			<line fill="none" stroke="#0096A9" stroke-width="1.6" stroke-linecap="round" stroke-linejoin="round" stroke-miterlimit="10" x1="179.61" y1="131.17" x2="186.71" y2="121.08"/>
		
			<line fill="none" stroke="#0096A9" stroke-width="2" stroke-linecap="round" stroke-linejoin="round" stroke-miterlimit="10" x1="177.69" y1="123.81" x2="186.72" y2="111"/>
		
			<line fill="none" stroke="#0096A9" stroke-width="2" stroke-linecap="round" stroke-linejoin="round" stroke-miterlimit="10" x1="186.72" y1="98.75" x2="216.76" y2="116.1"/>
		
			<line fill="none" stroke="#0096A9" stroke-width="1.6" stroke-linecap="round" stroke-linejoin="round" stroke-miterlimit="10" x1="218.35" y1="108.81" x2="206.06" y2="109.92"/>
		
			<line fill="none" stroke="#0096A9" stroke-width="2" stroke-linecap="round" stroke-linejoin="round" stroke-miterlimit="10" x1="212.93" y1="103.46" x2="197.32" y2="104.87"/>
		
			<line fill="none" stroke="#0096A9" stroke-width="1.6" stroke-linecap="round" stroke-linejoin="round" stroke-miterlimit="10" x1="211.24" y1="121.12" x2="206.06" y2="109.92"/>
		
			<line fill="none" stroke="#0096A9" stroke-width="2" stroke-linecap="round" stroke-linejoin="round" stroke-miterlimit="10" x1="203.9" y1="119.1" x2="197.32" y2="104.87"/>
		<g>
			
				<line fill="none" stroke="#0096A9" stroke-width="2" stroke-linecap="round" stroke-linejoin="round" stroke-miterlimit="10" x1="186.72" y1="98.75" x2="216.77" y2="81.4"/>
			
				<line fill="none" stroke="#0096A9" stroke-width="1.6" stroke-linecap="round" stroke-linejoin="round" stroke-miterlimit="10" x1="211.24" y1="76.38" x2="206.06" y2="87.58"/>
			
				<line fill="none" stroke="#0096A9" stroke-width="2" stroke-linecap="round" stroke-linejoin="round" stroke-miterlimit="10" x1="203.9" y1="78.4" x2="197.32" y2="92.63"/>
			
				<line fill="none" stroke="#0096A9" stroke-width="1.6" stroke-linecap="round" stroke-linejoin="round" stroke-miterlimit="10" x1="218.35" y1="88.69" x2="206.06" y2="87.58"/>
			
				<line fill="none" stroke="#0096A9" stroke-width="2" stroke-linecap="round" stroke-linejoin="round" stroke-miterlimit="10" x1="212.93" y1="94.04" x2="197.32" y2="92.63"/>
		</g>
		
			<polygon fill="none" stroke="#0096A9" stroke-width="2.298" stroke-linecap="round" stroke-linejoin="round" stroke-miterlimit="10" points="
			186.72,90.65 193.72,94.7 193.72,102.8 186.72,106.85 179.7,102.8 179.7,94.7 		"/>
	</g>
	<g id="Ebene_12_Kopie">
		<path opacity="0.2" fill="#164959" stroke="#FFFFFF" stroke-width="0.6452" stroke-miterlimit="10" d="M-701.69-1714.69V670.55
			h3123.54v-2385.24H-701.69z M1470.34-1051.41c0-9.39,7.61-17.01,17.01-17.01h141.04h109.99c9.39,0,17.01,7.61,17.01,17.01v251.04
			c0,9.39-7.62,17.01-17.01,17.01h-251.04c-9.39,0-17.01-7.61-17.01-17.01V-1051.41z M1470.34-703.22c0-9.39,7.61-17.01,17.01-17.01
			h141.04h109.99c9.39,0,17.01,7.61,17.01,17.01v251.04c0,9.39-7.62,17.01-17.01,17.01h-251.04c-9.39,0-17.01-7.61-17.01-17.01
			V-703.22z M1470.34-327.4c0-9.39,7.61-17.01,17.01-17.01h141.04h109.99c9.39,0,17.01,7.61,17.01,17.01v251.04
			c0,9.39-7.62,17.01-17.01,17.01h-251.04c-9.39,0-17.01-7.61-17.01-17.01V-327.4z M616.93-1047.66v251.04
			c0,9.39-7.61,17.01-17.01,17.01H348.88c-9.39,0-17.01-7.61-17.01-17.01v-251.04c0-9.39,7.61-17.01,17.01-17.01h251.04
			C609.31-1064.67,616.93-1057.05,616.93-1047.66z M250.43-1687.7c126.23,0,228.57,102.33,228.57,228.57
			c0,126.23-102.33,228.57-228.57,228.57c-126.23,0-228.57-102.33-228.57-228.57C21.87-1585.37,124.2-1687.7,250.43-1687.7z
			 M281.69,253.55c0,9.39-7.62,17.01-17.01,17.01H13.64c-9.39,0-17.01-7.61-17.01-17.01V2.52c0-9.39,7.61-17.01,17.01-17.01h141.04
			h109.99c9.39,0,17.01,7.61,17.01,17.01V253.55z M282.69-76.55c0,9.39-7.62,17.01-17.01,17.01H14.64
			c-9.39,0-17.01-7.61-17.01-17.01v-251.04c0-9.39,7.61-17.01,17.01-17.01h141.04h109.99c9.39,0,17.01,7.61,17.01,17.01V-76.55z
			 M-3.16-703.56c0-9.39,7.61-17.01,17.01-17.01h141.04h109.99c9.39,0,17.01,7.61,17.01,17.01v251.04c0,9.39-7.61,17.01-17.01,17.01
			H13.85c-9.39,0-17.01-7.61-17.01-17.01V-703.56z M618.63,626.66c0,9.39-7.62,17.01-17.01,17.01H350.59
			c-9.39,0-17.01-7.61-17.01-17.01V375.62c0-9.39,7.61-17.01,17.01-17.01h141.04h109.99c9.39,0,17.01,7.61,17.01,17.01V626.66z
			 M1755.39,626.04c0,9.39-7.62,17.01-17.01,17.01h-251.04c-9.39,0-17.01-7.61-17.01-17.01V375c0-9.39,7.61-17.01,17.01-17.01
			h141.04h109.99c9.39,0,17.01,7.61,17.01,17.01V626.04z M2417.86,253.21c0,9.39-7.62,17.01-17.01,17.01h-251.04
			c-9.39,0-17.01-7.61-17.01-17.01V2.17c0-9.39,7.62-17.01,17.01-17.01h141.04h109.99c9.39,0,17.01,7.61,17.01,17.01V253.21z
			 M1881.31-1230.56c-126.23,0-228.57-102.33-228.57-228.57c0-126.23,102.33-228.57,228.57-228.57
			c126.23,0,228.57,102.33,228.57,228.57C2109.88-1332.9,2007.55-1230.56,1881.31-1230.56z"/>
		<g>
			<path fill="#0096A9" d="M128.48,95.76c1.5,0,2.71,1.21,2.71,2.71v7.31c0,1.5-1.21,2.71-2.71,2.71s-2.71-1.21-2.71-2.71v-7.31
				C125.77,96.97,126.99,95.76,128.48,95.76z"/>
			<path fill="#0096A9" d="M103.79,98.47v7.31c0,1.5-1.21,2.71-2.71,2.71c-1.5,0-2.71-1.21-2.71-2.71v-7.31
				c0-1.5,1.21-2.71,2.71-2.71C102.57,95.76,103.79,96.97,103.79,98.47z"/>
		</g>
	</g>
</g>
<g id="ANIM">
</g>
<g id="Ebene_14">
</g>
<g id="Ebene_10">
</g>
<g id="Colors">
</g>
<g id="TXT" display="none">
	<g display="inline">
		<polyline fill="none" stroke="#000000" stroke-width="1.0002" stroke-miterlimit="10" points="2723.13,4955.2 3028.86,4955.2 
			3028.86,-2373.1 -1281.57,-2373.1 -1281.57,2994.91 -1752.17,2994.91 -1752.17,2601.61 -7092.82,2601.61 -7092.82,1548.01 
			-6752.83,1548.01 -6752.83,2434.69 -4141.1,2434.69 -4141.1,223.71 -6752.83,223.71 -6752.83,1088.36 -7092.82,1088.36 
			-7092.82,214.01 -13215.75,214.01 -13216.61,5664.33 -11407.56,5664.33 -11407.56,9015.13 -13217.14,9015.13 -13217.52,11425.93 
			3084.35,11425.93 3084.35,11127.03 -153.04,11127.03 -153.04,9017.35 3084.35,9017.35 3084.35,5465.13 -1752.17,5465.13 
			-1752.17,3207.8 -1281.57,3207.8 -1281.57,4955.2 -909.07,4955.2 		"/>
	</g>
	<rect x="26.3" y="185.32" display="inline" fill="none" width="203.19" height="33.07"/>
	
		<text transform="matrix(1 0 0 1 41.0576 213.439)" display="inline" fill="#0096A9" font-family="'Comfortaa-Light'" font-size="36">Cooldown</text>
</g>
<g id="PopUp">
</g>
<g id="_x31_st_x5F_Welcome">
</g>
<g id="Ebene_19">
</g>
<g id="Ebene_22">
</g>
<g id="Icons">
</g>
<g id="Ebene_21">
</g>
</svg>
