<?xml version="1.0" encoding="utf-8"?>
<!-- Generator: Adobe Illustrator 16.0.0, SVG Export Plug-In . SVG Version: 6.00 Build 0)  -->
<!DOCTYPE svg PUBLIC "-//W3C//DTD SVG 1.1//EN" "http://www.w3.org/Graphics/SVG/1.1/DTD/svg11.dtd">
<svg version="1.1" xmlns="http://www.w3.org/2000/svg" xmlns:xlink="http://www.w3.org/1999/xlink" x="0px" y="0px" width="261px"
	 height="261px" viewBox="0 0 261 261" enable-background="new 0 0 261 261" xml:space="preserve">
<g id="DESIGN_x5F_Master">
	<g id="Screens">
	</g>
	<path fill="#0096A9" d="M68.2,167.54c0-4.29,0-36.4,0-36.4c0-9.45,6.83-19.5,19.5-19.5h33.59c1.38,0,2.5-1.12,2.5-2.5v-0.48
		c0-1.2-0.86-2.23-2.04-2.46c-10.71-2.01-17.37-11.42-17.37-24.56c0-0.44,0.01-0.87,0.04-1.3c0.01-0.18,0-0.36-0.04-0.54V54.57
		c0.03-0.18,0.04-0.37,0.04-0.56c-0.02-0.43-0.04-0.86-0.04-1.3c0-13.78,11.21-25,25-25c13.79,0,25,11.22,25,25
		c0,0.44-0.01,0.87-0.03,1.3c0,0.04,0,0.08,0,0.12l0,26.07c0,0.04,0,0.09,0,0.13c0.02,0.43,0.03,0.86,0.03,1.3
		c0,12.98-6.19,22.1-16.56,24.4c-1.14,0.25-1.96,1.27-1.96,2.44v0.66c0,1.38,1.12,2.5,2.5,2.5h32.71c7.28,0,19.5,2.53,19.5,19.5
		c0,0-0.01,33.02,0,36.4c0.01,3.38,5,3.65,5,0c0-3.65,0-36.4,0-36.4c0-15.34-9.16-24.5-24.5-24.5h-22.69c6.96-5.17,11-14.04,11-25
		c0-0.5-0.01-1-0.04-1.49l0-25.95c0.03-0.5,0.04-0.99,0.04-1.49c0-16.54-13.46-30-30-30c-16.54,0-30,13.46-30,30
		c0,0.37,0.01,0.74,0.02,1.11c-0.01,0.11-0.02,0.21-0.02,0.32v26.07c0,0.11,0.01,0.21,0.02,0.32c-0.01,0.37-0.02,0.74-0.02,1.11
		c0,11,4.04,19.84,11,25H87.7c-15.91,0-24.5,12.62-24.5,24.5c0,0,0,32.52,0,36.4C63.2,171.42,68.2,171.82,68.2,167.54z"/>
	<rect x="35.4" y="184.86" fill="none" width="190.19" height="33.07"/>
	
		<text transform="matrix(1 0 0 1 53.5078 212.9712)" display="none" fill="#0096A9" font-family="'Comfortaa-Light'" font-size="36">Time out</text>
	<path fill="#0096A9" d="M170.14,131c-0.34-0.28-0.79-0.4-1.23-0.32l-31.3,5.76c10.96-3.98,18.28-5.7,27.59-5.7c0.55,0,1-0.45,1-1
		s-0.45-1-1-1c-11.6,0-20.11,2.56-35.8,8.66c-15.7-6.1-24.21-8.66-35.8-8.66c-0.55,0-1,0.45-1,1s0.45,1,1,1
		c9.31,0,16.63,1.72,27.59,5.7l-31.3-5.76c-0.43-0.08-0.89,0.04-1.23,0.32s-0.54,0.71-0.54,1.15v37.39c0,0.83,0.67,1.5,1.5,1.5
		s1.5-0.67,1.5-1.5v-35.59l34.29,6.31v34.76c0,2.21,1.79,4,4,4s4-1.79,4-4v-34.76l34.29-6.31v35.59c0,0.83,0.67,1.5,1.5,1.5
		s1.5-0.67,1.5-1.5v-37.39C170.68,131.71,170.48,131.28,170.14,131z"/>
</g>
<g id="Ebene_7">
</g>
<g id="Startbildschirm_x5F_UIX">
</g>
<g id="STRUKTUR">
</g>
<g id="Ebene_5">
</g>
<g id="Ebene_6">
</g>
</svg>
