<?xml version="1.0" encoding="utf-8"?>
<!-- Generator: Adobe Illustrator 16.0.0, SVG Export Plug-In . SVG Version: 6.00 Build 0)  -->
<!DOCTYPE svg PUBLIC "-//W3C//DTD SVG 1.1//EN" "http://www.w3.org/Graphics/SVG/1.1/DTD/svg11.dtd">
<svg version="1.1" xmlns="http://www.w3.org/2000/svg" xmlns:xlink="http://www.w3.org/1999/xlink" x="0px" y="0px" width="261px"
	 height="261px" viewBox="0 0 261 261" enable-background="new 0 0 261 261" xml:space="preserve">
<g id="DESIGN_x5F_Master">
	<g id="Screens">
	</g>
	<g>
		<path fill="#0096A9" d="M63.47,165.81c0-0.17,0.01-0.34,0.01-0.51C63.48,165.17,63.47,165.81,63.47,165.81z"/>
		<path fill="#0096A9" d="M195.83,165.38c0,0.15,0.02,0.28,0.02,0.43C195.84,165.81,195.84,165.59,195.83,165.38z"/>
		<path fill="#0096A9" d="M195.83,165.38c-0.05-3.97-0.72-7.5-1.95-10.57l1.53-1.79c0.24-0.28,0.3-0.66,0.17-1
			c-0.05-0.14-1.39-3.58-6.28-7.69c-5.24-4.4-10.57-4.63-13.43-4.75c-4.09-0.17-15.64-0.13-16.13-0.13c-0.17,0-0.33,0.04-0.48,0.12
			l-3.16,1.74h-7.45c6.96-5.17,11-14.04,11-25c0-0.39,0-17.33,0-25.1c0.37-0.04,0.72-0.21,0.98-0.5c6.37-7.4,9.88-16.86,9.88-26.62
			c0-22.53-18.33-40.85-40.85-40.85c-22.53,0-40.85,18.33-40.85,40.85c0,9.76,3.51,19.22,9.88,26.62c0.25,0.29,0.6,0.45,0.97,0.5
			v23.68c0,0.11,0.01,0.21,0.02,0.32c-0.01,0.37-0.02,0.74-0.02,1.11c0,11,4.03,19.84,11,25H87.97c-15.68,0-24.24,12.26-24.49,23.99
			c0,0.09,0,0.56-0.01,1.92c-0.03,3.28,4.86,3.72,5,0c0.14-3.72,0-1.4,0-1.4c0-9.45,6.83-19.5,19.5-19.5h33.59
			c1.38,0,2.5-1.12,2.5-2.5v-0.48c0-1.2-0.85-2.23-2.04-2.46c-10.71-2.01-17.37-11.42-17.37-24.56c0-0.44,0.01-0.87,0.03-1.3
			c0.01-0.18,0-0.36-0.03-0.54c0,0,0-26.65,0-27.09c0-0.23,0.01-0.47,0.02-0.7h49.96c0.01,0.23,0.02,0.46,0.02,0.7
			c0,0.44,0,28.49,0,28.93c0,12.98-6.19,22.1-16.56,24.4c-1.14,0.25-1.96,1.27-1.96,2.44v0.66c0,1.38,1.12,2.5,2.5,2.5h8.38
			l-45.72,25.17c-0.48,0.27-0.66,0.87-0.39,1.36c0.18,0.33,0.52,0.52,0.88,0.52c0.16,0,0.33-0.04,0.48-0.12L160,141.45
			c1.75-0.01,12.07-0.03,15.78,0.12c3.63,0.15,7.88,0.62,12.23,4.28c3.39,2.85,4.91,5.33,5.45,6.36l-15.82,18.61
			c-0.36,0.42-0.31,1.05,0.11,1.41c0.42,0.36,1.05,0.31,1.41-0.11l10.94-12.87c0.47,1.91,0.74,4.08,0.74,6.57c0,0-0.09-2.72,0,1.4
			c0.09,4.12,5.09,3.91,5,0C195.78,164.46,195.81,164.89,195.83,165.38z M91.8,64.09c0-20.87,16.98-37.85,37.85-37.85
			c14.29,0,26.76,7.97,33.2,19.69L93.17,74.04C92.28,70.82,91.8,67.47,91.8,64.09z M99.82,83.69c-0.83,0-1.5,0.67-1.5,1.5v0.12
			c-1.96-2.89-3.49-6.04-4.58-9.34l70.04-28.25c2.39,4.96,3.73,10.51,3.73,16.37c0,7.59-2.29,14.98-6.51,21.22v-0.11
			c0-0.83-0.67-1.5-1.5-1.5H99.82z"/>
	</g>
</g>
<g id="Ebene_7">
</g>
<g id="Startbildschirm_x5F_UIX">
</g>
<g id="STRUKTUR">
</g>
<g id="Ebene_5">
</g>
<g id="Ebene_6">
</g>
</svg>
