<?xml version="1.0" encoding="utf-8"?>
<!-- Generator: Adobe Illustrator 16.0.0, SVG Export Plug-In . SVG Version: 6.00 Build 0)  -->
<!DOCTYPE svg PUBLIC "-//W3C//DTD SVG 1.1//EN" "http://www.w3.org/Graphics/SVG/1.1/DTD/svg11.dtd">
<svg version="1.1" xmlns="http://www.w3.org/2000/svg" xmlns:xlink="http://www.w3.org/1999/xlink" x="0px" y="0px" width="260px"
	 height="260px" viewBox="0 0 260 260" enable-background="new 0 0 260 260" xml:space="preserve">
<g id="DESIGN_x5F_Master">
	<g id="Screens">
	</g>
	<rect x="26.83" y="184.71" fill="none" width="204.33" height="33.07"/>
	
		<text transform="matrix(1 0 0 1 34.4287 212.8208)" display="none" fill="#0096A9" font-family="'Comfortaa-Light'" font-size="36">Circulation</text>
	<path fill="#0096A9" d="M157.68,146.53l-9.63-9.43l-4.4,12.41l5.52-1.17c0.05,0.55,0.08,1.1,0.08,1.66
		c0,10.67-8.68,19.36-19.35,19.36c-10.67,0-19.36-8.68-19.36-19.36s8.68-19.35,19.36-19.35c3.4,0,6.6,0.89,9.39,2.45
		c0.71-0.71,1.41-1.46,2-2.27c-3.34-1.99-7.23-3.14-11.39-3.14c-12.31,0-22.32,10.01-22.32,22.32c0,12.31,10.01,22.32,22.32,22.32
		c12.3,0,22.32-10.01,22.32-22.32c0-0.77-0.05-1.53-0.13-2.28L157.68,146.53z"/>
	<path fill="#0096A9" d="M68.81,167.39c0-4.29,0-36.4,0-36.4c0-9.45,6.83-19.5,19.5-19.5h33.59c1.38,0,2.5-1.12,2.5-2.5v-0.48
		c0-1.2-0.86-2.23-2.04-2.46C111.65,104.04,105,94.63,105,81.48c0-0.44,0.01-0.87,0.04-1.3c0.01-0.18,0-0.36-0.04-0.54V54.42
		c0.03-0.18,0.04-0.37,0.04-0.56c-0.02-0.43-0.04-0.86-0.04-1.3c0-13.79,11.22-25,25-25c13.79,0,25,11.21,25,25
		c0,0.44-0.01,0.87-0.03,1.31c0,0.04,0,0.08,0,0.12v26.07c0,0.04,0,0.09,0,0.13c0.02,0.43,0.03,0.86,0.03,1.3
		c0,12.98-6.19,22.1-16.56,24.4c-1.14,0.25-1.96,1.27-1.96,2.44v0.66c0,1.38,1.12,2.5,2.5,2.5h32.71c7.28,0,19.5,2.53,19.5,19.5
		c0,0-0.01,33.02,0,36.4c0.01,3.38,5,3.65,5,0s0-36.4,0-36.4c0-15.34-9.16-24.5-24.5-24.5H149c6.96-5.17,11-14.04,11-25
		c0-0.5-0.01-1-0.04-1.49V54.05c0.02-0.5,0.04-0.99,0.04-1.49c0-16.54-13.46-30-30-30c-16.54,0-30,13.46-30,30
		c0,0.37,0.01,0.74,0.02,1.11c-0.01,0.11-0.02,0.21-0.02,0.32v26.07c0,0.11,0.01,0.21,0.02,0.32c-0.01,0.37-0.02,0.74-0.02,1.11
		c0,11,4.04,19.84,11,25H88.31c-15.91,0-24.5,12.62-24.5,24.5c0,0,0,32.52,0,36.4C63.81,171.27,68.81,171.67,68.81,167.39z"/>
</g>
<g id="Ebene_7">
</g>
<g id="Startbildschirm_x5F_UIX">
</g>
<g id="STRUKTUR">
</g>
<g id="Ebene_5">
</g>
<g id="Ebene_6">
</g>
</svg>
