<?xml version="1.0" encoding="utf-8"?>
<!-- Generator: Adobe Illustrator 16.0.0, SVG Export Plug-In . SVG Version: 6.00 Build 0)  -->
<!DOCTYPE svg PUBLIC "-//W3C//DTD SVG 1.1//EN" "http://www.w3.org/Graphics/SVG/1.1/DTD/svg11.dtd">
<svg version="1.1" xmlns="http://www.w3.org/2000/svg" xmlns:xlink="http://www.w3.org/1999/xlink" x="0px" y="0px" width="261px"
	 height="261px" viewBox="0 0 261 261" enable-background="new 0 0 261 261" xml:space="preserve">
<g id="DESIGN_x5F_Master">
	<g id="Screens">
	</g>
</g>
<g id="Batterystatus">
</g>
<g id="Startbildschirm_x5F_UIX">
</g>
<g id="STRUKTUR">
</g>
<g id="Inakt_x2F_Purch">
</g>
<g id="rest">
</g>
<g id="Programm-Icons" display="none">
	<path display="inline" fill="#FFFFFF" stroke="#106873" stroke-width="2" stroke-miterlimit="10" d="M259.44,130.5
		c0,71.21-57.73,128.94-128.94,128.94c-71.22,0-128.94-57.73-128.94-128.94C1.56,59.29,59.28,1.56,130.5,1.56
		C201.71,1.56,259.44,59.29,259.44,130.5z"/>
	<path display="inline" fill="#0096A9" d="M68.2,175.3c0.07-3.01,0-8.82,0-8.82c0-9.45,6.83-19.5,19.5-19.5h33.6
		c1.38,0,2.5-1.12,2.5-2.5V144c0-1.2-0.86-2.23-2.04-2.46c-10.71-2.01-17.37-11.42-17.37-24.56c0-0.44,0-28.5,0-28.93
		c0-13.78,11.22-25,25-25c13.79,0,25,11.22,25,25c0,0.44,0,28.49,0,28.93c0,12.97-6.19,22.1-16.56,24.4
		c-1.14,0.25-1.96,1.27-1.96,2.44v0.66c0,1.38,1.12,2.5,2.5,2.5h32.7c7.28,0,19.5,2.53,19.5,19.5c0,0,0.06,5.79,0,8.82
		c0,3.42,5.1,3.37,5,0c-0.02-2.56,0-8.82,0-8.82c0-15.34-9.16-24.5-24.5-24.5h-22.69c6.96-5.17,11-14.05,11-25
		c0-0.5,0-28.43,0-28.93c0-16.54-13.46-30-30-30c-16.54,0-30,13.46-30,30c0,0.37,0,28.56,0,28.93c0,11,4.04,19.84,11,25H87.7
		c-15.91,0-24.5,12.62-24.5,24.5c0,0,0,4.64,0,8.82C63.2,178.85,68.13,178.31,68.2,175.3z"/>
	<path display="inline" fill="none" stroke="#0096A9" stroke-width="2.5" stroke-miterlimit="10" d="M165.95,27.76
		c1.11,4.24-14.37,11.94-34.57,17.19c-20.19,5.26-37.46,6.09-38.56,1.85c-1.1-4.24,14.37-11.93,34.57-17.19
		C147.58,24.35,164.85,23.52,165.95,27.76z"/>
	<path display="inline" fill="none" stroke="#0096A9" stroke-width="2.5" stroke-miterlimit="10" d="M150.49,23.13
		c0.67,2.56-8.69,7.21-20.89,10.39c-12.2,3.18-22.64,3.68-23.31,1.12c-0.66-2.56,8.69-7.21,20.89-10.39
		C139.38,21.07,149.82,20.57,150.49,23.13z"/>
	<g display="inline">
		<path fill="#0096A9" d="M192.55,56.96h-6.6l4.67-4.67c0.43-0.43,0.43-1.13,0-1.56c-0.43-0.43-1.13-0.43-1.55,0l-4.67,4.67v-6.6
			c0-0.61-0.49-1.1-1.1-1.1s-1.1,0.49-1.1,1.1v6.6l-4.67-4.67c-0.43-0.43-1.13-0.43-1.56,0c-0.43,0.43-0.43,1.13,0,1.56l4.67,4.67
			h-6.6c-0.61,0-1.1,0.49-1.1,1.1s0.49,1.1,1.1,1.1h6.6l-4.67,4.67c-0.43,0.43-0.43,1.13,0,1.56c0.22,0.21,0.5,0.32,0.78,0.32
			s0.56-0.11,0.78-0.32l4.67-4.67v6.6c0,0.61,0.49,1.1,1.1,1.1s1.1-0.49,1.1-1.1v-6.6l4.67,4.67c0.21,0.21,0.5,0.32,0.78,0.32
			s0.56-0.11,0.78-0.32c0.43-0.43,0.43-1.13,0-1.56l-4.67-4.67h6.6c0.61,0,1.1-0.49,1.1-1.1S193.16,56.96,192.55,56.96z"/>
		<path fill="#0096A9" d="M78.66,121.13h-6.6l4.67-4.67c0.43-0.43,0.43-1.13,0-1.56c-0.43-0.43-1.13-0.43-1.56,0l-4.67,4.67v-6.6
			c0-0.61-0.49-1.1-1.1-1.1s-1.1,0.49-1.1,1.1v6.6l-4.67-4.67c-0.43-0.43-1.13-0.43-1.56,0c-0.43,0.43-0.43,1.13,0,1.56l4.67,4.67
			h-6.6c-0.61,0-1.1,0.49-1.1,1.1c0,0.61,0.49,1.1,1.1,1.1h6.6L62.08,128c-0.43,0.43-0.43,1.13,0,1.56c0.21,0.21,0.5,0.32,0.78,0.32
			s0.56-0.11,0.78-0.32l4.67-4.67v6.6c0,0.61,0.49,1.1,1.1,1.1s1.1-0.49,1.1-1.1v-6.6l4.67,4.67c0.21,0.21,0.5,0.32,0.78,0.32
			c0.28,0,0.56-0.11,0.78-0.32c0.43-0.43,0.43-1.13,0-1.56l-4.67-4.67h6.61c0.61,0,1.1-0.49,1.1-1.1
			C79.76,121.62,79.27,121.13,78.66,121.13z"/>
	</g>
	<g display="inline">
	</g>
	<g id="Ebene_12" display="inline">
	</g>
	<g id="Wording">
		<rect x="44.4" y="185.2" display="inline" fill="none" width="174.2" height="33.07"/>
		
			<text transform="matrix(1 0 0 1 45.7168 213.3193)" display="inline" fill="#0096A9" font-family="'Comfortaa-Light'" font-size="36">Hangover</text>
	</g>
</g>
<g id="Programm-Icons_Kopie">
	<path fill="#FFFFFF" stroke="#106873" stroke-width="2" stroke-miterlimit="10" d="M259.44,130.5
		c0,71.21-57.73,128.94-128.94,128.94c-71.22,0-128.94-57.73-128.94-128.94C1.56,59.29,59.28,1.56,130.5,1.56
		C201.71,1.56,259.44,59.29,259.44,130.5z"/>
	<path fill="#0096A9" d="M68.2,167.89c0.07-3.01,0-1.4,0-1.4c0-9.45,6.83-19.5,19.5-19.5h33.6c1.38,0,2.5-1.12,2.5-2.5V144
		c0-1.2-0.86-2.23-2.04-2.46c-10.71-2.01-17.37-11.42-17.37-24.56c0-0.44,0.01-0.87,0.04-1.3c0.01-0.18-0.01-0.36-0.04-0.54V89.91
		c0.03-0.18,0.05-0.37,0.04-0.56c-0.02-0.43-0.04-0.87-0.04-1.3c0-13.78,11.22-25,25-25c13.79,0,25,11.22,25,25
		c0,0.44-0.01,0.87-0.03,1.3c0,0.04,0,0.08,0,0.13v26.07c0,0.04,0,0.09,0,0.13c0.02,0.43,0.03,0.86,0.03,1.3
		c0,12.97-6.19,22.1-16.56,24.4c-1.14,0.25-1.96,1.27-1.96,2.44v0.66c0,1.38,1.12,2.5,2.5,2.5h32.7c7.28,0,19.5,2.53,19.5,19.5
		c0,0,0.06-1.63,0,1.4c0,3.43,5.1,3.37,5,0c-0.02-2.56,0-1.4,0-1.4c0-15.34-9.16-24.5-24.5-24.5h-22.69c6.96-5.17,11-14.05,11-25
		c0-0.5-0.01-1-0.04-1.49V89.55c0.03-0.49,0.04-0.99,0.04-1.49c0-16.54-13.46-30-30-30c-16.54,0-30,13.46-30,30
		c0,0.37,0.01,0.74,0.02,1.11c-0.01,0.1-0.02,0.21-0.02,0.32v26.07c0,0.11,0.01,0.21,0.02,0.32c-0.01,0.37-0.02,0.74-0.02,1.11
		c0,11,4.04,19.84,11,25H87.7c-15.91,0-24.5,12.62-24.5,24.5c0,0,0-2.78,0,1.4C63.2,171.44,68.13,170.89,68.2,167.89z"/>
	<path fill="none" stroke="#0096A9" stroke-width="2.5" stroke-miterlimit="10" d="M165.95,27.76c1.11,4.24-14.37,11.94-34.57,17.19
		c-20.19,5.26-37.46,6.09-38.56,1.85c-1.1-4.24,14.37-11.93,34.57-17.19C147.58,24.35,164.85,23.52,165.95,27.76z"/>
	<path fill="none" stroke="#0096A9" stroke-width="2.5" stroke-miterlimit="10" d="M150.49,23.13c0.67,2.56-8.69,7.21-20.89,10.39
		c-12.2,3.18-22.64,3.68-23.31,1.12c-0.66-2.56,8.69-7.21,20.89-10.39C139.38,21.07,149.82,20.57,150.49,23.13z"/>
	<g>
		
			<line fill="none" stroke="#0096A9" stroke-width="2.2" stroke-linecap="round" stroke-linejoin="round" stroke-miterlimit="10" x1="183.29" y1="48.8" x2="183.29" y2="67.32"/>
		
			<line fill="none" stroke="#0096A9" stroke-width="2.2" stroke-linecap="round" stroke-linejoin="round" stroke-miterlimit="10" x1="174.03" y1="58.06" x2="192.55" y2="58.06"/>
		
			<line fill="none" stroke="#0096A9" stroke-width="2.2" stroke-linecap="round" stroke-linejoin="round" stroke-miterlimit="10" x1="176.74" y1="64.6" x2="189.84" y2="51.51"/>
		
			<line fill="none" stroke="#0096A9" stroke-width="2.2" stroke-linecap="round" stroke-linejoin="round" stroke-miterlimit="10" x1="176.74" y1="51.51" x2="189.83" y2="64.6"/>
	</g>
	<g>
		
			<line fill="none" stroke="#0096A9" stroke-width="2.2" stroke-linecap="round" stroke-linejoin="round" stroke-miterlimit="10" x1="69.4" y1="112.97" x2="69.4" y2="131.49"/>
		
			<line fill="none" stroke="#0096A9" stroke-width="2.2" stroke-linecap="round" stroke-linejoin="round" stroke-miterlimit="10" x1="60.14" y1="122.23" x2="78.66" y2="122.23"/>
		
			<line fill="none" stroke="#0096A9" stroke-width="2.2" stroke-linecap="round" stroke-linejoin="round" stroke-miterlimit="10" x1="62.86" y1="128.78" x2="75.95" y2="115.68"/>
		
			<line fill="none" stroke="#0096A9" stroke-width="2.2" stroke-linecap="round" stroke-linejoin="round" stroke-miterlimit="10" x1="62.85" y1="115.68" x2="75.95" y2="128.78"/>
	</g>
	<g>
	</g>
	<g id="Ebene_12_Kopie">
		<path opacity="0.2" fill="#164959" stroke="#FFFFFF" stroke-width="0.6452" stroke-miterlimit="10" d="M-1037.9-2086.81V298.43
			h3123.54v-2385.24H-1037.9z M1134.13-1423.53c0-9.39,7.61-17.01,17.01-17.01h141.04h109.99c9.39,0,17.01,7.61,17.01,17.01v251.04
			c0,9.39-7.62,17.01-17.01,17.01h-251.04c-9.39,0-17.01-7.61-17.01-17.01V-1423.53z M1134.13-1075.34
			c0-9.39,7.61-17.01,17.01-17.01h141.04h109.99c9.39,0,17.01,7.61,17.01,17.01v251.04c0,9.39-7.62,17.01-17.01,17.01h-251.04
			c-9.39,0-17.01-7.61-17.01-17.01V-1075.34z M1134.13-699.52c0-9.39,7.61-17.01,17.01-17.01h141.04h109.99
			c9.39,0,17.01,7.61,17.01,17.01v251.04c0,9.39-7.62,17.01-17.01,17.01h-251.04c-9.39,0-17.01-7.61-17.01-17.01V-699.52z
			 M280.71-1419.78v251.04c0,9.39-7.61,17.01-17.01,17.01H12.67c-9.39,0-17.01-7.61-17.01-17.01v-251.04
			c0-9.39,7.61-17.01,17.01-17.01h251.04C273.1-1436.79,280.71-1429.17,280.71-1419.78z M-85.78-2059.82
			c126.23,0,228.57,102.33,228.57,228.57c0,126.23-102.33,228.57-228.57,228.57c-126.23,0-228.57-102.33-228.57-228.57
			C-314.34-1957.49-212.01-2059.82-85.78-2059.82z M-54.53-118.57c0,9.39-7.62,17.01-17.01,17.01h-251.04
			c-9.39,0-17.01-7.61-17.01-17.01V-369.6c0-9.39,7.61-17.01,17.01-17.01h141.04h109.99c9.39,0,17.01,7.61,17.01,17.01V-118.57z
			 M-53.53-448.67c0,9.39-7.62,17.01-17.01,17.01h-251.04c-9.39,0-17.01-7.61-17.01-17.01V-699.7c0-9.39,7.61-17.01,17.01-17.01
			h141.04h109.99c9.39,0,17.01,7.61,17.01,17.01V-448.67z M-339.37-1075.68c0-9.39,7.61-17.01,17.01-17.01h141.04h109.99
			c9.39,0,17.01,7.61,17.01,17.01v251.04c0,9.39-7.61,17.01-17.01,17.01h-251.04c-9.39,0-17.01-7.61-17.01-17.01V-1075.68z
			 M282.42,254.54c0,9.39-7.62,17.01-17.01,17.01H14.38c-9.39,0-17.01-7.61-17.01-17.01V3.51c0-9.39,7.61-17.01,17.01-17.01h141.04
			h109.99c9.39,0,17.01,7.61,17.01,17.01V254.54z M1419.18,253.92c0,9.39-7.62,17.01-17.01,17.01h-251.04
			c-9.39,0-17.01-7.61-17.01-17.01V2.88c0-9.39,7.61-17.01,17.01-17.01h141.04h109.99c9.39,0,17.01,7.61,17.01,17.01V253.92z
			 M2081.65-118.91c0,9.39-7.62,17.01-17.01,17.01H1813.6c-9.39,0-17.01-7.61-17.01-17.01v-251.04c0-9.39,7.62-17.01,17.01-17.01
			h141.04h109.99c9.39,0,17.01,7.61,17.01,17.01V-118.91z M1545.1-1602.68c-126.23,0-228.57-102.33-228.57-228.57
			c0-126.23,102.33-228.57,228.57-228.57c126.23,0,228.57,102.33,228.57,228.57C1773.67-1705.02,1671.34-1602.68,1545.1-1602.68z"/>
		<path fill="#0096A9" d="M147,103.97l-2.38-2.32l2.38-2.32c0.42-0.41,0.45-1.12,0.06-1.57c-0.39-0.45-1.05-0.48-1.47-0.07
			l-2.51,2.45l-2.5-2.45c-0.42-0.41-1.08-0.39-1.47,0.07c-0.39,0.45-0.36,1.15,0.06,1.57l2.37,2.32l-2.37,2.32
			c-0.42,0.42-0.45,1.12-0.06,1.57c0.2,0.24,0.48,0.36,0.76,0.36c0.25,0,0.5-0.1,0.71-0.29l2.5-2.45l2.5,2.45
			c0.2,0.2,0.45,0.29,0.7,0.29c0.28,0,0.56-0.12,0.77-0.36C147.46,105.08,147.43,104.38,147,103.97z"/>
		<path fill="#0096A9" d="M119.59,103.97l-2.38-2.32l2.38-2.32c0.42-0.41,0.45-1.12,0.06-1.57c-0.39-0.45-1.05-0.48-1.47-0.07
			l-2.51,2.45l-2.5-2.45c-0.42-0.41-1.08-0.39-1.47,0.07c-0.39,0.45-0.36,1.15,0.06,1.57l2.37,2.32l-2.37,2.32
			c-0.42,0.42-0.45,1.12-0.06,1.57c0.2,0.24,0.48,0.36,0.76,0.36c0.25,0,0.5-0.1,0.71-0.29l2.5-2.45l2.5,2.45
			c0.2,0.2,0.45,0.29,0.7,0.29c0.28,0,0.56-0.12,0.77-0.36C120.05,105.08,120.02,104.38,119.59,103.97z"/>
	</g>
</g>
<g id="ANIM">
</g>
<g id="Ebene_14">
</g>
<g id="Ebene_10">
</g>
<g id="Colors">
</g>
<g id="TXT" display="none">
	<g display="inline">
		<polyline fill="none" stroke="#000000" stroke-width="1.0002" stroke-miterlimit="10" points="2386.92,4583.08 2692.65,4583.08 
			2692.65,-2745.22 -1617.78,-2745.22 -1617.78,2622.79 -2088.38,2622.79 -2088.38,2229.49 -7429.03,2229.49 -7429.03,1175.89 
			-7089.04,1175.89 -7089.04,2062.57 -4477.31,2062.57 -4477.31,-148.41 -7089.04,-148.41 -7089.04,716.24 -7429.03,716.24 
			-7429.03,-158.11 -13551.96,-158.11 -13552.82,5292.21 -11743.77,5292.21 -11743.77,8643.01 -13553.35,8643.01 
			-13553.73,11053.81 2748.14,11053.81 2748.14,10754.91 -489.26,10754.91 -489.26,8645.23 2748.14,8645.23 2748.14,5093.01 
			-2088.38,5093.01 -2088.38,2835.68 -1617.78,2835.68 -1617.78,4583.08 -1245.28,4583.08 		"/>
	</g>
	<rect x="44.4" y="185.2" display="inline" fill="none" width="174.2" height="33.07"/>
	
		<text transform="matrix(1 0 0 1 45.7168 213.3193)" display="inline" fill="#0096A9" font-family="'Comfortaa-Light'" font-size="36">Hangover</text>
</g>
<g id="PopUp">
</g>
<g id="_x31_st_x5F_Welcome">
</g>
<g id="Ebene_19">
</g>
<g id="Ebene_22">
</g>
<g id="Icons">
</g>
<g id="Ebene_21">
</g>
</svg>
