<?xml version="1.0" encoding="utf-8"?>
<!-- Generator: Adobe Illustrator 16.0.0, SVG Export Plug-In . SVG Version: 6.00 Build 0)  -->
<!DOCTYPE svg PUBLIC "-//W3C//DTD SVG 1.1//EN" "http://www.w3.org/Graphics/SVG/1.1/DTD/svg11.dtd">
<svg version="1.1" xmlns="http://www.w3.org/2000/svg" xmlns:xlink="http://www.w3.org/1999/xlink" x="0px" y="0px" width="261px"
	 height="261px" viewBox="0 0 261 261" enable-background="new 0 0 261 261" xml:space="preserve">
<g id="DESIGN_x5F_Master">
	<g id="Screens">
	</g>
</g>
<g id="Batterystatus">
</g>
<g id="Startbildschirm_x5F_UIX">
</g>
<g id="STRUKTUR">
</g>
<g id="Inakt_x2F_Purch">
</g>
<g id="rest">
</g>
<g id="Programm-Icons" display="none">
	<g display="inline">
	</g>
	<g id="Ebene_12" display="inline">
	</g>
	<g id="powernap_x5F_01" display="inline">
		<path fill="#FFFFFF" stroke="#106873" stroke-width="2" stroke-miterlimit="10" d="M259.44,130.5
			c0,71.21-57.73,128.94-128.94,128.94c-71.22,0-128.94-57.73-128.94-128.94C1.56,59.29,59.28,1.56,130.5,1.56
			C201.71,1.56,259.44,59.29,259.44,130.5z"/>
		<path fill="#0096A9" d="M57.19,175.3c0-3.01,0-8.82,0-8.82c0-9.45,6.84-19.5,19.5-19.5h33.6c1.38,0,2.5-1.12,2.5-2.5v-0.48
			c0-1.2-0.86-2.23-2.04-2.46c-10.71-2.01-17.37-11.42-17.37-24.56c0-0.44,0-28.5,0-28.93c0-13.78,11.22-25,25-25
			c13.79,0,25,11.22,25,25c0,0.44,0,28.49,0,28.93c0,12.97-6.19,22.1-16.56,24.4c-1.14,0.25-1.95,1.27-1.95,2.44v0.66
			c0,1.38,1.12,2.5,2.5,2.5h32.7c7.28,0,19.5,2.53,19.5,19.5c0,0,0,5.79,0,8.82c0,3.45,5,3.41,5,0c0-2.56,0-8.82,0-8.82
			c0-15.34-9.16-24.5-24.5-24.5h-22.69c6.96-5.17,11-14.05,11-25c0-0.5,0-28.43,0-28.93c0-16.54-13.46-30-30-30
			c-16.54,0-30,13.46-30,30c0,0.37,0,28.56,0,28.93c0,11,4.04,19.84,11,25H76.69c-15.91,0-24.5,12.62-24.5,24.5c0,0,0,4.64,0,8.82
			C52.2,178.85,57.19,178.87,57.19,175.3z"/>
		<path fill="#0096A9" d="M173.84,125.59c-0.27-0.28-0.6-0.41-0.99-0.41h-9.49l10.57-12.62c0.23-0.26,0.34-0.57,0.34-0.94
			c0-0.19-0.04-0.36-0.11-0.53c-0.08-0.18-0.18-0.33-0.31-0.46c-0.13-0.13-0.27-0.23-0.44-0.3c-0.17-0.07-0.36-0.11-0.56-0.11
			h-12.48c-0.38,0-0.7,0.14-0.98,0.41c-0.28,0.28-0.41,0.6-0.41,1c0,0.4,0.14,0.73,0.41,1.01c0.28,0.28,0.6,0.41,0.98,0.41h9.45
			l-10.58,12.69c-0.18,0.24-0.28,0.53-0.28,0.88c0,0.19,0.04,0.37,0.11,0.54c0.08,0.18,0.18,0.33,0.3,0.46
			c0.13,0.13,0.27,0.23,0.45,0.3c0.17,0.07,0.36,0.11,0.56,0.11h12.48c0.39,0,0.71-0.13,0.99-0.41s0.41-0.61,0.41-1.01
			C174.24,126.19,174.11,125.87,173.84,125.59z"/>
		<path fill="#0096A9" d="M198.69,120.77c-0.34-0.34-0.74-0.51-1.23-0.51h-11.29l12.64-15.1c0.29-0.32,0.43-0.7,0.43-1.17
			c0-0.23-0.05-0.46-0.14-0.67c-0.1-0.22-0.23-0.41-0.39-0.58c-0.15-0.16-0.34-0.29-0.55-0.38c-0.21-0.09-0.44-0.13-0.69-0.13
			h-15.02c-0.48,0-0.88,0.17-1.22,0.52c-0.35,0.35-0.52,0.76-0.52,1.24c0,0.5,0.17,0.91,0.52,1.26c0.35,0.35,0.75,0.52,1.22,0.52
			h11.25l-12.66,15.18c-0.23,0.31-0.35,0.67-0.35,1.09c0,0.24,0.04,0.46,0.13,0.67c0.09,0.22,0.21,0.41,0.38,0.57
			c0.16,0.16,0.34,0.29,0.55,0.38c0.21,0.09,0.44,0.13,0.69,0.13h15.02c0.49,0,0.89-0.17,1.23-0.51c0.34-0.35,0.51-0.76,0.51-1.26
			C199.2,121.52,199.03,121.12,198.69,120.77z"/>
		<g>
			<path fill="#0096A9" d="M225.72,115.25c-0.41-0.42-0.89-0.62-1.48-0.62h-13.11l14.74-17.6c0.34-0.39,0.51-0.85,0.51-1.41
				c0-0.28-0.06-0.55-0.17-0.8c-0.12-0.26-0.27-0.5-0.46-0.69c-0.19-0.19-0.41-0.35-0.67-0.46c-0.26-0.11-0.54-0.16-0.83-0.16h-17.6
				c-0.57,0-1.05,0.2-1.47,0.62c-0.42,0.42-0.62,0.9-0.62,1.49c0,0.6,0.2,1.1,0.62,1.52c0.42,0.42,0.9,0.62,1.47,0.62h13.07
				l-14.76,17.7c-0.28,0.37-0.42,0.81-0.42,1.31c0,0.29,0.05,0.56,0.16,0.81c0.11,0.27,0.26,0.49,0.45,0.69
				c0.19,0.2,0.41,0.35,0.67,0.46c0.25,0.11,0.53,0.16,0.83,0.16h17.6c0.59,0,1.07-0.2,1.48-0.62c0.41-0.42,0.61-0.91,0.61-1.52
				C226.33,116.15,226.13,115.67,225.72,115.25z"/>
		</g>
		<g>
			
				<linearGradient id="SVGID_2_" gradientUnits="userSpaceOnUse" x1="55.4824" y1="109.1641" x2="39.6505" y2="109.2593" gradientTransform="matrix(0.2851 -0.9585 0.9585 0.2851 -65.3481 129.4849)">
				<stop  offset="0" style="stop-color:#FFFFFF"/>
				<stop  offset="1" style="stop-color:#000000"/>
			</linearGradient>
			
				<line fill="url(#SVGID_2_)" stroke="#0096A9" stroke-width="2.0644" stroke-linecap="round" stroke-linejoin="round" stroke-miterlimit="10" x1="57.51" y1="115.09" x2="50.8" y2="106.29"/>
			<path fill="#0096A9" d="M60.71,96.81v-3.33c0-1.77-1.43-3.2-3.2-3.2c-1.76,0-3.2,1.43-3.2,3.2h0v3.36
				c-8.81,1.56-15.53,9.25-15.53,18.5c0,10.37,8.43,18.8,18.8,18.8c10.37,0,18.8-8.43,18.8-18.8
				C76.39,106.03,69.59,98.3,60.71,96.81z M57.59,131.15c-8.72,0-15.82-7.1-15.82-15.82s7.1-15.82,15.82-15.82
				c8.72,0,15.82,7.1,15.82,15.82S66.31,131.15,57.59,131.15z"/>
			<circle fill="#0096A9" cx="57.51" cy="115.09" r="2.26"/>
		</g>
	</g>
	<g id="Wording">
		<rect x="28.9" y="185.21" display="inline" fill="none" width="203.19" height="33.07"/>
		
			<text transform="matrix(1 0 0 1 42.958 213.3198)" display="inline" fill="#0096A9" font-family="'Comfortaa-Light'" font-size="36">Powernap</text>
	</g>
</g>
<g id="Programm-Icons_Kopie">
	<path fill="#FFFFFF" stroke="#106873" stroke-width="2" stroke-miterlimit="10" d="M259.44,130.5
		c0,71.21-57.73,128.94-128.94,128.94c-71.22,0-128.94-57.73-128.94-128.94C1.56,59.29,59.28,1.56,130.5,1.56
		C201.71,1.56,259.44,59.29,259.44,130.5z"/>
	<g>
		<rect x="-252.19" y="108.69" fill="none" width="266.05" height="66.51"/>
		<text transform="matrix(1 0 0 1 -252.1855 139.3501)" fill="#1D1D1B" font-family="'MuseoSans-500'" font-size="43.4369">powernap</text>
	</g>
	<path fill="#0096A9" d="M54.19,167.89c0.07-3.01,0-1.4,0-1.4c0-9.45,6.84-19.5,19.5-19.5h33.6c1.38,0,2.5-1.12,2.5-2.5v-0.48
		c0-1.2-0.86-2.23-2.04-2.46c-10.71-2.01-17.37-11.42-17.37-24.56c0-0.44,0.01-0.87,0.04-1.3c0.01-0.18-0.01-0.36-0.04-0.54V89.91
		c0.04-0.18,0.04-0.37,0.04-0.56c-0.02-0.43-0.04-0.87-0.04-1.3c0-13.78,11.22-25,25-25c13.79,0,25,11.22,25,25
		c0,0.44-0.01,0.87-0.03,1.3c0,0.04,0,0.08,0,0.13v26.07c0,0.04,0,0.08,0,0.13c0.02,0.43,0.03,0.86,0.03,1.3
		c0,12.97-6.19,22.1-16.56,24.4c-1.14,0.25-1.95,1.27-1.95,2.44v0.66c0,1.38,1.12,2.5,2.5,2.5h32.7c7.28,0,19.5,2.53,19.5,19.5
		c0,0,0.07-1.63,0,1.4c0,3.43,5.11,3.37,5,0c-0.02-2.56,0-1.4,0-1.4c0-15.34-9.16-24.5-24.5-24.5h-22.69c6.96-5.17,11-14.05,11-25
		c0-0.5-0.01-1-0.04-1.49V89.55c0.03-0.49,0.04-0.99,0.04-1.49c0-16.54-13.46-30-30-30c-16.54,0-30,13.46-30,30
		c0,0.37,0.01,0.74,0.02,1.11c-0.01,0.1-0.02,0.21-0.02,0.32v26.07c0,0.11,0.01,0.21,0.02,0.32c-0.01,0.37-0.02,0.74-0.02,1.11
		c0,11,4.04,19.84,11,25H73.69c-15.91,0-24.5,12.62-24.5,24.5c0,0,0-2.78,0,1.4C49.2,171.44,54.13,170.89,54.19,167.89z"/>
	<g>
		<g>
			<path fill="#0096A9" stroke="#FFFFFF" stroke-width="0.6" stroke-miterlimit="10" d="M169.85,128.31h-12.48
				c-0.24,0-0.46-0.04-0.67-0.13c-0.21-0.09-0.39-0.21-0.54-0.37c-0.16-0.16-0.27-0.34-0.36-0.55c-0.09-0.21-0.13-0.43-0.13-0.66
				c0-0.4,0.12-0.76,0.35-1.07l10.17-12.2h-8.81c-0.46,0-0.86-0.17-1.19-0.5c-0.33-0.33-0.5-0.74-0.5-1.22
				c0-0.47,0.17-0.87,0.5-1.21c0.33-0.33,0.73-0.5,1.19-0.5h12.48c0.24,0,0.47,0.04,0.67,0.13c0.21,0.09,0.39,0.21,0.54,0.37
				c0.16,0.16,0.28,0.34,0.37,0.55c0.09,0.21,0.14,0.43,0.14,0.66c0,0.45-0.14,0.83-0.41,1.13l-10.16,12.13h8.84
				c0.47,0,0.87,0.17,1.2,0.5c0.33,0.33,0.49,0.74,0.49,1.21c0,0.48-0.16,0.89-0.49,1.22C170.72,128.15,170.32,128.31,169.85,128.31
				z"/>
		</g>
		<g>
			<path fill="#0096A9" stroke="#FFFFFF" stroke-width="0.6" stroke-miterlimit="10" d="M194.46,124.09h-15.02
				c-0.29,0-0.56-0.05-0.81-0.16c-0.25-0.11-0.47-0.25-0.66-0.45c-0.19-0.19-0.33-0.41-0.43-0.66c-0.11-0.25-0.16-0.51-0.16-0.79
				c0-0.49,0.14-0.92,0.42-1.29l12.25-14.69h-10.61c-0.56,0-1.03-0.2-1.43-0.6c-0.4-0.4-0.61-0.89-0.61-1.47
				c0-0.57,0.2-1.05,0.61-1.46c0.4-0.4,0.88-0.6,1.43-0.6h15.02c0.29,0,0.56,0.05,0.81,0.16c0.25,0.11,0.47,0.26,0.65,0.45
				c0.19,0.19,0.33,0.41,0.45,0.66c0.11,0.25,0.17,0.51,0.17,0.79c0,0.54-0.17,1-0.5,1.36l-12.23,14.61h10.65
				c0.57,0,1.05,0.2,1.45,0.6s0.6,0.89,0.6,1.46c0,0.58-0.2,1.07-0.6,1.47C195.51,123.89,195.03,124.09,194.46,124.09z"/>
		</g>
		<g>
			<path fill="#0096A9" stroke="#FFFFFF" stroke-width="0.6" stroke-miterlimit="10" d="M221.24,119.17h-17.6
				c-0.34,0-0.66-0.06-0.95-0.18c-0.29-0.12-0.55-0.3-0.77-0.52c-0.22-0.22-0.39-0.48-0.51-0.78c-0.13-0.29-0.18-0.6-0.18-0.93
				c0-0.57,0.16-1.07,0.49-1.51l14.35-17.2h-12.43c-0.65,0-1.21-0.23-1.68-0.71c-0.47-0.47-0.71-1.05-0.71-1.73
				c0-0.66,0.24-1.23,0.71-1.7c0.47-0.47,1.03-0.71,1.68-0.71h17.6c0.34,0,0.66,0.06,0.95,0.19c0.29,0.13,0.55,0.3,0.76,0.52
				c0.22,0.22,0.39,0.48,0.52,0.78c0.13,0.29,0.2,0.6,0.2,0.93c0,0.64-0.19,1.17-0.58,1.6l-14.33,17.11h12.47
				c0.67,0,1.23,0.23,1.69,0.71c0.46,0.47,0.7,1.04,0.7,1.7c0,0.68-0.23,1.26-0.7,1.73C222.47,118.94,221.91,119.17,221.24,119.17z"
				/>
		</g>
	</g>
	<g id="Ebene_12_Kopie">
		<path opacity="0.2" fill="#164959" stroke="#FFFFFF" stroke-width="0.6452" stroke-miterlimit="10" d="M-701.69-1384.77v2385.24
			h3123.54v-2385.24H-701.69z M1470.34-721.5c0-9.39,7.61-17.01,17.01-17.01h141.04h109.99c9.39,0,17.01,7.61,17.01,17.01v251.04
			c0,9.39-7.62,17.01-17.01,17.01h-251.04c-9.39,0-17.01-7.61-17.01-17.01V-721.5z M1470.34-373.3c0-9.39,7.61-17.01,17.01-17.01
			h141.04h109.99c9.39,0,17.01,7.61,17.01,17.01v251.04c0,9.39-7.62,17.01-17.01,17.01h-251.04c-9.39,0-17.01-7.61-17.01-17.01
			V-373.3z M1470.34,2.52c0-9.39,7.61-17.01,17.01-17.01h141.04h109.99c9.39,0,17.01,7.61,17.01,17.01v251.04
			c0,9.39-7.62,17.01-17.01,17.01h-251.04c-9.39,0-17.01-7.61-17.01-17.01V2.52z M616.93-717.75v251.04
			c0,9.39-7.61,17.01-17.01,17.01H348.88c-9.39,0-17.01-7.61-17.01-17.01v-251.04c0-9.39,7.61-17.01,17.01-17.01h251.04
			C609.31-734.75,616.93-727.14,616.93-717.75z M250.43-1357.79c126.23,0,228.57,102.33,228.57,228.57
			c0,126.23-102.33,228.57-228.57,228.57c-126.23,0-228.57-102.33-228.57-228.57C21.87-1255.45,124.2-1357.79,250.43-1357.79z
			 M281.69,583.47c0,9.39-7.62,17.01-17.01,17.01H13.64c-9.39,0-17.01-7.61-17.01-17.01V332.43c0-9.39,7.61-17.01,17.01-17.01
			h141.04h109.99c9.39,0,17.01,7.61,17.01,17.01V583.47z M282.69,253.36c0,9.39-7.62,17.01-17.01,17.01H14.64
			c-9.39,0-17.01-7.61-17.01-17.01V2.33c0-9.39,7.61-17.01,17.01-17.01h141.04h109.99c9.39,0,17.01,7.61,17.01,17.01V253.36z
			 M-3.16-373.65c0-9.39,7.61-17.01,17.01-17.01h141.04h109.99c9.39,0,17.01,7.61,17.01,17.01v251.04c0,9.39-7.61,17.01-17.01,17.01
			H13.85c-9.39,0-17.01-7.61-17.01-17.01V-373.65z M618.63,956.57c0,9.39-7.62,17.01-17.01,17.01H350.59
			c-9.39,0-17.01-7.61-17.01-17.01V705.54c0-9.39,7.61-17.01,17.01-17.01h141.04h109.99c9.39,0,17.01,7.61,17.01,17.01V956.57z
			 M1755.39,955.95c0,9.39-7.62,17.01-17.01,17.01h-251.04c-9.39,0-17.01-7.61-17.01-17.01V704.91c0-9.39,7.61-17.01,17.01-17.01
			h141.04h109.99c9.39,0,17.01,7.61,17.01,17.01V955.95z M2417.86,583.12c0,9.39-7.62,17.01-17.01,17.01h-251.04
			c-9.39,0-17.01-7.61-17.01-17.01V332.09c0-9.39,7.62-17.01,17.01-17.01h141.04h109.99c9.39,0,17.01,7.61,17.01,17.01V583.12z
			 M1881.31-900.65c-126.23,0-228.57-102.33-228.57-228.57c0-126.23,102.33-228.57,228.57-228.57
			c126.23,0,228.57,102.33,228.57,228.57C2109.88-1002.98,2007.55-900.65,1881.31-900.65z"/>
	</g>
	<g>
		<path fill="#0096A9" d="M102,107.01c-3.92,0-6.23-3.35-6.33-3.49c-0.43-0.64-0.26-1.51,0.38-1.94c0.63-0.43,1.5-0.27,1.93,0.37
			c0.04,0.05,1.61,2.27,4.02,2.27c2.4,0,4-2.24,4.02-2.27c0.44-0.64,1.31-0.8,1.94-0.36c0.64,0.44,0.8,1.3,0.36,1.94
			C108.23,103.67,105.9,107.01,102,107.01z"/>
	</g>
	<g>
		<path fill="#0096A9" d="M128.76,107.01c-3.9,0-6.23-3.34-6.32-3.48c-0.43-0.64-0.27-1.5,0.36-1.94c0.64-0.44,1.5-0.27,1.94,0.36
			c0.01,0.02,1.61,2.27,4.02,2.27c2.42,0,4-2.24,4.02-2.26c0.43-0.64,1.3-0.81,1.94-0.37c0.64,0.43,0.81,1.3,0.38,1.94
			C135,103.66,132.69,107.01,128.76,107.01z"/>
	</g>
</g>
<g id="ANIM">
</g>
<g id="Ebene_14">
</g>
<g id="Ebene_10">
</g>
<g id="Colors">
</g>
<g id="TXT" display="none">
	<g display="inline">
		<polyline fill="none" stroke="#000000" stroke-width="1.0002" stroke-miterlimit="10" points="2723.13,5285.11 3028.86,5285.11 
			3028.86,-2043.19 -1281.57,-2043.19 -1281.57,3324.82 -1752.17,3324.82 -1752.17,2931.53 -7092.82,2931.53 -7092.82,1877.93 
			-6752.83,1877.93 -6752.83,2764.61 -4141.1,2764.61 -4141.1,553.62 -6752.83,553.62 -6752.83,1418.27 -7092.82,1418.27 
			-7092.82,543.92 -13215.75,543.92 -13216.61,5994.24 -11407.56,5994.24 -11407.56,9345.05 -13217.14,9345.05 -13217.52,11755.84 
			3084.35,11755.84 3084.35,11456.95 -153.04,11456.95 -153.04,9347.26 3084.35,9347.26 3084.35,5795.04 -1752.17,5795.04 
			-1752.17,3537.71 -1281.57,3537.71 -1281.57,5285.11 -909.07,5285.11 		"/>
	</g>
	<rect x="28.9" y="185.21" display="inline" fill="none" width="203.19" height="33.07"/>
	
		<text transform="matrix(1 0 0 1 42.958 213.3198)" display="inline" fill="#0096A9" font-family="'Comfortaa-Light'" font-size="36">Powernap</text>
</g>
<g id="PopUp">
</g>
<g id="_x31_st_x5F_Welcome">
</g>
<g id="Ebene_19">
</g>
<g id="Ebene_22">
</g>
<g id="Icons">
</g>
<g id="Ebene_21">
</g>
</svg>
