<?xml version="1.0" encoding="utf-8"?>
<!-- Generator: Adobe Illustrator 16.0.0, SVG Export Plug-In . SVG Version: 6.00 Build 0)  -->
<!DOCTYPE svg PUBLIC "-//W3C//DTD SVG 1.1//EN" "http://www.w3.org/Graphics/SVG/1.1/DTD/svg11.dtd">
<svg version="1.1" xmlns="http://www.w3.org/2000/svg" xmlns:xlink="http://www.w3.org/1999/xlink" x="0px" y="0px" width="261px"
	 height="261px" viewBox="0 0 261 261" enable-background="new 0 0 261 261" xml:space="preserve">
<g id="DESIGN_x5F_Master">
	<g id="Screens">
	</g>
</g>
<g id="Batterystatus">
</g>
<g id="Startbildschirm_x5F_UIX">
</g>
<g id="STRUKTUR">
</g>
<g id="Inakt_x2F_Purch">
</g>
<g id="rest">
</g>
<g id="Programm-Icons" display="none">
	<rect x="35.69" y="185.49" display="inline" fill="none" width="190.2" height="33.07"/>
	<text transform="matrix(1 0 0 1 53.7979 213.6091)" fill="#0096A9" font-family="'Comfortaa-Light'" font-size="36">Time out</text>
	<g display="inline">
	</g>
	<g id="Ebene_12" display="inline">
	</g>
	<g id="Chillout_x5F_01" display="inline">
		<circle fill="#FFFFFF" stroke="#106873" stroke-width="2" stroke-miterlimit="10" cx="130.79" cy="130.79" r="128.94"/>
		<path fill="#0096A9" d="M68.49,168.18c0-4.29,0-36.4,0-36.4c0-9.45,6.83-19.5,19.5-19.5h33.59c1.38,0,2.5-1.12,2.5-2.5v-0.48
			c0-1.2-0.86-2.23-2.04-2.46c-10.71-2.01-17.37-11.42-17.37-24.56c0-0.44,0-28.49,0-28.93c0-13.78,11.22-25,25-25
			c13.79,0,25,11.22,25,25c0,0.44,0,28.49,0,28.93c0,12.97-6.19,22.1-16.55,24.4c-1.14,0.25-1.96,1.27-1.96,2.44v0.66
			c0,1.38,1.12,2.5,2.5,2.5h32.71c7.28,0,19.5,2.53,19.5,19.5c0,0-0.01,33.02,0,36.4c0.01,3.38,5,3.65,5,0c0-3.65,0-36.4,0-36.4
			c0-15.34-9.16-24.5-24.5-24.5h-22.69c6.96-5.17,11-14.05,11-25c0-0.5,0-28.43,0-28.93c0-16.54-13.46-30-30-30
			c-16.54,0-30,13.46-30,30c0,0.37,0,28.56,0,28.93c0,11,4.04,19.84,11,25H87.99c-15.91,0-24.5,12.62-24.5,24.5c0,0,0,32.52,0,36.4
			C63.49,172.06,68.49,172.46,68.49,168.18z"/>
		<path fill="none" stroke="#0096A9" stroke-width="2" stroke-linecap="round" stroke-linejoin="round" stroke-miterlimit="10" d="
			M129.68,139.11c15.72-6.12,24.18-8.73,35.8-8.73"/>
		<path fill="none" stroke="#0096A9" stroke-width="2" stroke-linecap="round" stroke-linejoin="round" stroke-miterlimit="10" d="
			M129.68,139.11c-15.72-6.12-24.18-8.73-35.8-8.73"/>
		<path fill="#0096A9" d="M170.43,131.64c-0.34-0.29-0.8-0.4-1.23-0.32l-39.52,7.27l-39.52-7.27c-0.44-0.08-0.89,0.04-1.23,0.32
			c-0.34,0.28-0.54,0.71-0.54,1.15v36.91c0,0.83,0.67,1.5,1.5,1.5s1.5-0.67,1.5-1.5v-35.11l34.79,6.4l0,26.93
			c0,1.83,1.57,3.32,3.5,3.32c1.93,0,3.5-1.48,3.5-3.32l0-26.93l34.79-6.4v35.11c0,0.83,0.67,1.5,1.5,1.5s1.5-0.67,1.5-1.5v-36.91
			C170.97,132.35,170.77,131.92,170.43,131.64z"/>
	</g>
	<g id="Wording">
		<rect x="35.69" y="185.49" display="inline" fill="none" width="190.2" height="33.07"/>
		
			<text transform="matrix(1 0 0 1 65.751 213.6091)" display="inline" fill="#0096A9" font-family="'Comfortaa-Light'" font-size="36">Chillout</text>
	</g>
</g>
<g id="Programm-Icons_Kopie">
	<circle fill="#FFFFFF" stroke="#106873" stroke-width="2" stroke-miterlimit="10" cx="130.79" cy="130.79" r="128.94"/>
	<path fill="#0096A9" d="M68.49,168.18c0-4.29,0-36.4,0-36.4c0-9.45,6.83-19.5,19.5-19.5h33.59c1.38,0,2.5-1.12,2.5-2.5v-0.48
		c0-1.2-0.86-2.23-2.04-2.46c-10.71-2.01-17.37-11.42-17.37-24.56c0-0.44,0-28.49,0-28.93c0-13.78,11.22-25,25-25
		c13.79,0,25,11.22,25,25c0,0.44,0,28.49,0,28.93c0,12.97-6.19,22.1-16.55,24.4c-1.14,0.25-1.96,1.27-1.96,2.44v0.66
		c0,1.38,1.12,2.5,2.5,2.5h32.71c7.28,0,19.5,2.53,19.5,19.5c0,0-0.01,33.02,0,36.4c0.01,3.38,5,3.65,5,0c0-3.65,0-36.4,0-36.4
		c0-15.34-9.16-24.5-24.5-24.5h-22.69c6.96-5.17,11-14.05,11-25c0-0.5-0.04-27.44-0.04-27.44c0.02-0.49,0.04-0.99,0.04-1.49
		c0-16.54-13.46-30-30-30c-16.54,0-30,13.46-30,30c0,0.37,0,28.56,0,28.93c0,11,4.04,19.84,11,25H87.99
		c-15.91,0-24.5,12.62-24.5,24.5c0,0,0,32.52,0,36.4C63.49,172.06,68.49,172.46,68.49,168.18z"/>
	<rect x="35.69" y="185.49" fill="none" width="190.2" height="33.07"/>
	
		<text transform="matrix(1 0 0 1 53.7979 213.6091)" display="none" fill="#0096A9" font-family="'Comfortaa-Light'" font-size="36">Time out</text>
	<polyline fill="none" stroke="#0096A9" stroke-width="3" stroke-linejoin="round" stroke-miterlimit="10" points="89.89,170.18 
		89.89,132.79 129.68,140.11 	"/>
	<line fill="none" stroke="#0096A9" stroke-width="8" stroke-miterlimit="10" x1="129.68" y1="138.11" x2="129.68" y2="179.89"/>
	<polyline fill="none" stroke="#0096A9" stroke-width="3" stroke-linejoin="round" stroke-miterlimit="10" points="169.47,170.18 
		169.47,132.79 129.68,140.11 	"/>
	<path fill="none" stroke="#0096A9" stroke-width="2" stroke-linecap="round" stroke-linejoin="round" stroke-miterlimit="10" d="
		M129.68,139.11c15.72-6.12,24.18-8.73,35.8-8.73"/>
	<path fill="none" stroke="#0096A9" stroke-width="2" stroke-linecap="round" stroke-linejoin="round" stroke-miterlimit="10" d="
		M129.68,139.11c-15.72-6.12-24.18-8.73-35.8-8.73"/>
	<g>
	</g>
	<g id="Ebene_12_Kopie">
		<path opacity="0.2" fill="#164959" stroke="#FFFFFF" stroke-width="0.6452" stroke-miterlimit="10" d="M-1035.54-664.86v2385.24
			h3123.54V-664.86H-1035.54z M1136.49-1.58c0-9.39,7.61-17.01,17.01-17.01h141.04h109.99c9.39,0,17.01,7.61,17.01,17.01v251.04
			c0,9.39-7.62,17.01-17.01,17.01h-251.04c-9.39,0-17.01-7.61-17.01-17.01V-1.58z M1136.49,346.61c0-9.39,7.61-17.01,17.01-17.01
			h141.04h109.99c9.39,0,17.01,7.61,17.01,17.01v251.04c0,9.39-7.62,17.01-17.01,17.01h-251.04c-9.39,0-17.01-7.61-17.01-17.01
			V346.61z M1136.49,722.43c0-9.39,7.61-17.01,17.01-17.01h141.04h109.99c9.39,0,17.01,7.61,17.01,17.01v251.04
			c0,9.39-7.62,17.01-17.01,17.01h-251.04c-9.39,0-17.01-7.61-17.01-17.01V722.43z M283.07,2.17v251.04
			c0,9.39-7.61,17.01-17.01,17.01H15.03c-9.39,0-17.01-7.61-17.01-17.01V2.17c0-9.39,7.61-17.01,17.01-17.01h251.04
			C275.46-14.84,283.07-7.22,283.07,2.17z M-83.42-637.87c126.23,0,228.57,102.33,228.57,228.57
			c0,126.23-102.33,228.57-228.57,228.57c-126.23,0-228.57-102.33-228.57-228.57C-311.99-535.54-209.65-637.87-83.42-637.87z
			 M-52.17,1303.38c0,9.39-7.62,17.01-17.01,17.01h-251.04c-9.39,0-17.01-7.61-17.01-17.01v-251.04c0-9.39,7.61-17.01,17.01-17.01
			h141.04h109.99c9.39,0,17.01,7.61,17.01,17.01V1303.38z M-51.17,973.28c0,9.39-7.62,17.01-17.01,17.01h-251.04
			c-9.39,0-17.01-7.61-17.01-17.01V722.24c0-9.39,7.61-17.01,17.01-17.01h141.04h109.99c9.39,0,17.01,7.61,17.01,17.01V973.28z
			 M-337.01,346.27c0-9.39,7.61-17.01,17.01-17.01h141.04h109.99c9.39,0,17.01,7.61,17.01,17.01v251.04
			c0,9.39-7.61,17.01-17.01,17.01H-320c-9.39,0-17.01-7.61-17.01-17.01V346.27z M284.78,1676.49c0,9.39-7.62,17.01-17.01,17.01
			H16.73c-9.39,0-17.01-7.61-17.01-17.01v-251.04c0-9.39,7.61-17.01,17.01-17.01h141.04h109.99c9.39,0,17.01,7.61,17.01,17.01
			V1676.49z M1421.54,1675.86c0,9.39-7.62,17.01-17.01,17.01h-251.04c-9.39,0-17.01-7.61-17.01-17.01v-251.04
			c0-9.39,7.61-17.01,17.01-17.01h141.04h109.99c9.39,0,17.01,7.61,17.01,17.01V1675.86z M2084.01,1303.04
			c0,9.39-7.62,17.01-17.01,17.01h-251.04c-9.39,0-17.01-7.61-17.01-17.01V1052c0-9.39,7.62-17.01,17.01-17.01H1957H2067
			c9.39,0,17.01,7.61,17.01,17.01V1303.04z M1547.46-180.74c-126.23,0-228.57-102.33-228.57-228.57
			c0-126.23,102.33-228.57,228.57-228.57c126.23,0,228.57,102.33,228.57,228.57C1776.03-283.07,1673.7-180.74,1547.46-180.74z"/>
	</g>
</g>
<g id="ANIM">
</g>
<g id="Ebene_14">
</g>
<g id="Ebene_10">
</g>
<g id="Colors">
</g>
<g id="TXT" display="none">
	<g display="inline">
		<polyline fill="none" stroke="#000000" stroke-width="1.0002" stroke-miterlimit="10" points="2389.27,6005.03 2695.01,6005.03 
			2695.01,-1323.27 -1615.42,-1323.27 -1615.42,4044.74 -2086.02,4044.74 -2086.02,3651.44 -7426.68,3651.44 -7426.68,2597.84 
			-7086.68,2597.84 -7086.68,3484.52 -4474.95,3484.52 -4474.95,1273.54 -7086.68,1273.54 -7086.68,2138.19 -7426.68,2138.19 
			-7426.68,1263.84 -13549.6,1263.84 -13550.46,6714.16 -11741.41,6714.16 -11741.41,10064.96 -13550.99,10064.96 
			-13551.37,12475.75 2750.5,12475.75 2750.5,12176.86 -486.9,12176.86 -486.9,10067.18 2750.5,10067.18 2750.5,6514.96 
			-2086.02,6514.96 -2086.02,4257.63 -1615.42,4257.63 -1615.42,6005.03 -1242.92,6005.03 		"/>
	</g>
	<rect x="35.69" y="185.49" display="inline" fill="none" width="190.2" height="33.07"/>
	
		<text transform="matrix(1 0 0 1 65.751 213.6091)" display="inline" fill="#0096A9" font-family="'Comfortaa-Light'" font-size="36">Chillout</text>
</g>
<g id="PopUp">
</g>
<g id="_x31_st_x5F_Welcome">
</g>
<g id="Ebene_19">
	<g>
		<path fill="#0096A9" d="M143.38,60.93c1.5,0,2.71,1.21,2.71,2.71v7.31c0,1.5-1.21,2.71-2.71,2.71s-2.71-1.21-2.71-2.71v-7.31
			C140.67,62.14,141.88,60.93,143.38,60.93z"/>
		<path fill="#0096A9" d="M118.69,63.64v7.31c0,1.5-1.21,2.71-2.71,2.71c-1.5,0-2.71-1.21-2.71-2.71v-7.31
			c0-1.5,1.21-2.71,2.71-2.71C117.47,60.93,118.69,62.14,118.69,63.64z"/>
	</g>
</g>
<g id="Ebene_22">
</g>
<g id="Icons">
</g>
<g id="Ebene_21">
</g>
</svg>
