<?xml version="1.0" encoding="utf-8"?>
<!-- Generator: Adobe Illustrator 16.0.0, SVG Export Plug-In . SVG Version: 6.00 Build 0)  -->
<!DOCTYPE svg PUBLIC "-//W3C//DTD SVG 1.1//EN" "http://www.w3.org/Graphics/SVG/1.1/DTD/svg11.dtd">
<svg version="1.1" xmlns="http://www.w3.org/2000/svg" xmlns:xlink="http://www.w3.org/1999/xlink" x="0px" y="0px" width="261px"
	 height="261px" viewBox="0 0 261 261" enable-background="new 0 0 261 261" xml:space="preserve">
<g id="DESIGN_x5F_Master">
	<g id="Screens">
	</g>
	<path fill="#0096A9" d="M69.17,167.89c0.07-3.01,0-1.4,0-1.4c0-9.45,6.83-19.5,19.5-19.5h33.59c1.38,0,2.5-1.12,2.5-2.5v-0.48
		c0-1.2-0.86-2.23-2.04-2.46c-10.71-2.01-17.37-11.42-17.37-24.56c0-0.44,0.01-0.87,0.04-1.3c0.01-0.18,0-0.36-0.04-0.54V89.91
		c0.03-0.18,0.04-0.37,0.04-0.56c-0.02-0.43-0.04-0.87-0.04-1.3c0-13.79,11.22-25,25-25c13.79,0,25,11.21,25,25
		c0,0.44-0.01,0.87-0.03,1.3c0,0.04,0,0.08,0,0.13l0,26.07c0,0.04,0,0.09,0,0.13c0.02,0.43,0.03,0.86,0.03,1.3
		c0,12.97-6.19,22.1-16.56,24.4c-1.14,0.25-1.96,1.27-1.96,2.44v0.66c0,1.38,1.12,2.5,2.5,2.5h32.7c7.28,0,19.5,2.53,19.5,19.5
		c0,0,0.06-1.63,0,1.4c0,3.43,5.11,3.37,5,0c-0.02-2.56,0-1.4,0-1.4c0-15.34-9.16-24.5-24.5-24.5h-22.69c6.96-5.17,11-14.04,11-25
		c0-0.5-0.01-1-0.04-1.49l0-25.95c0.03-0.49,0.04-0.99,0.04-1.49c0-16.54-13.46-30-30-30c-16.54,0-30,13.46-30,30
		c0,0.37,0.01,0.74,0.02,1.11c-0.01,0.11-0.02,0.21-0.02,0.32v26.07c0,0.11,0.01,0.21,0.02,0.32c-0.01,0.37-0.02,0.74-0.02,1.11
		c0,11,4.04,19.84,11,25H88.67c-15.91,0-24.5,12.62-24.5,24.5c0,0,0-2.78,0,1.4C64.18,171.44,69.1,170.89,69.17,167.89z"/>
	<rect x="43.38" y="185.21" fill="none" width="176.19" height="33.07"/>
	
		<text transform="matrix(1 0 0 1 45.6924 213.3179)" display="none" fill="#0096A9" font-family="'Comfortaa-Light'" font-size="36">Hangover</text>
	<path fill="#0096A9" d="M168.14,27.44c-0.64-2.45-4.08-3.64-10.54-3.64c-1.52,0-3.17,0.07-4.92,0.2c0.1-0.4,0.1-0.79,0-1.19
		c-0.46-1.75-2.63-2.57-6.85-2.57c-4.61,0-11.17,1.02-17.99,2.79c-8.66,2.26-22.99,7.3-21.79,11.92c0.07,0.26,0.19,0.5,0.34,0.72
		c-1.36,0.59-2.65,1.19-3.85,1.79c-7.42,3.69-10.68,6.85-9.95,9.65c0.64,2.45,4.08,3.64,10.54,3.64c7.56,0,18.33-1.68,29.55-4.6
		c9.85-2.57,18.91-5.79,25.51-9.07C165.61,33.4,168.87,30.24,168.14,27.44z M108.49,34.32c0.39-1.45,7.21-5.53,19.98-8.85
		c6.62-1.73,12.95-2.71,17.36-2.71c3.28,0,4.21,0.56,4.41,0.71c-0.06,0.22-0.28,0.5-0.62,0.82c-6.38,0.69-13.87,2.11-21.56,4.11
		c-6.93,1.8-13.46,3.93-19.02,6.18C108.72,34.47,108.56,34.37,108.49,34.32z M144.1,27.55c-3.31,1.53-7.93,3.23-13.84,4.77
		c-5.59,1.46-10.96,2.38-15.15,2.63c4.2-1.49,8.79-2.89,13.57-4.13C134.04,29.43,139.28,28.32,144.1,27.55z M157.07,34.86
		c-6.45,3.21-15.34,6.37-25.03,8.89c-11.02,2.87-21.56,4.52-28.92,4.52c-6.06,0-7.96-1.16-8.12-1.77c-0.2-0.76,1.35-3.15,8.64-6.78
		c1.69-0.84,3.54-1.67,5.54-2.5c1,0.21,2.22,0.32,3.71,0.32c4.61,0,11.16-1.02,17.98-2.79c5.99-1.56,11.5-3.52,15.52-5.52
		c1.78-0.88,3.16-1.72,4.19-2.52c2.55-0.26,4.92-0.4,7.01-0.4c6.06,0,7.96,1.16,8.12,1.77C165.92,28.83,164.36,31.23,157.07,34.86z"
		/>
	<g>
		<path fill="#0096A9" d="M193.52,57.06h-6.84l4.84-4.84c0.39-0.39,0.39-1.02,0-1.41s-1.02-0.39-1.41,0l-4.84,4.84V48.8
			c0-0.55-0.45-1-1-1s-1,0.45-1,1v6.85l-4.84-4.84c-0.39-0.39-1.02-0.39-1.41,0s-0.39,1.02,0,1.41l4.84,4.84H175c-0.55,0-1,0.45-1,1
			s0.45,1,1,1h6.85l-4.84,4.84c-0.39,0.39-0.39,1.02,0,1.41c0.2,0.2,0.45,0.29,0.71,0.29s0.51-0.1,0.71-0.29l4.84-4.84v6.85
			c0,0.55,0.45,1,1,1s1-0.45,1-1v-6.84l4.84,4.84c0.2,0.2,0.45,0.29,0.71,0.29s0.51-0.1,0.71-0.29c0.39-0.39,0.39-1.02,0-1.41
			l-4.84-4.84h6.84c0.55,0,1-0.45,1-1S194.08,57.06,193.52,57.06z"/>
		<path fill="#0096A9" d="M79.63,121.23h-6.84l4.84-4.84c0.39-0.39,0.39-1.02,0-1.41s-1.02-0.39-1.41,0l-4.84,4.84v-6.84
			c0-0.55-0.45-1-1-1s-1,0.45-1,1v6.85l-4.84-4.84c-0.39-0.39-1.02-0.39-1.41,0s-0.39,1.02,0,1.41l4.84,4.84h-6.84
			c-0.55,0-1,0.45-1,1s0.45,1,1,1h6.84l-4.84,4.84c-0.39,0.39-0.39,1.02,0,1.41c0.2,0.2,0.45,0.29,0.71,0.29s0.51-0.1,0.71-0.29
			l4.84-4.84v6.84c0,0.55,0.45,1,1,1s1-0.45,1-1v-6.84l4.84,4.84c0.2,0.2,0.45,0.29,0.71,0.29s0.51-0.1,0.71-0.29
			c0.39-0.39,0.39-1.02,0-1.41l-4.84-4.84h6.85c0.55,0,1-0.45,1-1S80.19,121.23,79.63,121.23z"/>
	</g>
</g>
<g id="Ebene_7">
</g>
<g id="Startbildschirm_x5F_UIX">
</g>
<g id="STRUKTUR">
</g>
<g id="Ebene_5">
</g>
<g id="Ebene_6">
</g>
</svg>
